<?xml version="1.0" standalone="no"?>
<!DOCTYPE svg PUBLIC "-//W3C//DTD SVG 1.1//EN" "http://www.w3.org/Graphics/SVG/1.1/DTD/svg11.dtd" >
<svg xmlns="http://www.w3.org/2000/svg">
<metadata></metadata>
<defs>
<font id="equal_sans_demoregular" horiz-adv-x="630" >
<font-face units-per-em="2048" ascent="1536" descent="-512" />
<missing-glyph horiz-adv-x="468" />
<glyph unicode="&#xfb01;" horiz-adv-x="626" d="M0 2v993q0 141 72.5 227.5t191.5 86.5h260v-224h-157v66h-103q-35 0 -56.5 -17.5t-31.5 -42t-13 -51t-3 -45.5v-104h104v-160h-104v-729h-160zM367 2v961h157v-961h-157z" />
<glyph unicode="&#xfb02;" horiz-adv-x="628" d="M0 2v993q0 141 72.5 227.5t191.5 86.5h262v-1307h-159v1149h-103q-35 0 -56.5 -17.5t-31.5 -42t-13 -51t-3 -45.5v-104h104v-160h-104v-729h-160z" />
<glyph horiz-adv-x="2048" />
<glyph horiz-adv-x="2048" />
<glyph unicode="&#xd;" horiz-adv-x="1024" />
<glyph unicode=" "  horiz-adv-x="468" />
<glyph unicode="&#x09;" horiz-adv-x="468" />
<glyph unicode="&#xa0;" horiz-adv-x="468" />
<glyph unicode="!" horiz-adv-x="262" d="M0 0v164h160v-164h-160zM0 1307h160l-37 -932h-86z" />
<glyph unicode="&#x22;" horiz-adv-x="450" d="M0 934v375h160v-127l-74 -248h-86zM188 934v375h160v-127l-74 -248h-86z" />
<glyph unicode="#" horiz-adv-x="2293" d="M135 -205h37l21 -96l18 96h37l18 -96l23 96h35l-37 -127v-6h-37l-21 96l-20 -96h-37l-37 129v4zM205 625v579l315 68l-12 43l47 14l-10 47l49 10l-6 52l47 4v47h43l4 43l47 -6l8 47l51 -8l13 47l45 -13l18 43l47 -18l25 45l43 -22l25 41l43 -29l30 39l39 -31l33 33 l31 -29l30 27l31 -35l41 27l27 -43l45 24l22 -41l43 19l21 -47l49 14l14 -45l45 10l11 -49l51 4l2 -31l473 103v-580l-217 -47l4 -4l-27 -31l27 -33l-37 -30l27 -41l-43 -27l26 -43l-43 -24l19 -43l-47 -21l16 -49l-45 -14l8 -46l-49 -10l4 -51l-47 -4v-47h-41l-6 -43l-45 4 l-10 -45l-50 8l-14 -47l-45 14l-16 -47l-50 21l-22 -45l-43 22l-27 -41l-43 27l-28 -37l-37 31l-35 -33l-31 29l-33 -29l-28 37l-41 -27l-29 43l-43 -24l-22 41l-45 -19l-21 47l-47 -14l-14 45l-47 -10l-11 49l-49 -4l-6 47h-47v43l-41 4l4 47l-47 8l10 49l-49 15l14 45 l-32 12zM330 -205h35l22 -96l19 96h34l21 -96l20 96h37l-37 -127l-2 -6h-35l-22 96l-21 -96h-36l-35 129v4zM334 51q0 12 2 19q0 4 2 9t2 9q2 14 16 29q4 6 11.5 11t15.5 9q10 4 19.5 6t19.5 2h6q6 0 18 -4q6 0 10.5 -2t8.5 -4q14 -8 24 -22q4 -6 9 -15q2 -4 2 -12h-39 q0 6 -4 10q-2 6 -13 13q-10 6 -20 6q-6 0 -10 -2h-8l-17 -13q-4 -4 -7 -8t-5 -10q-4 -10 -4 -33q0 -18 6 -33q2 -14 14 -18q6 -4 11.5 -6t11.5 -4h6q14 0 20 6q8 0 15 10q4 6 7 11t3 12h-43v32h76v-98h-25l-4 23q-6 -10 -16 -17q-6 -4 -11.5 -5t-9.5 -5q-6 0 -11 -1t-11 -1 q-18 0 -29 8q-17 7 -25 19q-12 12 -18 30t-6 39zM334 788q0 -2 2 -4h10l10 7l13 12l8 12l12 12q2 4 10 13l74 102q6 10 12.5 17.5t10.5 17.5l24 37q6 10 12.5 18t10.5 19q6 10 11 18t9 18q2 6 0 9q-2 2 -6 2q-8 0 -10 -2l-10 -6l-21 -23l-18 -25q-10 -10 -17 -22l-18 -23 l-66 -94l-30 -49q-8 -12 -14.5 -24.5t-12.5 -24.5l-4 -6q0 -2 -1 -3t-1 -3v-5zM383 1004q2 -8 12 -15l21 -6q16 0 26 2q4 0 7 2q2 2 2 4t-2 2h-7q-4 0 -4 -2q-20 -2 -35 4q-8 4 -10 9q-4 8 -4 12q0 8 2 14l8 17l21 22q4 4 11 9t13 9q8 4 14.5 8.5t14.5 8.5t15.5 7t15.5 7 q8 2 15 4t18 6l32 7q20 4 31 4q10 0 27 -4q4 -2 9 -3.5t9 -5.5l10 -14q2 -6 2 -20q0 -6 -4 -23l-12 -22q-4 -8 -16 -25q-4 -6 -10.5 -11t-12.5 -12q-4 -6 -11 -11t-13 -11l-27 -16l-29 -13l-16 -6q-6 0 -14 -4h-7q-4 0 -6 -2q-4 0 -4 -2q-4 0 -4 -4q0 -2 2 -2h6q4 0 6 2h7 l30 10l31 12l31 15l30 18l27 19l25 22l20 23q4 6 7 12t5 12q6 12 7 23q2 12 0 20q-4 12 -9 19q-8 6 -16 10q-12 6 -23 6q-10 2 -28 2q-8 0 -29 -4q-16 -2 -32.5 -6t-32.5 -8t-32 -11.5t-32 -15.5q-8 -4 -15 -8t-16 -10q-16 -10 -26 -21q-8 -6 -21 -22l-10 -23q-2 -12 0 -20z M522 31q0 10 1 17t5 15q6 16 21 25q8 6 17 7t20 1q27 0 35 -8q12 -8 20 -27q4 -10 5 -18t1 -18v-9h-92q0 -12 10 -22q6 -8 23 -8q6 0 14 4q8 8 8 10h37q-4 -10 -12 -23q-6 -4 -11.5 -8t-9.5 -6q-8 -2 -13 -4t-13 -2q-66 0 -66 74zM522 -205h37l21 -96l18 96h37l18 -96l21 96 h37l-37 -127l-2 -6h-35l-21 96l-22 -96h-35l-37 129v4zM559 41h53q-4 12 -8 20q-4 4 -8 6.5t-10 2.5q-23 0 -27 -29zM641 803h2q23 0 23 -19v-55q0 -14 12 -27l18 -6q6 -2 23 -2q16 0 29 4q8 4 12 9q10 8 10 26v58l10 10h2l2 2h9v4h-56v-4h13q2 0 3 -1t3 -1q12 -6 12 -27 v-39q0 -16 -10 -26l-15 -11h-18q-14 0 -20 4q-4 0 -13 9q-4 4 -4 18v55q0 12 4 15q4 4 17 4h8v4h-76v-4zM657 70v24h19v35h35v-35h20v-24h-20v-72q0 -8 2 -10q2 0 5 -1t7 -1l4 2h2v-27h-20q-16 0 -23 4q-8 0 -10 8q-2 4 -2 15v82h-19zM657 924q2 -6 11 -15q12 -8 26 -6 q16 0 33 6q18 6 37 19q18 8 37 24l28 25l17 18q0 2 4 6q0 4 4 5l4 8l19 18l18 25q6 6 11 12t9 12l9 -4l4 -6q2 -4 2 -8q0 -2 -8 -10l-19 -21l-16 -22l-15 -23l-6 -20q-2 -4 -2 -11v-8q4 -6 6 -8t9 -2q4 0 20 4l19 12q16 12 24 21q6 4 11 10t10 10q8 8 10 13l10 12l4 6l6 6 q4 4 4 6l15 19l24 35q0 -4 1 -8.5t1 -8.5q4 -12 4 -16l5 -8q-20 -8 -29 -15l-23 -18q-12 -12 -14 -21q-4 -8 -4 -20q2 -6 12 -10q7 -2 23 -2q14 2 28 10q14 6 27 18q10 6 18 21l11 20q6 12 6 23v18q0 6 -4 19l-8 18l-7 8q0 4 -4 8q0 2 -4 7v6q2 2 2 4h-10l-4 -4 q-6 -2 -14 -11l-7 -14l-2 -2l-6 -8l-37 -51l-6 -8l-6 -11l-2 -2v-2q-2 0 -4 -2l-6 -10l-6 -8l-19 -23l-24 -22q-6 -6 -15 -9q-8 -4 -14 -4h-2l2 2l8 13l8 10l9 12q4 2 8 10l10 17l10 18l6 17q2 6 2 16q-2 2 -2 8l-4 6q0 4 -2 7v26l8 12q4 10 -4 15q-6 6 -20 0q-14 -4 -19 -8 q-8 -6 -12 -15q-4 -8 -4 -14q0 -8 2 -12l4 -4l4 -5l-6 -8l-6 -6l-29 -37l-22 -26q-2 0 -6 -4v-3l-2 -2q0 -2 -2 -2l-13 -16q-8 -8 -15 -15.5t-18 -13.5q-20 -16 -38 -24q-4 -4 -10.5 -5t-12.5 -5q-16 -4 -22 -3q-8 0 -9 5q-2 2 -2 8q0 2 4 10l4 10l13 21q8 -4 14 -4 q12 0 21 2q14 2 30 12q10 4 29 18l18 19q4 4 7.5 9t5.5 9l8 17q0 12 -4 16q-4 6 -10 10q-6 2 -21 2q-4 -2 -10 -2t-12 -4q-8 -2 -25 -10q-27 -12 -51 -33q-23 -18 -35 -41q-6 -6 -14 -22q-6 -10 -9 -23v-20zM711 -301h37v-37h-37v37zM723 983l18 25l21 24l8 10q4 4 6 5.5 t4 5.5l13 10l14 6q10 2 16 0q2 -4 0 -12l-6 -10q-4 -4 -8 -13q-4 -4 -5 -6t-5 -4q-2 -4 -11 -12q-4 -6 -10 -11q-8 -8 -12 -10l-14 -8q-12 -4 -15 -4q-6 0 -14 4zM780 -205h33v-20q12 25 39 24q14 0 20 -6q10 -4 17 -16q4 10 14 16q8 6 21 6q16 0 26 -8q8 -6 15 -16 q4 -4 4 -21v-92h-33v80q0 27 -21 27q-23 0 -22 -27v-80h-37v92q0 6 -6 13q-4 2 -14 2q-23 0 -23 -25v-82h-33v133zM807 776q0 -6 6 -12q0 -2 6 -8l15 -6q2 -2 8 -3.5t16 -5.5l8 -2q12 -4 17 -4q4 0 8 -4q2 0 4 -2q6 -6 6 -12q0 -2 -4 -10q-2 -2 -10 -9h-13q-12 0 -18 2 l-20 9l-13 12q-10 14 -10 24h-4v-51h4q0 8 4 8q4 4 10 5q2 0 2 -1t5 -1q2 0 3 -1.5t5 -1.5l16 -6q4 -2 16 -2q6 0 19 4q4 0 7 2t7 7q4 2 4 4t4 6v22l-6 9q-6 4 -14 8l-21 8h-12l-2 2l-16 4q-4 2 -6 2t-4 2q-2 0 -7 4q-4 4 -4 8q0 6 2 9q0 -2 4 6l9 4q4 0 6 1t6 1q8 0 16 -4 q10 0 17 -6q8 -4 12 -9q4 -4 5 -9t5 -11h4v37h-4q-2 -8 -8 -8t-10 2q-20 10 -37 10q-10 0 -23 -4l-14 -10q-6 -10 -6 -19zM809 70v24h18v10q0 37 39 37h19v-26h-11q-6 0 -8 -2q-4 0 -4 -4v-15h23v-24h-23v-109h-35v109h-18zM905 6v88h35v-82q0 -25 23 -24q8 0 12 2t12 10 q0 4 2 8t2 8v78h33v-133h-33v19q-6 -10 -16 -15q-16 -8 -25 -8q-20 0 -32 14q-12 12 -13 35zM928 696h119v45q-4 -4 -4.5 -7t-2.5 -7l-12 -16q-6 -6 -10 -6l-10 -5q-6 -2 -15 -2h-18v50h2q14 0 22 -9l5 -6q0 -2 1 -3t1 -5q2 -4 2 -10h2v71h-2v-10l-7 -12q-10 -12 -20 -12h-6 v51h20q18 0 25 -2l10 -8l6 -13l6 -16h5v43h-119v-4h4q10 0 12 -4q6 -4 6 -15v-65q0 -20 -18 -21h-4v-2zM987 979v10l4 12l8 11q10 12 23 20l27 12q0 -4 1 -6t1 -6q-2 -4 -2 -10q0 -4 -1 -6t-1 -6l-5 -11q-2 -4 -10 -12l-8 -6q-4 -4 -10 -4q-2 -2 -10 -2q-4 -4 -9 0 q-4 0 -8 4zM991 -303q0 20 13 31q8 8 26 12l33 4q10 4 10 10q0 16 -20 17q-4 0 -8.5 -1t-8.5 -1q-2 -4 -4 -8.5t-2 -8.5h-33q0 14 7 27q12 12 20 14l12 4q4 0 8.5 1t8.5 1q27 0 37 -8q10 -6 16 -14q2 -6 2 -17v-71q0 -11 2 -15q0 -6 6 -6v-6h-37q0 2 -2 4v2q-2 4 -2 10 q-8 -8 -12 -10l-12 -6q-4 -2 -17 -2q-14 0 -18 2q-10 2 -17 14q-8 6 -8 21zM1026 -301q0 -8 6 -10q4 -4 12 -4h7q2 0 3 1t3 1l12 8q4 4 4 14v19q-6 -6 -12 -7l-17 -2l-12 -6q-6 -6 -6 -14zM1057 -39v180h35v-180h-35zM1118 -39v180h33v-180h-33zM1120 752q0 -16 4 -23 q8 -12 15 -18q4 -4 10 -6.5t12 -6.5q16 -4 25 -4q23 0 33 8q12 7 24 21q8 10 8 29q0 12 -4 20t-12 19q-10 10 -23 12q-12 6 -26 6q-23 0 -33 -8q-10 -4 -15 -9.5t-10 -11.5q-8 -14 -8 -28zM1126 -205h37l21 -96l18 96h35l20 -96l23 96h35l-37 -127v-6h-37l-20 96l-21 -96 h-37l-37 129v4zM1133 1018q0 -6 4 -10t12 -9q4 0 6 -1t6 1h15q10 2 30 11l31 16l27 23l22 20l17 23l12 20l6 21q2 12 0 18q0 6 -6 12q-2 4 -12 8q-4 0 -8.5 1.5t-8.5 1.5q-6 0 -22 -5q-2 0 -15 -4l-14 -6l-29 -18q-8 -4 -14 -10.5t-12 -10.5l-21 -22l-14 -23 q-10 -17 -12 -31q-4 -14 0 -26zM1147 752q0 4 1 9t1 9l6 14q6 10 8 13q0 2 11 6q8 4 14 4q2 0 3 -1t5 -1l8 -4l10 -10q2 -4 4.5 -8.5t4.5 -10.5q0 -4 1 -9t1 -11q0 -12 -4 -29q-6 -12 -15 -21q-6 -4 -20 -4q-12 0 -15 4q-8 0 -14 11l-6 16q-4 12 -4 23zM1159 1020q0 4 2 6 q4 16 10 25q12 16 17 24l12 15l10 12l19 24q6 6 11 12.5t11 10.5l11 8l12 6q4 2 10 2q4 0 6 -4q2 -2 2 -8q0 -4 -4 -12l-6 -11l-6 -12q-4 -8 -8 -12l-8 -12q-4 -6 -8.5 -12.5t-8.5 -10.5l-18 -22l-23 -23q-6 -6 -12 -8q-6 -6 -14 -8q-5 -2 -11 -2l-4 4q-2 2 -2 8zM1241 70 v24h19v10q0 37 38 37h17v-26h-8q-8 0 -9 -2q-2 0 -4 -4v-15h25v-24h-25v-109h-34v109h-19zM1268 696h57v2q-6 0 -10 2q-4 0 -5 1t-5 1l-7 11q-2 2 -2 14v66l95 -97h4v78q0 12 6 23q2 6 18 6v4h-55v-4h10q0 -2 4 -2q8 -8 8 -10q4 -4 5 -17v-47l-78 80h-43v-4h2q8 0 10 -2 q4 0 5 -2t3 -2q2 -4 2 -11v-63q0 -8 -2 -12q-2 -6 -8 -9q-8 -4 -14 -4v-2zM1290 1022q2 0 3 -1t3 -1q6 0 11 2l10 6q0 2 4 6l4 4l6 6q0 2 4 7l21 24l22 25l21 24l24 25l25 22l10 11q4 2 12 10l13 8l14 6q2 0 2 -2h-2l-6 -6q-2 -6 -8 -8l-6 -8l-15 -17q-6 -6 -14 -18 q-12 -16 -16 -25l-17 -24q-4 -6 -8 -23q-4 -10 0 -18t10 -8q12 0 21 2q6 2 12 6t14 8q12 6 23 16l24 23l2 2q-2 -2 -2 -6q0 -8 5 -17q4 -8 12 -10q6 -2 22 2q20 8 29 15l25 18l8 8l8 8l16 15q-2 -2 -2 -6q0 -2 -1 -3.5t-1 -3.5v-8q-4 -6 0 -10q0 -4 1 -5t1 -3q2 -6 8 -6 q2 -2 9 -2q6 0 10 2l8 4l10 6l15 8l37 31l20 20l-6 -14q-4 -8 -4 -23v-6q4 -4 6 -4q0 -2 6 -2q2 0 10 4q4 2 7.5 3t7.5 5l12 9l12 12q4 2 13 10q6 4 11 10.5t11 12.5l21 24q2 2 2 4q-2 2 -5 2q-4 0 -8 -4l-4 -6l-14 -16l-12 -15q-4 -4 -7.5 -7t-7.5 -7l-16 -14l-8 -6l-11 -5 l-2 -2q-2 0 -4 2h2l9 17l4 8t6 8l8 13q4 4 8 12l74 108q12 12 16 21l19 18l43 49q10 12 19 24.5t20 25.5l12 20v10q-2 2 -10 2q-4 0 -13 -4q-4 0 -7 -2t-7 -4q-8 -4 -12 -8l-10 -8q-6 -4 -12.5 -9.5t-12.5 -11.5l-21 -22q-8 -8 -20 -25q-4 -8 -16 -24q-10 -12 -17.5 -24.5 t-15.5 -25.5l-31 -51l-22 -39l-9 -18q-2 0 -2 -2l-16 -17q-4 -6 -10 -11t-13 -11l-22 -21l-10 -8l-9 -6l-4 -2l-6 -4h-6h-4l6 12l6 10q0 2 1 2.5t1 2.5l2 2q4 8 9.5 15t11.5 15q4 8 9 16.5t11 16.5l17 25l8 14q4 4 8 12l2 2l2 2q0 2 1 2t1 3l2 2q6 4 4 8q0 2 -8 2l-12 -4 l-12 -6l-21 -15l-8 -8l-8 -8q0 8 -2 12q0 4 -8 8q-12 2 -25 0q-12 -4 -27 -10q-16 -6 -26 -14q-8 -4 -13.5 -9.5l-9.5 -9.5q-29 -23 -43 -45q-18 -23 -24 -43q-2 0 -2 -1t-3 -1q-4 -4 -9 -10t-11 -10q-8 -8 -25 -21q-6 -6 -14 -8q-8 -4 -12 -4h-4q-2 2 0 4l8 10l6 11l14 16 l25 33q6 8 12 15t10 17l11 21q4 12 2 18q0 6 -2 9q-4 4 -8 4q-6 0 -11 -2l-14 -7l-14 -8q-8 -8 -13 -10q-8 -8 -12 -10q-8 -8 -12 -10l-25 -25q-6 -6 -12 -11t-10 -12l-13 -14l-12 -12l4 6l29 41l31 43q0 2 1 2t1 2q2 2 2 4q2 4 2 8l-6 6q-2 0 -3.5 1.5t-5.5 1.5 q-2 0 -4 -1.5t-6 -1.5l-12 -6l-6 -6q-4 -2 -4 -4t-2 -4l-7 -8l-90 -156q-2 -2 -2 -8zM1329 27q0 10 4 26q2 12 13 23q12 12 22 16q8 4 29 4q20 0 30 -4q4 -4 9.5 -6t9.5 -6q10 -12 14 -25q4 -12 4 -28q0 -20 -8 -35q-6 -14 -22 -25q-16 -10 -37 -10q-23 0 -39 10 q-12 10 -23 27q-6 14 -6 33zM1331 -205h35v-20q14 25 41 24q13 0 25 -6q10 -4 14 -14q6 -12 6 -25v-92h-35v80q0 16 -4 20q-2 6 -18 7q-14 0 -21 -9q-6 -10 -6 -22v-76h-37v133zM1364 27q0 -14 8 -27q4 -12 25 -12q20 0 24 12q8 8 9 27q0 20 -9 28q-6 12 -24 13 q-18 0 -25 -13q-8 -12 -8 -28zM1425 696h125v49h-2q-4 -4 -4 -7t-2 -7q-4 -4 -4 -10q-2 -2 -6 -8q-8 -8 -14 -11q-4 -4 -17 -4h-28v86q0 10 6 15q4 4 14 4h8v4h-76v-4h7q18 0 18 -19v-65q0 -20 -18 -21h-7v-2zM1477 -295h34q0 -18 31 -18q10 0 17 2q4 8 4 10q0 8 -15 10 l-30 8q-6 2 -13.5 5.5t-11.5 7.5q-12 8 -12 24q0 12 6 23q4 8 18 16q8 6 29 6q12 0 21.5 -2t17.5 -6q12 -6 16 -16l4 -11v-10h-34q0 10 -7 15q-2 2 -16 2q-20 0 -20 -13q0 -6 12 -8l31 -8q12 -2 28 -12q10 -6 10 -25q0 -12 -6 -24q-8 -10 -20 -17q-8 -4 -31 -4h-12 q-8 0 -12 2q-12 4 -21 8q-12 8 -14 15q-4 12 -4 20zM1489 -39v133h33v-18q14 20 41 20q18 0 24 -4l17 -14q6 -12 6 -25v-92h-35v80q0 8 -4 20q-6 6 -21 7q-14 0 -20 -9q-4 -6 -4 -22v-76h-37zM1542 1090l2 4q0 2 2 4q4 8 8 12l9 12q2 4 4 7.5t4 7.5t10 12l21 29l30 36l8 11 l9 8l10 6q4 2 10 2q4 2 10 2l7 -4q0 -2 1 -3t1 -5t-2 -8q0 -4 -5 -9l-18 -24l-16 -27l-19 -18l-18 -21q-4 -2 -13 -10l-14 -12q-8 -4 -12 -8q-4 -2 -6 -4.5t-6 -2.5q-8 -4 -13 -2h-2q-2 2 -2 5zM1544 803h2q12 0 17 -2l6 -6t4 -7l35 -45v-24q0 -10 -4 -14q-4 -2 -8.5 -4.5 t-8.5 -2.5h-6v-2h78v2h-8q-8 0 -15 7q-6 2 -6 14v26l29 39l6 9q8 4 10 4q2 4 6 4q4 2 11 2v4h-56v-4h6q10 0 13 -2q4 -2 4 -8q0 -4 -6 -13l-23 -30l-28 36q-4 8 -5 9v2q0 4 2 4q0 2 7 2h10v4h-72v-4zM1624 -301h37v-37h-37v37zM1626 70v24h21v35h32v-35h23v-24h-23v-72 q0 -4 1 -6t1 -4q4 0 6.5 -1t6.5 -1l4 2h4v-27h-23q-16 0 -20 4q-10 0 -12 8v97h-21zM1686 -274q0 29 12 51q16 23 47 22q18 0 31 -6q14 -4 20 -18q10 -10 10 -27h-37q0 6 -4 14q-4 7 -16 7q-16 0 -20 -11q-8 -8 -9 -26q0 -18 2 -25q2 -10 9 -14q4 -4 16 -4q10 0 16 4 q6 6 6 18h37q0 -10 -8 -26q-6 -10 -20 -19q-12 -6 -33 -6q-27 0 -43 14q-8 8 -14 21q-2 8 -2 31zM1784 -2q0 20 10 29q12 8 29 12l30 4q12 2 13 10q0 16 -21 17q-8 0 -16 -4q-6 -2 -8 -17h-33q2 18 8 29q4 8 19 14q8 4 14 4h16q27 0 37 -4l8 -8t6 -8q4 -12 5 -17v-86 q0 -6 8 -6v-6h-39q-2 0 -2 2v2v2q0 4 -1 6t-1 4q-4 -6 -11 -10q-4 -2 -7 -4t-5 -2l-9 -3t-9 -1t-19 4q-4 4 -8 6t-8 6q-6 8 -6 25zM1819 -2q0 -10 4 -10q4 -4 12 -4h8h2l4 2q8 4 13 8q4 8 4 16v17q-6 -6 -15 -7l-16 -4q-6 0 -12 -6q-4 -2 -4 -12zM1823 -272q0 18 4 26 q2 8 5 13.5t7 11.5q12 12 23 14q8 6 28 6q16 0 29 -6q9 -2 23 -12q4 -4 6 -10.5t6 -12.5q4 -8 4 -30q0 -20 -8 -35q-6 -14 -23 -25q-14 -8 -37 -8q-27 0 -39 10q-14 10 -22 25q-6 14 -6 33zM1860 -272q0 -14 6 -27q6 -12 24 -12q19 0 25 12q4 6 5 13t1 14q0 23 -6 30 q-6 10 -25 11q-18 0 -24 -11q-6 -12 -6 -30zM1894 1329l33 45l17 27l30 41l2 2q0 4 4 4q0 2 2 2q2 2 3 0q0 -4 -5 -12l-8 -13l-8 -10q-4 -8 -8 -10l-19 -25l-20 -24l-12 -15q-2 -4 -11 -12zM1917 70v24h16v35h37v-35h23v-24h-23v-72q0 -4 1 -6t1 -4q2 0 4 -1t6 -1l7 2h4v-27 h-23q-16 0 -22 4q-8 0 -11 8q0 4 -2 7.5t-2 7.5v82h-16zM1982 -205h33v-20q14 25 39 24q16 0 23 -6q8 -4 14 -16q4 8 16 16q6 6 21 6q16 0 24 -8q13 -6 15 -16q6 -6 6 -21v-92h-35v80q0 27 -20 27q-23 0 -23 -27v-80h-35v80q0 10 -2 12q0 6 -6 13q-4 2 -12 2q-23 0 -23 -25 v-82h-35v133z" />
<glyph unicode="$" horiz-adv-x="2312" d="M135 -205h37l21 -96l18 96h37l18 -96l23 96h35l-37 -127v-6h-37l-21 96l-20 -96h-37l-37 129v4zM205 625v579l315 68l-12 43l47 14l-10 47l49 10l-6 52l47 4v47h43l4 43l47 -6l8 47l51 -8l13 47l45 -13l18 43l47 -18l25 45l43 -22l25 41l43 -29l30 39l39 -31l33 33 l31 -29l30 27l31 -35l41 27l27 -43l45 24l22 -41l43 19l21 -47l49 14l14 -45l45 10l11 -49l51 4l2 -31l473 103v-580l-217 -47l4 -4l-27 -31l27 -33l-37 -30l27 -41l-43 -27l26 -43l-43 -24l19 -43l-47 -21l16 -49l-45 -14l8 -46l-49 -10l4 -51l-47 -4v-47h-41l-6 -43l-45 4 l-10 -45l-50 8l-14 -47l-45 14l-16 -47l-50 21l-22 -45l-43 22l-27 -41l-43 27l-28 -37l-37 31l-35 -33l-31 29l-33 -29l-28 37l-41 -27l-29 43l-43 -24l-22 41l-45 -19l-21 47l-47 -14l-14 45l-47 -10l-11 49l-49 -4l-6 47h-47v43l-41 4l4 47l-47 8l10 49l-49 15l14 45 l-32 12zM330 -205h35l22 -96l19 96h34l21 -96l20 96h37l-37 -127l-2 -6h-35l-22 96l-21 -96h-36l-35 129v4zM334 51q0 12 2 19q0 4 2 9t2 9q2 14 16 29q4 6 11.5 11t15.5 9q10 4 19.5 6t19.5 2h6q6 0 18 -4q6 0 10.5 -2t8.5 -4q14 -8 24 -22q4 -6 9 -15q2 -4 2 -12h-39 q0 6 -4 10q-2 6 -13 13q-10 6 -20 6q-6 0 -10 -2h-8l-17 -13q-4 -4 -7 -8t-5 -10q-4 -10 -4 -33q0 -18 6 -33q2 -14 14 -18q6 -4 11.5 -6t11.5 -4h6q14 0 20 6q8 0 15 10q4 6 7 11t3 12h-43v32h76v-98h-25l-4 23q-6 -10 -16 -17q-6 -4 -11.5 -5t-9.5 -5q-6 0 -11 -1t-11 -1 q-18 0 -29 8q-17 7 -25 19q-12 12 -18 30t-6 39zM334 788q0 -2 2 -4h10l10 7l13 12l8 12l12 12q2 4 10 13l74 102q6 10 12.5 17.5t10.5 17.5l24 37q6 10 12.5 18t10.5 19q6 10 11 18t9 18q2 6 0 9q-2 2 -6 2q-8 0 -10 -2l-10 -6l-21 -23l-18 -25q-10 -10 -17 -22l-18 -23 l-66 -94l-30 -49q-8 -12 -14.5 -24.5t-12.5 -24.5l-4 -6q0 -2 -1 -3t-1 -3v-5zM383 1004q2 -8 12 -15l21 -6q16 0 26 2q4 0 7 2q2 2 2 4t-2 2h-7q-4 0 -4 -2q-20 -2 -35 4q-8 4 -10 9q-4 8 -4 12q0 8 2 14l8 17l21 22q4 4 11 9t13 9q8 4 14.5 8.5t14.5 8.5t15.5 7t15.5 7 q8 2 15 4t18 6l32 7q20 4 31 4q10 0 27 -4q4 -2 9 -3.5t9 -5.5l10 -14q2 -6 2 -20q0 -6 -4 -23l-12 -22q-4 -8 -16 -25q-4 -6 -10.5 -11t-12.5 -12q-4 -6 -11 -11t-13 -11l-27 -16l-29 -13l-16 -6q-6 0 -14 -4h-7q-4 0 -6 -2q-4 0 -4 -2q-4 0 -4 -4q0 -2 2 -2h6q4 0 6 2h7 l30 10l31 12l31 15l30 18l27 19l25 22l20 23q4 6 7 12t5 12q6 12 7 23q2 12 0 20q-4 12 -9 19q-8 6 -16 10q-12 6 -23 6q-10 2 -28 2q-8 0 -29 -4q-16 -2 -32.5 -6t-32.5 -8t-32 -11.5t-32 -15.5q-8 -4 -15 -8t-16 -10q-16 -10 -26 -21q-8 -6 -21 -22l-10 -23q-2 -12 0 -20z M522 31q0 10 1 17t5 15q6 16 21 25q8 6 17 7t20 1q27 0 35 -8q12 -8 20 -27q4 -10 5 -18t1 -18v-9h-92q0 -12 10 -22q6 -8 23 -8q6 0 14 4q8 8 8 10h37q-4 -10 -12 -23q-6 -4 -11.5 -8t-9.5 -6q-8 -2 -13 -4t-13 -2q-66 0 -66 74zM522 -205h37l21 -96l18 96h37l18 -96l21 96 h37l-37 -127l-2 -6h-35l-21 96l-22 -96h-35l-37 129v4zM559 41h53q-4 12 -8 20q-4 4 -8 6.5t-10 2.5q-23 0 -27 -29zM641 803h2q23 0 23 -19v-55q0 -14 12 -27l18 -6q6 -2 23 -2q16 0 29 4q8 4 12 9q10 8 10 26v58l10 10h2l2 2h9v4h-56v-4h13q2 0 3 -1t3 -1q12 -6 12 -27 v-39q0 -16 -10 -26l-15 -11h-18q-14 0 -20 4q-4 0 -13 9q-4 4 -4 18v55q0 12 4 15q4 4 17 4h8v4h-76v-4zM657 70v24h19v35h35v-35h20v-24h-20v-72q0 -8 2 -10q2 0 5 -1t7 -1l4 2h2v-27h-20q-16 0 -23 4q-8 0 -10 8q-2 4 -2 15v82h-19zM657 924q2 -6 11 -15q12 -8 26 -6 q16 0 33 6q18 6 37 19q18 8 37 24l28 25l17 18q0 2 4 6q0 4 4 5l4 8l19 18l18 25q6 6 11 12t9 12l9 -4l4 -6q2 -4 2 -8q0 -2 -8 -10l-19 -21l-16 -22l-15 -23l-6 -20q-2 -4 -2 -11v-8q4 -6 6 -8t9 -2q4 0 20 4l19 12q16 12 24 21q6 4 11 10t10 10q8 8 10 13l10 12l4 6l6 6 q4 4 4 6l15 19l24 35q0 -4 1 -8.5t1 -8.5q4 -12 4 -16l5 -8q-20 -8 -29 -15l-23 -18q-12 -12 -14 -21q-4 -8 -4 -20q2 -6 12 -10q7 -2 23 -2q14 2 28 10q14 6 27 18q10 6 18 21l11 20q6 12 6 23v18q0 6 -4 19l-8 18l-7 8q0 4 -4 8q0 2 -4 7v6q2 2 2 4h-10l-4 -4 q-6 -2 -14 -11l-7 -14l-2 -2l-6 -8l-37 -51l-6 -8l-6 -11l-2 -2v-2q-2 0 -4 -2l-6 -10l-6 -8l-19 -23l-24 -22q-6 -6 -15 -9q-8 -4 -14 -4h-2l2 2l8 13l8 10l9 12q4 2 8 10l10 17l10 18l6 17q2 6 2 16q-2 2 -2 8l-4 6q0 4 -2 7v26l8 12q4 10 -4 15q-6 6 -20 0q-14 -4 -19 -8 q-8 -6 -12 -15q-4 -8 -4 -14q0 -8 2 -12l4 -4l4 -5l-6 -8l-6 -6l-29 -37l-22 -26q-2 0 -6 -4v-3l-2 -2q0 -2 -2 -2l-13 -16q-8 -8 -15 -15.5t-18 -13.5q-20 -16 -38 -24q-4 -4 -10.5 -5t-12.5 -5q-16 -4 -22 -3q-8 0 -9 5q-2 2 -2 8q0 2 4 10l4 10l13 21q8 -4 14 -4 q12 0 21 2q14 2 30 12q10 4 29 18l18 19q4 4 7.5 9t5.5 9l8 17q0 12 -4 16q-4 6 -10 10q-6 2 -21 2q-4 -2 -10 -2t-12 -4q-8 -2 -25 -10q-27 -12 -51 -33q-23 -18 -35 -41q-6 -6 -14 -22q-6 -10 -9 -23v-20zM711 -301h37v-37h-37v37zM723 983l18 25l21 24l8 10q4 4 6 5.5 t4 5.5l13 10l14 6q10 2 16 0q2 -4 0 -12l-6 -10q-4 -4 -8 -13q-4 -4 -5 -6t-5 -4q-2 -4 -11 -12q-4 -6 -10 -11q-8 -8 -12 -10l-14 -8q-12 -4 -15 -4q-6 0 -14 4zM780 -205h33v-20q12 25 39 24q14 0 20 -6q10 -4 17 -16q4 10 14 16q8 6 21 6q16 0 26 -8q8 -6 15 -16 q4 -4 4 -21v-92h-33v80q0 27 -21 27q-23 0 -22 -27v-80h-37v92q0 6 -6 13q-4 2 -14 2q-23 0 -23 -25v-82h-33v133zM807 776q0 -6 6 -12q0 -2 6 -8l15 -6q2 -2 8 -3.5t16 -5.5l8 -2q12 -4 17 -4q4 0 8 -4q2 0 4 -2q6 -6 6 -12q0 -2 -4 -10q-2 -2 -10 -9h-13q-12 0 -18 2 l-20 9l-13 12q-10 14 -10 24h-4v-51h4q0 8 4 8q4 4 10 5q2 0 2 -1t5 -1q2 0 3 -1.5t5 -1.5l16 -6q4 -2 16 -2q6 0 19 4q4 0 7 2t7 7q4 2 4 4t4 6v22l-6 9q-6 4 -14 8l-21 8h-12l-2 2l-16 4q-4 2 -6 2t-4 2q-2 0 -7 4q-4 4 -4 8q0 6 2 9q0 -2 4 6l9 4q4 0 6 1t6 1q8 0 16 -4 q10 0 17 -6q8 -4 12 -9q4 -4 5 -9t5 -11h4v37h-4q-2 -8 -8 -8t-10 2q-20 10 -37 10q-10 0 -23 -4l-14 -10q-6 -10 -6 -19zM809 70v24h18v10q0 37 39 37h19v-26h-11q-6 0 -8 -2q-4 0 -4 -4v-15h23v-24h-23v-109h-35v109h-18zM905 6v88h35v-82q0 -25 23 -24q8 0 12 2t12 10 q0 4 2 8t2 8v78h33v-133h-33v19q-6 -10 -16 -15q-16 -8 -25 -8q-20 0 -32 14q-12 12 -13 35zM928 696h119v45q-4 -4 -4.5 -7t-2.5 -7l-12 -16q-6 -6 -10 -6l-10 -5q-6 -2 -15 -2h-18v50h2q14 0 22 -9l5 -6q0 -2 1 -3t1 -5q2 -4 2 -10h2v71h-2v-10l-7 -12q-10 -12 -20 -12h-6 v51h20q18 0 25 -2l10 -8l6 -13l6 -16h5v43h-119v-4h4q10 0 12 -4q6 -4 6 -15v-65q0 -20 -18 -21h-4v-2zM987 979v10l4 12l8 11q10 12 23 20l27 12q0 -4 1 -6t1 -6q-2 -4 -2 -10q0 -4 -1 -6t-1 -6l-5 -11q-2 -4 -10 -12l-8 -6q-4 -4 -10 -4q-2 -2 -10 -2q-4 -4 -9 0 q-4 0 -8 4zM991 -303q0 20 13 31q8 8 26 12l33 4q10 4 10 10q0 16 -20 17q-4 0 -8.5 -1t-8.5 -1q-2 -4 -4 -8.5t-2 -8.5h-33q0 14 7 27q12 12 20 14l12 4q4 0 8.5 1t8.5 1q27 0 37 -8q10 -6 16 -14q2 -6 2 -17v-71q0 -11 2 -15q0 -6 6 -6v-6h-37q0 2 -2 4v2q-2 4 -2 10 q-8 -8 -12 -10l-12 -6q-4 -2 -17 -2q-14 0 -18 2q-10 2 -17 14q-8 6 -8 21zM1026 -301q0 -8 6 -10q4 -4 12 -4h7q2 0 3 1t3 1l12 8q4 4 4 14v19q-6 -6 -12 -7l-17 -2l-12 -6q-6 -6 -6 -14zM1057 -39v180h35v-180h-35zM1118 -39v180h33v-180h-33zM1120 752q0 -16 4 -23 q8 -12 15 -18q4 -4 10 -6.5t12 -6.5q16 -4 25 -4q23 0 33 8q12 7 24 21q8 10 8 29q0 12 -4 20t-12 19q-10 10 -23 12q-12 6 -26 6q-23 0 -33 -8q-10 -4 -15 -9.5t-10 -11.5q-8 -14 -8 -28zM1126 -205h37l21 -96l18 96h35l20 -96l23 96h35l-37 -127v-6h-37l-20 96l-21 -96 h-37l-37 129v4zM1133 1018q0 -6 4 -10t12 -9q4 0 6 -1t6 1h15q10 2 30 11l31 16l27 23l22 20l17 23l12 20l6 21q2 12 0 18q0 6 -6 12q-2 4 -12 8q-4 0 -8.5 1.5t-8.5 1.5q-6 0 -22 -5q-2 0 -15 -4l-14 -6l-29 -18q-8 -4 -14 -10.5t-12 -10.5l-21 -22l-14 -23 q-10 -17 -12 -31q-4 -14 0 -26zM1147 752q0 4 1 9t1 9l6 14q6 10 8 13q0 2 11 6q8 4 14 4q2 0 3 -1t5 -1l8 -4l10 -10q2 -4 4.5 -8.5t4.5 -10.5q0 -4 1 -9t1 -11q0 -12 -4 -29q-6 -12 -15 -21q-6 -4 -20 -4q-12 0 -15 4q-8 0 -14 11l-6 16q-4 12 -4 23zM1159 1020q0 4 2 6 q4 16 10 25q12 16 17 24l12 15l10 12l19 24q6 6 11 12.5t11 10.5l11 8l12 6q4 2 10 2q4 0 6 -4q2 -2 2 -8q0 -4 -4 -12l-6 -11l-6 -12q-4 -8 -8 -12l-8 -12q-4 -6 -8.5 -12.5t-8.5 -10.5l-18 -22l-23 -23q-6 -6 -12 -8q-6 -6 -14 -8q-5 -2 -11 -2l-4 4q-2 2 -2 8zM1241 70 v24h19v10q0 37 38 37h17v-26h-8q-8 0 -9 -2q-2 0 -4 -4v-15h25v-24h-25v-109h-34v109h-19zM1268 696h57v2q-6 0 -10 2q-4 0 -5 1t-5 1l-7 11q-2 2 -2 14v66l95 -97h4v78q0 12 6 23q2 6 18 6v4h-55v-4h10q0 -2 4 -2q8 -8 8 -10q4 -4 5 -17v-47l-78 80h-43v-4h2q8 0 10 -2 q4 0 5 -2t3 -2q2 -4 2 -11v-63q0 -8 -2 -12q-2 -6 -8 -9q-8 -4 -14 -4v-2zM1290 1022q2 0 3 -1t3 -1q6 0 11 2l10 6q0 2 4 6l4 4l6 6q0 2 4 7l21 24l22 25l21 24l24 25l25 22l10 11q4 2 12 10l13 8l14 6q2 0 2 -2h-2l-6 -6q-2 -6 -8 -8l-6 -8l-15 -17q-6 -6 -14 -18 q-12 -16 -16 -25l-17 -24q-4 -6 -8 -23q-4 -10 0 -18t10 -8q12 0 21 2q6 2 12 6t14 8q12 6 23 16l24 23l2 2q-2 -2 -2 -6q0 -8 5 -17q4 -8 12 -10q6 -2 22 2q20 8 29 15l25 18l8 8l8 8l16 15q-2 -2 -2 -6q0 -2 -1 -3.5t-1 -3.5v-8q-4 -6 0 -10q0 -4 1 -5t1 -3q2 -6 8 -6 q2 -2 9 -2q6 0 10 2l8 4l10 6l15 8l37 31l20 20l-6 -14q-4 -8 -4 -23v-6q4 -4 6 -4q0 -2 6 -2q2 0 10 4q4 2 7.5 3t7.5 5l12 9l12 12q4 2 13 10q6 4 11 10.5t11 12.5l21 24q2 2 2 4q-2 2 -5 2q-4 0 -8 -4l-4 -6l-14 -16l-12 -15q-4 -4 -7.5 -7t-7.5 -7l-16 -14l-8 -6l-11 -5 l-2 -2q-2 0 -4 2h2l9 17l4 8t6 8l8 13q4 4 8 12l74 108q12 12 16 21l19 18l43 49q10 12 19 24.5t20 25.5l12 20v10q-2 2 -10 2q-4 0 -13 -4q-4 0 -7 -2t-7 -4q-8 -4 -12 -8l-10 -8q-6 -4 -12.5 -9.5t-12.5 -11.5l-21 -22q-8 -8 -20 -25q-4 -8 -16 -24q-10 -12 -17.5 -24.5 t-15.5 -25.5l-31 -51l-22 -39l-9 -18q-2 0 -2 -2l-16 -17q-4 -6 -10 -11t-13 -11l-22 -21l-10 -8l-9 -6l-4 -2l-6 -4h-6h-4l6 12l6 10q0 2 1 2.5t1 2.5l2 2q4 8 9.5 15t11.5 15q4 8 9 16.5t11 16.5l17 25l8 14q4 4 8 12l2 2l2 2q0 2 1 2t1 3l2 2q6 4 4 8q0 2 -8 2l-12 -4 l-12 -6l-21 -15l-8 -8l-8 -8q0 8 -2 12q0 4 -8 8q-12 2 -25 0q-12 -4 -27 -10q-16 -6 -26 -14q-8 -4 -13.5 -9.5l-9.5 -9.5q-29 -23 -43 -45q-18 -23 -24 -43q-2 0 -2 -1t-3 -1q-4 -4 -9 -10t-11 -10q-8 -8 -25 -21q-6 -6 -14 -8q-8 -4 -12 -4h-4q-2 2 0 4l8 10l6 11l14 16 l25 33q6 8 12 15t10 17l11 21q4 12 2 18q0 6 -2 9q-4 4 -8 4q-6 0 -11 -2l-14 -7l-14 -8q-8 -8 -13 -10q-8 -8 -12 -10q-8 -8 -12 -10l-25 -25q-6 -6 -12 -11t-10 -12l-13 -14l-12 -12l4 6l29 41l31 43q0 2 1 2t1 2q2 2 2 4q2 4 2 8l-6 6q-2 0 -3.5 1.5t-5.5 1.5 q-2 0 -4 -1.5t-6 -1.5l-12 -6l-6 -6q-4 -2 -4 -4t-2 -4l-7 -8l-90 -156q-2 -2 -2 -8zM1329 27q0 10 4 26q2 12 13 23q12 12 22 16q8 4 29 4q20 0 30 -4q4 -4 9.5 -6t9.5 -6q10 -12 14 -25q4 -12 4 -28q0 -20 -8 -35q-6 -14 -22 -25q-16 -10 -37 -10q-23 0 -39 10 q-12 10 -23 27q-6 14 -6 33zM1331 -205h35v-20q14 25 41 24q13 0 25 -6q10 -4 14 -14q6 -12 6 -25v-92h-35v80q0 16 -4 20q-2 6 -18 7q-14 0 -21 -9q-6 -10 -6 -22v-76h-37v133zM1364 27q0 -14 8 -27q4 -12 25 -12q20 0 24 12q8 8 9 27q0 20 -9 28q-6 12 -24 13 q-18 0 -25 -13q-8 -12 -8 -28zM1425 696h125v49h-2q-4 -4 -4 -7t-2 -7q-4 -4 -4 -10q-2 -2 -6 -8q-8 -8 -14 -11q-4 -4 -17 -4h-28v86q0 10 6 15q4 4 14 4h8v4h-76v-4h7q18 0 18 -19v-65q0 -20 -18 -21h-7v-2zM1477 -295h34q0 -18 31 -18q10 0 17 2q4 8 4 10q0 8 -15 10 l-30 8q-6 2 -13.5 5.5t-11.5 7.5q-12 8 -12 24q0 12 6 23q4 8 18 16q8 6 29 6q12 0 21.5 -2t17.5 -6q12 -6 16 -16l4 -11v-10h-34q0 10 -7 15q-2 2 -16 2q-20 0 -20 -13q0 -6 12 -8l31 -8q12 -2 28 -12q10 -6 10 -25q0 -12 -6 -24q-8 -10 -20 -17q-8 -4 -31 -4h-12 q-8 0 -12 2q-12 4 -21 8q-12 8 -14 15q-4 12 -4 20zM1489 -39v133h33v-18q14 20 41 20q18 0 24 -4l17 -14q6 -12 6 -25v-92h-35v80q0 8 -4 20q-6 6 -21 7q-14 0 -20 -9q-4 -6 -4 -22v-76h-37zM1542 1090l2 4q0 2 2 4q4 8 8 12l9 12q2 4 4 7.5t4 7.5t10 12l21 29l30 36l8 11 l9 8l10 6q4 2 10 2q4 2 10 2l7 -4q0 -2 1 -3t1 -5t-2 -8q0 -4 -5 -9l-18 -24l-16 -27l-19 -18l-18 -21q-4 -2 -13 -10l-14 -12q-8 -4 -12 -8q-4 -2 -6 -4.5t-6 -2.5q-8 -4 -13 -2h-2q-2 2 -2 5zM1544 803h2q12 0 17 -2l6 -6t4 -7l35 -45v-24q0 -10 -4 -14q-4 -2 -8.5 -4.5 t-8.5 -2.5h-6v-2h78v2h-8q-8 0 -15 7q-6 2 -6 14v26l29 39l6 9q8 4 10 4q2 4 6 4q4 2 11 2v4h-56v-4h6q10 0 13 -2q4 -2 4 -8q0 -4 -6 -13l-23 -30l-28 36q-4 8 -5 9v2q0 4 2 4q0 2 7 2h10v4h-72v-4zM1624 -301h37v-37h-37v37zM1626 70v24h21v35h32v-35h23v-24h-23v-72 q0 -4 1 -6t1 -4q4 0 6.5 -1t6.5 -1l4 2h4v-27h-23q-16 0 -20 4q-10 0 -12 8v97h-21zM1686 -274q0 29 12 51q16 23 47 22q18 0 31 -6q14 -4 20 -18q10 -10 10 -27h-37q0 6 -4 14q-4 7 -16 7q-16 0 -20 -11q-8 -8 -9 -26q0 -18 2 -25q2 -10 9 -14q4 -4 16 -4q10 0 16 4 q6 6 6 18h37q0 -10 -8 -26q-6 -10 -20 -19q-12 -6 -33 -6q-27 0 -43 14q-8 8 -14 21q-2 8 -2 31zM1784 -2q0 20 10 29q12 8 29 12l30 4q12 2 13 10q0 16 -21 17q-8 0 -16 -4q-6 -2 -8 -17h-33q2 18 8 29q4 8 19 14q8 4 14 4h16q27 0 37 -4l8 -8t6 -8q4 -12 5 -17v-86 q0 -6 8 -6v-6h-39q-2 0 -2 2v2v2q0 4 -1 6t-1 4q-4 -6 -11 -10q-4 -2 -7 -4t-5 -2l-9 -3t-9 -1t-19 4q-4 4 -8 6t-8 6q-6 8 -6 25zM1819 -2q0 -10 4 -10q4 -4 12 -4h8h2l4 2q8 4 13 8q4 8 4 16v17q-6 -6 -15 -7l-16 -4q-6 0 -12 -6q-4 -2 -4 -12zM1823 -272q0 18 4 26 q2 8 5 13.5t7 11.5q12 12 23 14q8 6 28 6q16 0 29 -6q9 -2 23 -12q4 -4 6 -10.5t6 -12.5q4 -8 4 -30q0 -20 -8 -35q-6 -14 -23 -25q-14 -8 -37 -8q-27 0 -39 10q-14 10 -22 25q-6 14 -6 33zM1860 -272q0 -14 6 -27q6 -12 24 -12q19 0 25 12q4 6 5 13t1 14q0 23 -6 30 q-6 10 -25 11q-18 0 -24 -11q-6 -12 -6 -30zM1894 1329l33 45l17 27l30 41l2 2q0 4 4 4q0 2 2 2q2 2 3 0q0 -4 -5 -12l-8 -13l-8 -10q-4 -8 -8 -10l-19 -25l-20 -24l-12 -15q-2 -4 -11 -12zM1917 70v24h16v35h37v-35h23v-24h-23v-72q0 -4 1 -6t1 -4q2 0 4 -1t6 -1l7 2h4v-27 h-23q-16 0 -22 4q-8 0 -11 8q0 4 -2 7.5t-2 7.5v82h-16zM1982 -205h33v-20q14 25 39 24q16 0 23 -6q8 -4 14 -16q4 8 16 16q6 6 21 6q16 0 24 -8q13 -6 15 -16q6 -6 6 -21v-92h-35v80q0 27 -20 27q-23 0 -23 -27v-80h-35v80q0 10 -2 12q0 6 -6 13q-4 2 -12 2q-23 0 -23 -25 v-82h-35v133z" />
<glyph unicode="%" horiz-adv-x="2312" d="M135 -205h37l21 -96l18 96h37l18 -96l23 96h35l-37 -127v-6h-37l-21 96l-20 -96h-37l-37 129v4zM205 625v579l315 68l-12 43l47 14l-10 47l49 10l-6 52l47 4v47h43l4 43l47 -6l8 47l51 -8l13 47l45 -13l18 43l47 -18l25 45l43 -22l25 41l43 -29l30 39l39 -31l33 33 l31 -29l30 27l31 -35l41 27l27 -43l45 24l22 -41l43 19l21 -47l49 14l14 -45l45 10l11 -49l51 4l2 -31l473 103v-580l-217 -47l4 -4l-27 -31l27 -33l-37 -30l27 -41l-43 -27l26 -43l-43 -24l19 -43l-47 -21l16 -49l-45 -14l8 -46l-49 -10l4 -51l-47 -4v-47h-41l-6 -43l-45 4 l-10 -45l-50 8l-14 -47l-45 14l-16 -47l-50 21l-22 -45l-43 22l-27 -41l-43 27l-28 -37l-37 31l-35 -33l-31 29l-33 -29l-28 37l-41 -27l-29 43l-43 -24l-22 41l-45 -19l-21 47l-47 -14l-14 45l-47 -10l-11 49l-49 -4l-6 47h-47v43l-41 4l4 47l-47 8l10 49l-49 15l14 45 l-32 12zM330 -205h35l22 -96l19 96h34l21 -96l20 96h37l-37 -127l-2 -6h-35l-22 96l-21 -96h-36l-35 129v4zM334 51q0 12 2 19q0 4 2 9t2 9q2 14 16 29q4 6 11.5 11t15.5 9q10 4 19.5 6t19.5 2h6q6 0 18 -4q6 0 10.5 -2t8.5 -4q14 -8 24 -22q4 -6 9 -15q2 -4 2 -12h-39 q0 6 -4 10q-2 6 -13 13q-10 6 -20 6q-6 0 -10 -2h-8l-17 -13q-4 -4 -7 -8t-5 -10q-4 -10 -4 -33q0 -18 6 -33q2 -14 14 -18q6 -4 11.5 -6t11.5 -4h6q14 0 20 6q8 0 15 10q4 6 7 11t3 12h-43v32h76v-98h-25l-4 23q-6 -10 -16 -17q-6 -4 -11.5 -5t-9.5 -5q-6 0 -11 -1t-11 -1 q-18 0 -29 8q-17 7 -25 19q-12 12 -18 30t-6 39zM334 788q0 -2 2 -4h10l10 7l13 12l8 12l12 12q2 4 10 13l74 102q6 10 12.5 17.5t10.5 17.5l24 37q6 10 12.5 18t10.5 19q6 10 11 18t9 18q2 6 0 9q-2 2 -6 2q-8 0 -10 -2l-10 -6l-21 -23l-18 -25q-10 -10 -17 -22l-18 -23 l-66 -94l-30 -49q-8 -12 -14.5 -24.5t-12.5 -24.5l-4 -6q0 -2 -1 -3t-1 -3v-5zM383 1004q2 -8 12 -15l21 -6q16 0 26 2q4 0 7 2q2 2 2 4t-2 2h-7q-4 0 -4 -2q-20 -2 -35 4q-8 4 -10 9q-4 8 -4 12q0 8 2 14l8 17l21 22q4 4 11 9t13 9q8 4 14.5 8.5t14.5 8.5t15.5 7t15.5 7 q8 2 15 4t18 6l32 7q20 4 31 4q10 0 27 -4q4 -2 9 -3.5t9 -5.5l10 -14q2 -6 2 -20q0 -6 -4 -23l-12 -22q-4 -8 -16 -25q-4 -6 -10.5 -11t-12.5 -12q-4 -6 -11 -11t-13 -11l-27 -16l-29 -13l-16 -6q-6 0 -14 -4h-7q-4 0 -6 -2q-4 0 -4 -2q-4 0 -4 -4q0 -2 2 -2h6q4 0 6 2h7 l30 10l31 12l31 15l30 18l27 19l25 22l20 23q4 6 7 12t5 12q6 12 7 23q2 12 0 20q-4 12 -9 19q-8 6 -16 10q-12 6 -23 6q-10 2 -28 2q-8 0 -29 -4q-16 -2 -32.5 -6t-32.5 -8t-32 -11.5t-32 -15.5q-8 -4 -15 -8t-16 -10q-16 -10 -26 -21q-8 -6 -21 -22l-10 -23q-2 -12 0 -20z M522 31q0 10 1 17t5 15q6 16 21 25q8 6 17 7t20 1q27 0 35 -8q12 -8 20 -27q4 -10 5 -18t1 -18v-9h-92q0 -12 10 -22q6 -8 23 -8q6 0 14 4q8 8 8 10h37q-4 -10 -12 -23q-6 -4 -11.5 -8t-9.5 -6q-8 -2 -13 -4t-13 -2q-66 0 -66 74zM522 -205h37l21 -96l18 96h37l18 -96l21 96 h37l-37 -127l-2 -6h-35l-21 96l-22 -96h-35l-37 129v4zM559 41h53q-4 12 -8 20q-4 4 -8 6.5t-10 2.5q-23 0 -27 -29zM641 803h2q23 0 23 -19v-55q0 -14 12 -27l18 -6q6 -2 23 -2q16 0 29 4q8 4 12 9q10 8 10 26v58l10 10h2l2 2h9v4h-56v-4h13q2 0 3 -1t3 -1q12 -6 12 -27 v-39q0 -16 -10 -26l-15 -11h-18q-14 0 -20 4q-4 0 -13 9q-4 4 -4 18v55q0 12 4 15q4 4 17 4h8v4h-76v-4zM657 70v24h19v35h35v-35h20v-24h-20v-72q0 -8 2 -10q2 0 5 -1t7 -1l4 2h2v-27h-20q-16 0 -23 4q-8 0 -10 8q-2 4 -2 15v82h-19zM657 924q2 -6 11 -15q12 -8 26 -6 q16 0 33 6q18 6 37 19q18 8 37 24l28 25l17 18q0 2 4 6q0 4 4 5l4 8l19 18l18 25q6 6 11 12t9 12l9 -4l4 -6q2 -4 2 -8q0 -2 -8 -10l-19 -21l-16 -22l-15 -23l-6 -20q-2 -4 -2 -11v-8q4 -6 6 -8t9 -2q4 0 20 4l19 12q16 12 24 21q6 4 11 10t10 10q8 8 10 13l10 12l4 6l6 6 q4 4 4 6l15 19l24 35q0 -4 1 -8.5t1 -8.5q4 -12 4 -16l5 -8q-20 -8 -29 -15l-23 -18q-12 -12 -14 -21q-4 -8 -4 -20q2 -6 12 -10q7 -2 23 -2q14 2 28 10q14 6 27 18q10 6 18 21l11 20q6 12 6 23v18q0 6 -4 19l-8 18l-7 8q0 4 -4 8q0 2 -4 7v6q2 2 2 4h-10l-4 -4 q-6 -2 -14 -11l-7 -14l-2 -2l-6 -8l-37 -51l-6 -8l-6 -11l-2 -2v-2q-2 0 -4 -2l-6 -10l-6 -8l-19 -23l-24 -22q-6 -6 -15 -9q-8 -4 -14 -4h-2l2 2l8 13l8 10l9 12q4 2 8 10l10 17l10 18l6 17q2 6 2 16q-2 2 -2 8l-4 6q0 4 -2 7v26l8 12q4 10 -4 15q-6 6 -20 0q-14 -4 -19 -8 q-8 -6 -12 -15q-4 -8 -4 -14q0 -8 2 -12l4 -4l4 -5l-6 -8l-6 -6l-29 -37l-22 -26q-2 0 -6 -4v-3l-2 -2q0 -2 -2 -2l-13 -16q-8 -8 -15 -15.5t-18 -13.5q-20 -16 -38 -24q-4 -4 -10.5 -5t-12.5 -5q-16 -4 -22 -3q-8 0 -9 5q-2 2 -2 8q0 2 4 10l4 10l13 21q8 -4 14 -4 q12 0 21 2q14 2 30 12q10 4 29 18l18 19q4 4 7.5 9t5.5 9l8 17q0 12 -4 16q-4 6 -10 10q-6 2 -21 2q-4 -2 -10 -2t-12 -4q-8 -2 -25 -10q-27 -12 -51 -33q-23 -18 -35 -41q-6 -6 -14 -22q-6 -10 -9 -23v-20zM711 -301h37v-37h-37v37zM723 983l18 25l21 24l8 10q4 4 6 5.5 t4 5.5l13 10l14 6q10 2 16 0q2 -4 0 -12l-6 -10q-4 -4 -8 -13q-4 -4 -5 -6t-5 -4q-2 -4 -11 -12q-4 -6 -10 -11q-8 -8 -12 -10l-14 -8q-12 -4 -15 -4q-6 0 -14 4zM780 -205h33v-20q12 25 39 24q14 0 20 -6q10 -4 17 -16q4 10 14 16q8 6 21 6q16 0 26 -8q8 -6 15 -16 q4 -4 4 -21v-92h-33v80q0 27 -21 27q-23 0 -22 -27v-80h-37v92q0 6 -6 13q-4 2 -14 2q-23 0 -23 -25v-82h-33v133zM807 776q0 -6 6 -12q0 -2 6 -8l15 -6q2 -2 8 -3.5t16 -5.5l8 -2q12 -4 17 -4q4 0 8 -4q2 0 4 -2q6 -6 6 -12q0 -2 -4 -10q-2 -2 -10 -9h-13q-12 0 -18 2 l-20 9l-13 12q-10 14 -10 24h-4v-51h4q0 8 4 8q4 4 10 5q2 0 2 -1t5 -1q2 0 3 -1.5t5 -1.5l16 -6q4 -2 16 -2q6 0 19 4q4 0 7 2t7 7q4 2 4 4t4 6v22l-6 9q-6 4 -14 8l-21 8h-12l-2 2l-16 4q-4 2 -6 2t-4 2q-2 0 -7 4q-4 4 -4 8q0 6 2 9q0 -2 4 6l9 4q4 0 6 1t6 1q8 0 16 -4 q10 0 17 -6q8 -4 12 -9q4 -4 5 -9t5 -11h4v37h-4q-2 -8 -8 -8t-10 2q-20 10 -37 10q-10 0 -23 -4l-14 -10q-6 -10 -6 -19zM809 70v24h18v10q0 37 39 37h19v-26h-11q-6 0 -8 -2q-4 0 -4 -4v-15h23v-24h-23v-109h-35v109h-18zM905 6v88h35v-82q0 -25 23 -24q8 0 12 2t12 10 q0 4 2 8t2 8v78h33v-133h-33v19q-6 -10 -16 -15q-16 -8 -25 -8q-20 0 -32 14q-12 12 -13 35zM928 696h119v45q-4 -4 -4.5 -7t-2.5 -7l-12 -16q-6 -6 -10 -6l-10 -5q-6 -2 -15 -2h-18v50h2q14 0 22 -9l5 -6q0 -2 1 -3t1 -5q2 -4 2 -10h2v71h-2v-10l-7 -12q-10 -12 -20 -12h-6 v51h20q18 0 25 -2l10 -8l6 -13l6 -16h5v43h-119v-4h4q10 0 12 -4q6 -4 6 -15v-65q0 -20 -18 -21h-4v-2zM987 979v10l4 12l8 11q10 12 23 20l27 12q0 -4 1 -6t1 -6q-2 -4 -2 -10q0 -4 -1 -6t-1 -6l-5 -11q-2 -4 -10 -12l-8 -6q-4 -4 -10 -4q-2 -2 -10 -2q-4 -4 -9 0 q-4 0 -8 4zM991 -303q0 20 13 31q8 8 26 12l33 4q10 4 10 10q0 16 -20 17q-4 0 -8.5 -1t-8.5 -1q-2 -4 -4 -8.5t-2 -8.5h-33q0 14 7 27q12 12 20 14l12 4q4 0 8.5 1t8.5 1q27 0 37 -8q10 -6 16 -14q2 -6 2 -17v-71q0 -11 2 -15q0 -6 6 -6v-6h-37q0 2 -2 4v2q-2 4 -2 10 q-8 -8 -12 -10l-12 -6q-4 -2 -17 -2q-14 0 -18 2q-10 2 -17 14q-8 6 -8 21zM1026 -301q0 -8 6 -10q4 -4 12 -4h7q2 0 3 1t3 1l12 8q4 4 4 14v19q-6 -6 -12 -7l-17 -2l-12 -6q-6 -6 -6 -14zM1057 -39v180h35v-180h-35zM1118 -39v180h33v-180h-33zM1120 752q0 -16 4 -23 q8 -12 15 -18q4 -4 10 -6.5t12 -6.5q16 -4 25 -4q23 0 33 8q12 7 24 21q8 10 8 29q0 12 -4 20t-12 19q-10 10 -23 12q-12 6 -26 6q-23 0 -33 -8q-10 -4 -15 -9.5t-10 -11.5q-8 -14 -8 -28zM1126 -205h37l21 -96l18 96h35l20 -96l23 96h35l-37 -127v-6h-37l-20 96l-21 -96 h-37l-37 129v4zM1133 1018q0 -6 4 -10t12 -9q4 0 6 -1t6 1h15q10 2 30 11l31 16l27 23l22 20l17 23l12 20l6 21q2 12 0 18q0 6 -6 12q-2 4 -12 8q-4 0 -8.5 1.5t-8.5 1.5q-6 0 -22 -5q-2 0 -15 -4l-14 -6l-29 -18q-8 -4 -14 -10.5t-12 -10.5l-21 -22l-14 -23 q-10 -17 -12 -31q-4 -14 0 -26zM1147 752q0 4 1 9t1 9l6 14q6 10 8 13q0 2 11 6q8 4 14 4q2 0 3 -1t5 -1l8 -4l10 -10q2 -4 4.5 -8.5t4.5 -10.5q0 -4 1 -9t1 -11q0 -12 -4 -29q-6 -12 -15 -21q-6 -4 -20 -4q-12 0 -15 4q-8 0 -14 11l-6 16q-4 12 -4 23zM1159 1020q0 4 2 6 q4 16 10 25q12 16 17 24l12 15l10 12l19 24q6 6 11 12.5t11 10.5l11 8l12 6q4 2 10 2q4 0 6 -4q2 -2 2 -8q0 -4 -4 -12l-6 -11l-6 -12q-4 -8 -8 -12l-8 -12q-4 -6 -8.5 -12.5t-8.5 -10.5l-18 -22l-23 -23q-6 -6 -12 -8q-6 -6 -14 -8q-5 -2 -11 -2l-4 4q-2 2 -2 8zM1241 70 v24h19v10q0 37 38 37h17v-26h-8q-8 0 -9 -2q-2 0 -4 -4v-15h25v-24h-25v-109h-34v109h-19zM1268 696h57v2q-6 0 -10 2q-4 0 -5 1t-5 1l-7 11q-2 2 -2 14v66l95 -97h4v78q0 12 6 23q2 6 18 6v4h-55v-4h10q0 -2 4 -2q8 -8 8 -10q4 -4 5 -17v-47l-78 80h-43v-4h2q8 0 10 -2 q4 0 5 -2t3 -2q2 -4 2 -11v-63q0 -8 -2 -12q-2 -6 -8 -9q-8 -4 -14 -4v-2zM1290 1022q2 0 3 -1t3 -1q6 0 11 2l10 6q0 2 4 6l4 4l6 6q0 2 4 7l21 24l22 25l21 24l24 25l25 22l10 11q4 2 12 10l13 8l14 6q2 0 2 -2h-2l-6 -6q-2 -6 -8 -8l-6 -8l-15 -17q-6 -6 -14 -18 q-12 -16 -16 -25l-17 -24q-4 -6 -8 -23q-4 -10 0 -18t10 -8q12 0 21 2q6 2 12 6t14 8q12 6 23 16l24 23l2 2q-2 -2 -2 -6q0 -8 5 -17q4 -8 12 -10q6 -2 22 2q20 8 29 15l25 18l8 8l8 8l16 15q-2 -2 -2 -6q0 -2 -1 -3.5t-1 -3.5v-8q-4 -6 0 -10q0 -4 1 -5t1 -3q2 -6 8 -6 q2 -2 9 -2q6 0 10 2l8 4l10 6l15 8l37 31l20 20l-6 -14q-4 -8 -4 -23v-6q4 -4 6 -4q0 -2 6 -2q2 0 10 4q4 2 7.5 3t7.5 5l12 9l12 12q4 2 13 10q6 4 11 10.5t11 12.5l21 24q2 2 2 4q-2 2 -5 2q-4 0 -8 -4l-4 -6l-14 -16l-12 -15q-4 -4 -7.5 -7t-7.5 -7l-16 -14l-8 -6l-11 -5 l-2 -2q-2 0 -4 2h2l9 17l4 8t6 8l8 13q4 4 8 12l74 108q12 12 16 21l19 18l43 49q10 12 19 24.5t20 25.5l12 20v10q-2 2 -10 2q-4 0 -13 -4q-4 0 -7 -2t-7 -4q-8 -4 -12 -8l-10 -8q-6 -4 -12.5 -9.5t-12.5 -11.5l-21 -22q-8 -8 -20 -25q-4 -8 -16 -24q-10 -12 -17.5 -24.5 t-15.5 -25.5l-31 -51l-22 -39l-9 -18q-2 0 -2 -2l-16 -17q-4 -6 -10 -11t-13 -11l-22 -21l-10 -8l-9 -6l-4 -2l-6 -4h-6h-4l6 12l6 10q0 2 1 2.5t1 2.5l2 2q4 8 9.5 15t11.5 15q4 8 9 16.5t11 16.5l17 25l8 14q4 4 8 12l2 2l2 2q0 2 1 2t1 3l2 2q6 4 4 8q0 2 -8 2l-12 -4 l-12 -6l-21 -15l-8 -8l-8 -8q0 8 -2 12q0 4 -8 8q-12 2 -25 0q-12 -4 -27 -10q-16 -6 -26 -14q-8 -4 -13.5 -9.5l-9.5 -9.5q-29 -23 -43 -45q-18 -23 -24 -43q-2 0 -2 -1t-3 -1q-4 -4 -9 -10t-11 -10q-8 -8 -25 -21q-6 -6 -14 -8q-8 -4 -12 -4h-4q-2 2 0 4l8 10l6 11l14 16 l25 33q6 8 12 15t10 17l11 21q4 12 2 18q0 6 -2 9q-4 4 -8 4q-6 0 -11 -2l-14 -7l-14 -8q-8 -8 -13 -10q-8 -8 -12 -10q-8 -8 -12 -10l-25 -25q-6 -6 -12 -11t-10 -12l-13 -14l-12 -12l4 6l29 41l31 43q0 2 1 2t1 2q2 2 2 4q2 4 2 8l-6 6q-2 0 -3.5 1.5t-5.5 1.5 q-2 0 -4 -1.5t-6 -1.5l-12 -6l-6 -6q-4 -2 -4 -4t-2 -4l-7 -8l-90 -156q-2 -2 -2 -8zM1329 27q0 10 4 26q2 12 13 23q12 12 22 16q8 4 29 4q20 0 30 -4q4 -4 9.5 -6t9.5 -6q10 -12 14 -25q4 -12 4 -28q0 -20 -8 -35q-6 -14 -22 -25q-16 -10 -37 -10q-23 0 -39 10 q-12 10 -23 27q-6 14 -6 33zM1331 -205h35v-20q14 25 41 24q13 0 25 -6q10 -4 14 -14q6 -12 6 -25v-92h-35v80q0 16 -4 20q-2 6 -18 7q-14 0 -21 -9q-6 -10 -6 -22v-76h-37v133zM1364 27q0 -14 8 -27q4 -12 25 -12q20 0 24 12q8 8 9 27q0 20 -9 28q-6 12 -24 13 q-18 0 -25 -13q-8 -12 -8 -28zM1425 696h125v49h-2q-4 -4 -4 -7t-2 -7q-4 -4 -4 -10q-2 -2 -6 -8q-8 -8 -14 -11q-4 -4 -17 -4h-28v86q0 10 6 15q4 4 14 4h8v4h-76v-4h7q18 0 18 -19v-65q0 -20 -18 -21h-7v-2zM1477 -295h34q0 -18 31 -18q10 0 17 2q4 8 4 10q0 8 -15 10 l-30 8q-6 2 -13.5 5.5t-11.5 7.5q-12 8 -12 24q0 12 6 23q4 8 18 16q8 6 29 6q12 0 21.5 -2t17.5 -6q12 -6 16 -16l4 -11v-10h-34q0 10 -7 15q-2 2 -16 2q-20 0 -20 -13q0 -6 12 -8l31 -8q12 -2 28 -12q10 -6 10 -25q0 -12 -6 -24q-8 -10 -20 -17q-8 -4 -31 -4h-12 q-8 0 -12 2q-12 4 -21 8q-12 8 -14 15q-4 12 -4 20zM1489 -39v133h33v-18q14 20 41 20q18 0 24 -4l17 -14q6 -12 6 -25v-92h-35v80q0 8 -4 20q-6 6 -21 7q-14 0 -20 -9q-4 -6 -4 -22v-76h-37zM1542 1090l2 4q0 2 2 4q4 8 8 12l9 12q2 4 4 7.5t4 7.5t10 12l21 29l30 36l8 11 l9 8l10 6q4 2 10 2q4 2 10 2l7 -4q0 -2 1 -3t1 -5t-2 -8q0 -4 -5 -9l-18 -24l-16 -27l-19 -18l-18 -21q-4 -2 -13 -10l-14 -12q-8 -4 -12 -8q-4 -2 -6 -4.5t-6 -2.5q-8 -4 -13 -2h-2q-2 2 -2 5zM1544 803h2q12 0 17 -2l6 -6t4 -7l35 -45v-24q0 -10 -4 -14q-4 -2 -8.5 -4.5 t-8.5 -2.5h-6v-2h78v2h-8q-8 0 -15 7q-6 2 -6 14v26l29 39l6 9q8 4 10 4q2 4 6 4q4 2 11 2v4h-56v-4h6q10 0 13 -2q4 -2 4 -8q0 -4 -6 -13l-23 -30l-28 36q-4 8 -5 9v2q0 4 2 4q0 2 7 2h10v4h-72v-4zM1624 -301h37v-37h-37v37zM1626 70v24h21v35h32v-35h23v-24h-23v-72 q0 -4 1 -6t1 -4q4 0 6.5 -1t6.5 -1l4 2h4v-27h-23q-16 0 -20 4q-10 0 -12 8v97h-21zM1686 -274q0 29 12 51q16 23 47 22q18 0 31 -6q14 -4 20 -18q10 -10 10 -27h-37q0 6 -4 14q-4 7 -16 7q-16 0 -20 -11q-8 -8 -9 -26q0 -18 2 -25q2 -10 9 -14q4 -4 16 -4q10 0 16 4 q6 6 6 18h37q0 -10 -8 -26q-6 -10 -20 -19q-12 -6 -33 -6q-27 0 -43 14q-8 8 -14 21q-2 8 -2 31zM1784 -2q0 20 10 29q12 8 29 12l30 4q12 2 13 10q0 16 -21 17q-8 0 -16 -4q-6 -2 -8 -17h-33q2 18 8 29q4 8 19 14q8 4 14 4h16q27 0 37 -4l8 -8t6 -8q4 -12 5 -17v-86 q0 -6 8 -6v-6h-39q-2 0 -2 2v2v2q0 4 -1 6t-1 4q-4 -6 -11 -10q-4 -2 -7 -4t-5 -2l-9 -3t-9 -1t-19 4q-4 4 -8 6t-8 6q-6 8 -6 25zM1819 -2q0 -10 4 -10q4 -4 12 -4h8h2l4 2q8 4 13 8q4 8 4 16v17q-6 -6 -15 -7l-16 -4q-6 0 -12 -6q-4 -2 -4 -12zM1823 -272q0 18 4 26 q2 8 5 13.5t7 11.5q12 12 23 14q8 6 28 6q16 0 29 -6q9 -2 23 -12q4 -4 6 -10.5t6 -12.5q4 -8 4 -30q0 -20 -8 -35q-6 -14 -23 -25q-14 -8 -37 -8q-27 0 -39 10q-14 10 -22 25q-6 14 -6 33zM1860 -272q0 -14 6 -27q6 -12 24 -12q19 0 25 12q4 6 5 13t1 14q0 23 -6 30 q-6 10 -25 11q-18 0 -24 -11q-6 -12 -6 -30zM1894 1329l33 45l17 27l30 41l2 2q0 4 4 4q0 2 2 2q2 2 3 0q0 -4 -5 -12l-8 -13l-8 -10q-4 -8 -8 -10l-19 -25l-20 -24l-12 -15q-2 -4 -11 -12zM1917 70v24h16v35h37v-35h23v-24h-23v-72q0 -4 1 -6t1 -4q2 0 4 -1t6 -1l7 2h4v-27 h-23q-16 0 -22 4q-8 0 -11 8q0 4 -2 7.5t-2 7.5v82h-16zM1982 -205h33v-20q14 25 39 24q16 0 23 -6q8 -4 14 -16q4 8 16 16q6 6 21 6q16 0 24 -8q13 -6 15 -16q6 -6 6 -21v-92h-35v80q0 27 -20 27q-23 0 -23 -27v-80h-35v80q0 10 -2 12q0 6 -6 13q-4 2 -12 2q-23 0 -23 -25 v-82h-35v133z" />
<glyph unicode="&#x26;" horiz-adv-x="677" d="M0 313v107q0 74 20.5 133t57.5 100q-37 41 -57.5 101.5t-20.5 132.5v110q0 141 71.5 227.5t190.5 86.5q121 0 192.5 -86t71.5 -228v-77h-157v77q0 18 -3.5 45t-14.5 51.5t-31.5 42t-57.5 17.5q-35 0 -56.5 -17.5t-31.5 -42t-13 -51t-3 -45.5v-110q0 -16 3 -43t13 -51.5 t31.5 -42t56.5 -17.5h313v-160h-49v-569h-157v19q-51 -23 -107 -23q-119 0 -190.5 86t-71.5 227zM158 313q0 -16 3 -42.5t13 -51t31.5 -42t56.5 -17.5q37 0 57.5 17.5t31.5 42t14.5 51t3.5 42.5v260h-107q-35 0 -56.5 -17t-31.5 -42t-13 -50.5t-3 -43.5v-107z" />
<glyph unicode="'" horiz-adv-x="262" d="M0 1184v127h160v-127l-37 -250h-86z" />
<glyph unicode="(" horiz-adv-x="2312" d="M135 -205h37l21 -96l18 96h37l18 -96l23 96h35l-37 -127v-6h-37l-21 96l-20 -96h-37l-37 129v4zM205 625v579l315 68l-12 43l47 14l-10 47l49 10l-6 52l47 4v47h43l4 43l47 -6l8 47l51 -8l13 47l45 -13l18 43l47 -18l25 45l43 -22l25 41l43 -29l30 39l39 -31l33 33 l31 -29l30 27l31 -35l41 27l27 -43l45 24l22 -41l43 19l21 -47l49 14l14 -45l45 10l11 -49l51 4l2 -31l473 103v-580l-217 -47l4 -4l-27 -31l27 -33l-37 -30l27 -41l-43 -27l26 -43l-43 -24l19 -43l-47 -21l16 -49l-45 -14l8 -46l-49 -10l4 -51l-47 -4v-47h-41l-6 -43l-45 4 l-10 -45l-50 8l-14 -47l-45 14l-16 -47l-50 21l-22 -45l-43 22l-27 -41l-43 27l-28 -37l-37 31l-35 -33l-31 29l-33 -29l-28 37l-41 -27l-29 43l-43 -24l-22 41l-45 -19l-21 47l-47 -14l-14 45l-47 -10l-11 49l-49 -4l-6 47h-47v43l-41 4l4 47l-47 8l10 49l-49 15l14 45 l-32 12zM330 -205h35l22 -96l19 96h34l21 -96l20 96h37l-37 -127l-2 -6h-35l-22 96l-21 -96h-36l-35 129v4zM334 51q0 12 2 19q0 4 2 9t2 9q2 14 16 29q4 6 11.5 11t15.5 9q10 4 19.5 6t19.5 2h6q6 0 18 -4q6 0 10.5 -2t8.5 -4q14 -8 24 -22q4 -6 9 -15q2 -4 2 -12h-39 q0 6 -4 10q-2 6 -13 13q-10 6 -20 6q-6 0 -10 -2h-8l-17 -13q-4 -4 -7 -8t-5 -10q-4 -10 -4 -33q0 -18 6 -33q2 -14 14 -18q6 -4 11.5 -6t11.5 -4h6q14 0 20 6q8 0 15 10q4 6 7 11t3 12h-43v32h76v-98h-25l-4 23q-6 -10 -16 -17q-6 -4 -11.5 -5t-9.5 -5q-6 0 -11 -1t-11 -1 q-18 0 -29 8q-17 7 -25 19q-12 12 -18 30t-6 39zM334 788q0 -2 2 -4h10l10 7l13 12l8 12l12 12q2 4 10 13l74 102q6 10 12.5 17.5t10.5 17.5l24 37q6 10 12.5 18t10.5 19q6 10 11 18t9 18q2 6 0 9q-2 2 -6 2q-8 0 -10 -2l-10 -6l-21 -23l-18 -25q-10 -10 -17 -22l-18 -23 l-66 -94l-30 -49q-8 -12 -14.5 -24.5t-12.5 -24.5l-4 -6q0 -2 -1 -3t-1 -3v-5zM383 1004q2 -8 12 -15l21 -6q16 0 26 2q4 0 7 2q2 2 2 4t-2 2h-7q-4 0 -4 -2q-20 -2 -35 4q-8 4 -10 9q-4 8 -4 12q0 8 2 14l8 17l21 22q4 4 11 9t13 9q8 4 14.5 8.5t14.5 8.5t15.5 7t15.5 7 q8 2 15 4t18 6l32 7q20 4 31 4q10 0 27 -4q4 -2 9 -3.5t9 -5.5l10 -14q2 -6 2 -20q0 -6 -4 -23l-12 -22q-4 -8 -16 -25q-4 -6 -10.5 -11t-12.5 -12q-4 -6 -11 -11t-13 -11l-27 -16l-29 -13l-16 -6q-6 0 -14 -4h-7q-4 0 -6 -2q-4 0 -4 -2q-4 0 -4 -4q0 -2 2 -2h6q4 0 6 2h7 l30 10l31 12l31 15l30 18l27 19l25 22l20 23q4 6 7 12t5 12q6 12 7 23q2 12 0 20q-4 12 -9 19q-8 6 -16 10q-12 6 -23 6q-10 2 -28 2q-8 0 -29 -4q-16 -2 -32.5 -6t-32.5 -8t-32 -11.5t-32 -15.5q-8 -4 -15 -8t-16 -10q-16 -10 -26 -21q-8 -6 -21 -22l-10 -23q-2 -12 0 -20z M522 31q0 10 1 17t5 15q6 16 21 25q8 6 17 7t20 1q27 0 35 -8q12 -8 20 -27q4 -10 5 -18t1 -18v-9h-92q0 -12 10 -22q6 -8 23 -8q6 0 14 4q8 8 8 10h37q-4 -10 -12 -23q-6 -4 -11.5 -8t-9.5 -6q-8 -2 -13 -4t-13 -2q-66 0 -66 74zM522 -205h37l21 -96l18 96h37l18 -96l21 96 h37l-37 -127l-2 -6h-35l-21 96l-22 -96h-35l-37 129v4zM559 41h53q-4 12 -8 20q-4 4 -8 6.5t-10 2.5q-23 0 -27 -29zM641 803h2q23 0 23 -19v-55q0 -14 12 -27l18 -6q6 -2 23 -2q16 0 29 4q8 4 12 9q10 8 10 26v58l10 10h2l2 2h9v4h-56v-4h13q2 0 3 -1t3 -1q12 -6 12 -27 v-39q0 -16 -10 -26l-15 -11h-18q-14 0 -20 4q-4 0 -13 9q-4 4 -4 18v55q0 12 4 15q4 4 17 4h8v4h-76v-4zM657 70v24h19v35h35v-35h20v-24h-20v-72q0 -8 2 -10q2 0 5 -1t7 -1l4 2h2v-27h-20q-16 0 -23 4q-8 0 -10 8q-2 4 -2 15v82h-19zM657 924q2 -6 11 -15q12 -8 26 -6 q16 0 33 6q18 6 37 19q18 8 37 24l28 25l17 18q0 2 4 6q0 4 4 5l4 8l19 18l18 25q6 6 11 12t9 12l9 -4l4 -6q2 -4 2 -8q0 -2 -8 -10l-19 -21l-16 -22l-15 -23l-6 -20q-2 -4 -2 -11v-8q4 -6 6 -8t9 -2q4 0 20 4l19 12q16 12 24 21q6 4 11 10t10 10q8 8 10 13l10 12l4 6l6 6 q4 4 4 6l15 19l24 35q0 -4 1 -8.5t1 -8.5q4 -12 4 -16l5 -8q-20 -8 -29 -15l-23 -18q-12 -12 -14 -21q-4 -8 -4 -20q2 -6 12 -10q7 -2 23 -2q14 2 28 10q14 6 27 18q10 6 18 21l11 20q6 12 6 23v18q0 6 -4 19l-8 18l-7 8q0 4 -4 8q0 2 -4 7v6q2 2 2 4h-10l-4 -4 q-6 -2 -14 -11l-7 -14l-2 -2l-6 -8l-37 -51l-6 -8l-6 -11l-2 -2v-2q-2 0 -4 -2l-6 -10l-6 -8l-19 -23l-24 -22q-6 -6 -15 -9q-8 -4 -14 -4h-2l2 2l8 13l8 10l9 12q4 2 8 10l10 17l10 18l6 17q2 6 2 16q-2 2 -2 8l-4 6q0 4 -2 7v26l8 12q4 10 -4 15q-6 6 -20 0q-14 -4 -19 -8 q-8 -6 -12 -15q-4 -8 -4 -14q0 -8 2 -12l4 -4l4 -5l-6 -8l-6 -6l-29 -37l-22 -26q-2 0 -6 -4v-3l-2 -2q0 -2 -2 -2l-13 -16q-8 -8 -15 -15.5t-18 -13.5q-20 -16 -38 -24q-4 -4 -10.5 -5t-12.5 -5q-16 -4 -22 -3q-8 0 -9 5q-2 2 -2 8q0 2 4 10l4 10l13 21q8 -4 14 -4 q12 0 21 2q14 2 30 12q10 4 29 18l18 19q4 4 7.5 9t5.5 9l8 17q0 12 -4 16q-4 6 -10 10q-6 2 -21 2q-4 -2 -10 -2t-12 -4q-8 -2 -25 -10q-27 -12 -51 -33q-23 -18 -35 -41q-6 -6 -14 -22q-6 -10 -9 -23v-20zM711 -301h37v-37h-37v37zM723 983l18 25l21 24l8 10q4 4 6 5.5 t4 5.5l13 10l14 6q10 2 16 0q2 -4 0 -12l-6 -10q-4 -4 -8 -13q-4 -4 -5 -6t-5 -4q-2 -4 -11 -12q-4 -6 -10 -11q-8 -8 -12 -10l-14 -8q-12 -4 -15 -4q-6 0 -14 4zM780 -205h33v-20q12 25 39 24q14 0 20 -6q10 -4 17 -16q4 10 14 16q8 6 21 6q16 0 26 -8q8 -6 15 -16 q4 -4 4 -21v-92h-33v80q0 27 -21 27q-23 0 -22 -27v-80h-37v92q0 6 -6 13q-4 2 -14 2q-23 0 -23 -25v-82h-33v133zM807 776q0 -6 6 -12q0 -2 6 -8l15 -6q2 -2 8 -3.5t16 -5.5l8 -2q12 -4 17 -4q4 0 8 -4q2 0 4 -2q6 -6 6 -12q0 -2 -4 -10q-2 -2 -10 -9h-13q-12 0 -18 2 l-20 9l-13 12q-10 14 -10 24h-4v-51h4q0 8 4 8q4 4 10 5q2 0 2 -1t5 -1q2 0 3 -1.5t5 -1.5l16 -6q4 -2 16 -2q6 0 19 4q4 0 7 2t7 7q4 2 4 4t4 6v22l-6 9q-6 4 -14 8l-21 8h-12l-2 2l-16 4q-4 2 -6 2t-4 2q-2 0 -7 4q-4 4 -4 8q0 6 2 9q0 -2 4 6l9 4q4 0 6 1t6 1q8 0 16 -4 q10 0 17 -6q8 -4 12 -9q4 -4 5 -9t5 -11h4v37h-4q-2 -8 -8 -8t-10 2q-20 10 -37 10q-10 0 -23 -4l-14 -10q-6 -10 -6 -19zM809 70v24h18v10q0 37 39 37h19v-26h-11q-6 0 -8 -2q-4 0 -4 -4v-15h23v-24h-23v-109h-35v109h-18zM905 6v88h35v-82q0 -25 23 -24q8 0 12 2t12 10 q0 4 2 8t2 8v78h33v-133h-33v19q-6 -10 -16 -15q-16 -8 -25 -8q-20 0 -32 14q-12 12 -13 35zM928 696h119v45q-4 -4 -4.5 -7t-2.5 -7l-12 -16q-6 -6 -10 -6l-10 -5q-6 -2 -15 -2h-18v50h2q14 0 22 -9l5 -6q0 -2 1 -3t1 -5q2 -4 2 -10h2v71h-2v-10l-7 -12q-10 -12 -20 -12h-6 v51h20q18 0 25 -2l10 -8l6 -13l6 -16h5v43h-119v-4h4q10 0 12 -4q6 -4 6 -15v-65q0 -20 -18 -21h-4v-2zM987 979v10l4 12l8 11q10 12 23 20l27 12q0 -4 1 -6t1 -6q-2 -4 -2 -10q0 -4 -1 -6t-1 -6l-5 -11q-2 -4 -10 -12l-8 -6q-4 -4 -10 -4q-2 -2 -10 -2q-4 -4 -9 0 q-4 0 -8 4zM991 -303q0 20 13 31q8 8 26 12l33 4q10 4 10 10q0 16 -20 17q-4 0 -8.5 -1t-8.5 -1q-2 -4 -4 -8.5t-2 -8.5h-33q0 14 7 27q12 12 20 14l12 4q4 0 8.5 1t8.5 1q27 0 37 -8q10 -6 16 -14q2 -6 2 -17v-71q0 -11 2 -15q0 -6 6 -6v-6h-37q0 2 -2 4v2q-2 4 -2 10 q-8 -8 -12 -10l-12 -6q-4 -2 -17 -2q-14 0 -18 2q-10 2 -17 14q-8 6 -8 21zM1026 -301q0 -8 6 -10q4 -4 12 -4h7q2 0 3 1t3 1l12 8q4 4 4 14v19q-6 -6 -12 -7l-17 -2l-12 -6q-6 -6 -6 -14zM1057 -39v180h35v-180h-35zM1118 -39v180h33v-180h-33zM1120 752q0 -16 4 -23 q8 -12 15 -18q4 -4 10 -6.5t12 -6.5q16 -4 25 -4q23 0 33 8q12 7 24 21q8 10 8 29q0 12 -4 20t-12 19q-10 10 -23 12q-12 6 -26 6q-23 0 -33 -8q-10 -4 -15 -9.5t-10 -11.5q-8 -14 -8 -28zM1126 -205h37l21 -96l18 96h35l20 -96l23 96h35l-37 -127v-6h-37l-20 96l-21 -96 h-37l-37 129v4zM1133 1018q0 -6 4 -10t12 -9q4 0 6 -1t6 1h15q10 2 30 11l31 16l27 23l22 20l17 23l12 20l6 21q2 12 0 18q0 6 -6 12q-2 4 -12 8q-4 0 -8.5 1.5t-8.5 1.5q-6 0 -22 -5q-2 0 -15 -4l-14 -6l-29 -18q-8 -4 -14 -10.5t-12 -10.5l-21 -22l-14 -23 q-10 -17 -12 -31q-4 -14 0 -26zM1147 752q0 4 1 9t1 9l6 14q6 10 8 13q0 2 11 6q8 4 14 4q2 0 3 -1t5 -1l8 -4l10 -10q2 -4 4.5 -8.5t4.5 -10.5q0 -4 1 -9t1 -11q0 -12 -4 -29q-6 -12 -15 -21q-6 -4 -20 -4q-12 0 -15 4q-8 0 -14 11l-6 16q-4 12 -4 23zM1159 1020q0 4 2 6 q4 16 10 25q12 16 17 24l12 15l10 12l19 24q6 6 11 12.5t11 10.5l11 8l12 6q4 2 10 2q4 0 6 -4q2 -2 2 -8q0 -4 -4 -12l-6 -11l-6 -12q-4 -8 -8 -12l-8 -12q-4 -6 -8.5 -12.5t-8.5 -10.5l-18 -22l-23 -23q-6 -6 -12 -8q-6 -6 -14 -8q-5 -2 -11 -2l-4 4q-2 2 -2 8zM1241 70 v24h19v10q0 37 38 37h17v-26h-8q-8 0 -9 -2q-2 0 -4 -4v-15h25v-24h-25v-109h-34v109h-19zM1268 696h57v2q-6 0 -10 2q-4 0 -5 1t-5 1l-7 11q-2 2 -2 14v66l95 -97h4v78q0 12 6 23q2 6 18 6v4h-55v-4h10q0 -2 4 -2q8 -8 8 -10q4 -4 5 -17v-47l-78 80h-43v-4h2q8 0 10 -2 q4 0 5 -2t3 -2q2 -4 2 -11v-63q0 -8 -2 -12q-2 -6 -8 -9q-8 -4 -14 -4v-2zM1290 1022q2 0 3 -1t3 -1q6 0 11 2l10 6q0 2 4 6l4 4l6 6q0 2 4 7l21 24l22 25l21 24l24 25l25 22l10 11q4 2 12 10l13 8l14 6q2 0 2 -2h-2l-6 -6q-2 -6 -8 -8l-6 -8l-15 -17q-6 -6 -14 -18 q-12 -16 -16 -25l-17 -24q-4 -6 -8 -23q-4 -10 0 -18t10 -8q12 0 21 2q6 2 12 6t14 8q12 6 23 16l24 23l2 2q-2 -2 -2 -6q0 -8 5 -17q4 -8 12 -10q6 -2 22 2q20 8 29 15l25 18l8 8l8 8l16 15q-2 -2 -2 -6q0 -2 -1 -3.5t-1 -3.5v-8q-4 -6 0 -10q0 -4 1 -5t1 -3q2 -6 8 -6 q2 -2 9 -2q6 0 10 2l8 4l10 6l15 8l37 31l20 20l-6 -14q-4 -8 -4 -23v-6q4 -4 6 -4q0 -2 6 -2q2 0 10 4q4 2 7.5 3t7.5 5l12 9l12 12q4 2 13 10q6 4 11 10.5t11 12.5l21 24q2 2 2 4q-2 2 -5 2q-4 0 -8 -4l-4 -6l-14 -16l-12 -15q-4 -4 -7.5 -7t-7.5 -7l-16 -14l-8 -6l-11 -5 l-2 -2q-2 0 -4 2h2l9 17l4 8t6 8l8 13q4 4 8 12l74 108q12 12 16 21l19 18l43 49q10 12 19 24.5t20 25.5l12 20v10q-2 2 -10 2q-4 0 -13 -4q-4 0 -7 -2t-7 -4q-8 -4 -12 -8l-10 -8q-6 -4 -12.5 -9.5t-12.5 -11.5l-21 -22q-8 -8 -20 -25q-4 -8 -16 -24q-10 -12 -17.5 -24.5 t-15.5 -25.5l-31 -51l-22 -39l-9 -18q-2 0 -2 -2l-16 -17q-4 -6 -10 -11t-13 -11l-22 -21l-10 -8l-9 -6l-4 -2l-6 -4h-6h-4l6 12l6 10q0 2 1 2.5t1 2.5l2 2q4 8 9.5 15t11.5 15q4 8 9 16.5t11 16.5l17 25l8 14q4 4 8 12l2 2l2 2q0 2 1 2t1 3l2 2q6 4 4 8q0 2 -8 2l-12 -4 l-12 -6l-21 -15l-8 -8l-8 -8q0 8 -2 12q0 4 -8 8q-12 2 -25 0q-12 -4 -27 -10q-16 -6 -26 -14q-8 -4 -13.5 -9.5l-9.5 -9.5q-29 -23 -43 -45q-18 -23 -24 -43q-2 0 -2 -1t-3 -1q-4 -4 -9 -10t-11 -10q-8 -8 -25 -21q-6 -6 -14 -8q-8 -4 -12 -4h-4q-2 2 0 4l8 10l6 11l14 16 l25 33q6 8 12 15t10 17l11 21q4 12 2 18q0 6 -2 9q-4 4 -8 4q-6 0 -11 -2l-14 -7l-14 -8q-8 -8 -13 -10q-8 -8 -12 -10q-8 -8 -12 -10l-25 -25q-6 -6 -12 -11t-10 -12l-13 -14l-12 -12l4 6l29 41l31 43q0 2 1 2t1 2q2 2 2 4q2 4 2 8l-6 6q-2 0 -3.5 1.5t-5.5 1.5 q-2 0 -4 -1.5t-6 -1.5l-12 -6l-6 -6q-4 -2 -4 -4t-2 -4l-7 -8l-90 -156q-2 -2 -2 -8zM1329 27q0 10 4 26q2 12 13 23q12 12 22 16q8 4 29 4q20 0 30 -4q4 -4 9.5 -6t9.5 -6q10 -12 14 -25q4 -12 4 -28q0 -20 -8 -35q-6 -14 -22 -25q-16 -10 -37 -10q-23 0 -39 10 q-12 10 -23 27q-6 14 -6 33zM1331 -205h35v-20q14 25 41 24q13 0 25 -6q10 -4 14 -14q6 -12 6 -25v-92h-35v80q0 16 -4 20q-2 6 -18 7q-14 0 -21 -9q-6 -10 -6 -22v-76h-37v133zM1364 27q0 -14 8 -27q4 -12 25 -12q20 0 24 12q8 8 9 27q0 20 -9 28q-6 12 -24 13 q-18 0 -25 -13q-8 -12 -8 -28zM1425 696h125v49h-2q-4 -4 -4 -7t-2 -7q-4 -4 -4 -10q-2 -2 -6 -8q-8 -8 -14 -11q-4 -4 -17 -4h-28v86q0 10 6 15q4 4 14 4h8v4h-76v-4h7q18 0 18 -19v-65q0 -20 -18 -21h-7v-2zM1477 -295h34q0 -18 31 -18q10 0 17 2q4 8 4 10q0 8 -15 10 l-30 8q-6 2 -13.5 5.5t-11.5 7.5q-12 8 -12 24q0 12 6 23q4 8 18 16q8 6 29 6q12 0 21.5 -2t17.5 -6q12 -6 16 -16l4 -11v-10h-34q0 10 -7 15q-2 2 -16 2q-20 0 -20 -13q0 -6 12 -8l31 -8q12 -2 28 -12q10 -6 10 -25q0 -12 -6 -24q-8 -10 -20 -17q-8 -4 -31 -4h-12 q-8 0 -12 2q-12 4 -21 8q-12 8 -14 15q-4 12 -4 20zM1489 -39v133h33v-18q14 20 41 20q18 0 24 -4l17 -14q6 -12 6 -25v-92h-35v80q0 8 -4 20q-6 6 -21 7q-14 0 -20 -9q-4 -6 -4 -22v-76h-37zM1542 1090l2 4q0 2 2 4q4 8 8 12l9 12q2 4 4 7.5t4 7.5t10 12l21 29l30 36l8 11 l9 8l10 6q4 2 10 2q4 2 10 2l7 -4q0 -2 1 -3t1 -5t-2 -8q0 -4 -5 -9l-18 -24l-16 -27l-19 -18l-18 -21q-4 -2 -13 -10l-14 -12q-8 -4 -12 -8q-4 -2 -6 -4.5t-6 -2.5q-8 -4 -13 -2h-2q-2 2 -2 5zM1544 803h2q12 0 17 -2l6 -6t4 -7l35 -45v-24q0 -10 -4 -14q-4 -2 -8.5 -4.5 t-8.5 -2.5h-6v-2h78v2h-8q-8 0 -15 7q-6 2 -6 14v26l29 39l6 9q8 4 10 4q2 4 6 4q4 2 11 2v4h-56v-4h6q10 0 13 -2q4 -2 4 -8q0 -4 -6 -13l-23 -30l-28 36q-4 8 -5 9v2q0 4 2 4q0 2 7 2h10v4h-72v-4zM1624 -301h37v-37h-37v37zM1626 70v24h21v35h32v-35h23v-24h-23v-72 q0 -4 1 -6t1 -4q4 0 6.5 -1t6.5 -1l4 2h4v-27h-23q-16 0 -20 4q-10 0 -12 8v97h-21zM1686 -274q0 29 12 51q16 23 47 22q18 0 31 -6q14 -4 20 -18q10 -10 10 -27h-37q0 6 -4 14q-4 7 -16 7q-16 0 -20 -11q-8 -8 -9 -26q0 -18 2 -25q2 -10 9 -14q4 -4 16 -4q10 0 16 4 q6 6 6 18h37q0 -10 -8 -26q-6 -10 -20 -19q-12 -6 -33 -6q-27 0 -43 14q-8 8 -14 21q-2 8 -2 31zM1784 -2q0 20 10 29q12 8 29 12l30 4q12 2 13 10q0 16 -21 17q-8 0 -16 -4q-6 -2 -8 -17h-33q2 18 8 29q4 8 19 14q8 4 14 4h16q27 0 37 -4l8 -8t6 -8q4 -12 5 -17v-86 q0 -6 8 -6v-6h-39q-2 0 -2 2v2v2q0 4 -1 6t-1 4q-4 -6 -11 -10q-4 -2 -7 -4t-5 -2l-9 -3t-9 -1t-19 4q-4 4 -8 6t-8 6q-6 8 -6 25zM1819 -2q0 -10 4 -10q4 -4 12 -4h8h2l4 2q8 4 13 8q4 8 4 16v17q-6 -6 -15 -7l-16 -4q-6 0 -12 -6q-4 -2 -4 -12zM1823 -272q0 18 4 26 q2 8 5 13.5t7 11.5q12 12 23 14q8 6 28 6q16 0 29 -6q9 -2 23 -12q4 -4 6 -10.5t6 -12.5q4 -8 4 -30q0 -20 -8 -35q-6 -14 -23 -25q-14 -8 -37 -8q-27 0 -39 10q-14 10 -22 25q-6 14 -6 33zM1860 -272q0 -14 6 -27q6 -12 24 -12q19 0 25 12q4 6 5 13t1 14q0 23 -6 30 q-6 10 -25 11q-18 0 -24 -11q-6 -12 -6 -30zM1894 1329l33 45l17 27l30 41l2 2q0 4 4 4q0 2 2 2q2 2 3 0q0 -4 -5 -12l-8 -13l-8 -10q-4 -8 -8 -10l-19 -25l-20 -24l-12 -15q-2 -4 -11 -12zM1917 70v24h16v35h37v-35h23v-24h-23v-72q0 -4 1 -6t1 -4q2 0 4 -1t6 -1l7 2h4v-27 h-23q-16 0 -22 4q-8 0 -11 8q0 4 -2 7.5t-2 7.5v82h-16zM1982 -205h33v-20q14 25 39 24q16 0 23 -6q8 -4 14 -16q4 8 16 16q6 6 21 6q16 0 24 -8q13 -6 15 -16q6 -6 6 -21v-92h-35v80q0 27 -20 27q-23 0 -23 -27v-80h-35v80q0 10 -2 12q0 6 -6 13q-4 2 -12 2q-23 0 -23 -25 v-82h-35v133z" />
<glyph unicode=")" horiz-adv-x="2312" d="M135 -205h37l21 -96l18 96h37l18 -96l23 96h35l-37 -127v-6h-37l-21 96l-20 -96h-37l-37 129v4zM205 625v579l315 68l-12 43l47 14l-10 47l49 10l-6 52l47 4v47h43l4 43l47 -6l8 47l51 -8l13 47l45 -13l18 43l47 -18l25 45l43 -22l25 41l43 -29l30 39l39 -31l33 33 l31 -29l30 27l31 -35l41 27l27 -43l45 24l22 -41l43 19l21 -47l49 14l14 -45l45 10l11 -49l51 4l2 -31l473 103v-580l-217 -47l4 -4l-27 -31l27 -33l-37 -30l27 -41l-43 -27l26 -43l-43 -24l19 -43l-47 -21l16 -49l-45 -14l8 -46l-49 -10l4 -51l-47 -4v-47h-41l-6 -43l-45 4 l-10 -45l-50 8l-14 -47l-45 14l-16 -47l-50 21l-22 -45l-43 22l-27 -41l-43 27l-28 -37l-37 31l-35 -33l-31 29l-33 -29l-28 37l-41 -27l-29 43l-43 -24l-22 41l-45 -19l-21 47l-47 -14l-14 45l-47 -10l-11 49l-49 -4l-6 47h-47v43l-41 4l4 47l-47 8l10 49l-49 15l14 45 l-32 12zM330 -205h35l22 -96l19 96h34l21 -96l20 96h37l-37 -127l-2 -6h-35l-22 96l-21 -96h-36l-35 129v4zM334 51q0 12 2 19q0 4 2 9t2 9q2 14 16 29q4 6 11.5 11t15.5 9q10 4 19.5 6t19.5 2h6q6 0 18 -4q6 0 10.5 -2t8.5 -4q14 -8 24 -22q4 -6 9 -15q2 -4 2 -12h-39 q0 6 -4 10q-2 6 -13 13q-10 6 -20 6q-6 0 -10 -2h-8l-17 -13q-4 -4 -7 -8t-5 -10q-4 -10 -4 -33q0 -18 6 -33q2 -14 14 -18q6 -4 11.5 -6t11.5 -4h6q14 0 20 6q8 0 15 10q4 6 7 11t3 12h-43v32h76v-98h-25l-4 23q-6 -10 -16 -17q-6 -4 -11.5 -5t-9.5 -5q-6 0 -11 -1t-11 -1 q-18 0 -29 8q-17 7 -25 19q-12 12 -18 30t-6 39zM334 788q0 -2 2 -4h10l10 7l13 12l8 12l12 12q2 4 10 13l74 102q6 10 12.5 17.5t10.5 17.5l24 37q6 10 12.5 18t10.5 19q6 10 11 18t9 18q2 6 0 9q-2 2 -6 2q-8 0 -10 -2l-10 -6l-21 -23l-18 -25q-10 -10 -17 -22l-18 -23 l-66 -94l-30 -49q-8 -12 -14.5 -24.5t-12.5 -24.5l-4 -6q0 -2 -1 -3t-1 -3v-5zM383 1004q2 -8 12 -15l21 -6q16 0 26 2q4 0 7 2q2 2 2 4t-2 2h-7q-4 0 -4 -2q-20 -2 -35 4q-8 4 -10 9q-4 8 -4 12q0 8 2 14l8 17l21 22q4 4 11 9t13 9q8 4 14.5 8.5t14.5 8.5t15.5 7t15.5 7 q8 2 15 4t18 6l32 7q20 4 31 4q10 0 27 -4q4 -2 9 -3.5t9 -5.5l10 -14q2 -6 2 -20q0 -6 -4 -23l-12 -22q-4 -8 -16 -25q-4 -6 -10.5 -11t-12.5 -12q-4 -6 -11 -11t-13 -11l-27 -16l-29 -13l-16 -6q-6 0 -14 -4h-7q-4 0 -6 -2q-4 0 -4 -2q-4 0 -4 -4q0 -2 2 -2h6q4 0 6 2h7 l30 10l31 12l31 15l30 18l27 19l25 22l20 23q4 6 7 12t5 12q6 12 7 23q2 12 0 20q-4 12 -9 19q-8 6 -16 10q-12 6 -23 6q-10 2 -28 2q-8 0 -29 -4q-16 -2 -32.5 -6t-32.5 -8t-32 -11.5t-32 -15.5q-8 -4 -15 -8t-16 -10q-16 -10 -26 -21q-8 -6 -21 -22l-10 -23q-2 -12 0 -20z M522 31q0 10 1 17t5 15q6 16 21 25q8 6 17 7t20 1q27 0 35 -8q12 -8 20 -27q4 -10 5 -18t1 -18v-9h-92q0 -12 10 -22q6 -8 23 -8q6 0 14 4q8 8 8 10h37q-4 -10 -12 -23q-6 -4 -11.5 -8t-9.5 -6q-8 -2 -13 -4t-13 -2q-66 0 -66 74zM522 -205h37l21 -96l18 96h37l18 -96l21 96 h37l-37 -127l-2 -6h-35l-21 96l-22 -96h-35l-37 129v4zM559 41h53q-4 12 -8 20q-4 4 -8 6.5t-10 2.5q-23 0 -27 -29zM641 803h2q23 0 23 -19v-55q0 -14 12 -27l18 -6q6 -2 23 -2q16 0 29 4q8 4 12 9q10 8 10 26v58l10 10h2l2 2h9v4h-56v-4h13q2 0 3 -1t3 -1q12 -6 12 -27 v-39q0 -16 -10 -26l-15 -11h-18q-14 0 -20 4q-4 0 -13 9q-4 4 -4 18v55q0 12 4 15q4 4 17 4h8v4h-76v-4zM657 70v24h19v35h35v-35h20v-24h-20v-72q0 -8 2 -10q2 0 5 -1t7 -1l4 2h2v-27h-20q-16 0 -23 4q-8 0 -10 8q-2 4 -2 15v82h-19zM657 924q2 -6 11 -15q12 -8 26 -6 q16 0 33 6q18 6 37 19q18 8 37 24l28 25l17 18q0 2 4 6q0 4 4 5l4 8l19 18l18 25q6 6 11 12t9 12l9 -4l4 -6q2 -4 2 -8q0 -2 -8 -10l-19 -21l-16 -22l-15 -23l-6 -20q-2 -4 -2 -11v-8q4 -6 6 -8t9 -2q4 0 20 4l19 12q16 12 24 21q6 4 11 10t10 10q8 8 10 13l10 12l4 6l6 6 q4 4 4 6l15 19l24 35q0 -4 1 -8.5t1 -8.5q4 -12 4 -16l5 -8q-20 -8 -29 -15l-23 -18q-12 -12 -14 -21q-4 -8 -4 -20q2 -6 12 -10q7 -2 23 -2q14 2 28 10q14 6 27 18q10 6 18 21l11 20q6 12 6 23v18q0 6 -4 19l-8 18l-7 8q0 4 -4 8q0 2 -4 7v6q2 2 2 4h-10l-4 -4 q-6 -2 -14 -11l-7 -14l-2 -2l-6 -8l-37 -51l-6 -8l-6 -11l-2 -2v-2q-2 0 -4 -2l-6 -10l-6 -8l-19 -23l-24 -22q-6 -6 -15 -9q-8 -4 -14 -4h-2l2 2l8 13l8 10l9 12q4 2 8 10l10 17l10 18l6 17q2 6 2 16q-2 2 -2 8l-4 6q0 4 -2 7v26l8 12q4 10 -4 15q-6 6 -20 0q-14 -4 -19 -8 q-8 -6 -12 -15q-4 -8 -4 -14q0 -8 2 -12l4 -4l4 -5l-6 -8l-6 -6l-29 -37l-22 -26q-2 0 -6 -4v-3l-2 -2q0 -2 -2 -2l-13 -16q-8 -8 -15 -15.5t-18 -13.5q-20 -16 -38 -24q-4 -4 -10.5 -5t-12.5 -5q-16 -4 -22 -3q-8 0 -9 5q-2 2 -2 8q0 2 4 10l4 10l13 21q8 -4 14 -4 q12 0 21 2q14 2 30 12q10 4 29 18l18 19q4 4 7.5 9t5.5 9l8 17q0 12 -4 16q-4 6 -10 10q-6 2 -21 2q-4 -2 -10 -2t-12 -4q-8 -2 -25 -10q-27 -12 -51 -33q-23 -18 -35 -41q-6 -6 -14 -22q-6 -10 -9 -23v-20zM711 -301h37v-37h-37v37zM723 983l18 25l21 24l8 10q4 4 6 5.5 t4 5.5l13 10l14 6q10 2 16 0q2 -4 0 -12l-6 -10q-4 -4 -8 -13q-4 -4 -5 -6t-5 -4q-2 -4 -11 -12q-4 -6 -10 -11q-8 -8 -12 -10l-14 -8q-12 -4 -15 -4q-6 0 -14 4zM780 -205h33v-20q12 25 39 24q14 0 20 -6q10 -4 17 -16q4 10 14 16q8 6 21 6q16 0 26 -8q8 -6 15 -16 q4 -4 4 -21v-92h-33v80q0 27 -21 27q-23 0 -22 -27v-80h-37v92q0 6 -6 13q-4 2 -14 2q-23 0 -23 -25v-82h-33v133zM807 776q0 -6 6 -12q0 -2 6 -8l15 -6q2 -2 8 -3.5t16 -5.5l8 -2q12 -4 17 -4q4 0 8 -4q2 0 4 -2q6 -6 6 -12q0 -2 -4 -10q-2 -2 -10 -9h-13q-12 0 -18 2 l-20 9l-13 12q-10 14 -10 24h-4v-51h4q0 8 4 8q4 4 10 5q2 0 2 -1t5 -1q2 0 3 -1.5t5 -1.5l16 -6q4 -2 16 -2q6 0 19 4q4 0 7 2t7 7q4 2 4 4t4 6v22l-6 9q-6 4 -14 8l-21 8h-12l-2 2l-16 4q-4 2 -6 2t-4 2q-2 0 -7 4q-4 4 -4 8q0 6 2 9q0 -2 4 6l9 4q4 0 6 1t6 1q8 0 16 -4 q10 0 17 -6q8 -4 12 -9q4 -4 5 -9t5 -11h4v37h-4q-2 -8 -8 -8t-10 2q-20 10 -37 10q-10 0 -23 -4l-14 -10q-6 -10 -6 -19zM809 70v24h18v10q0 37 39 37h19v-26h-11q-6 0 -8 -2q-4 0 -4 -4v-15h23v-24h-23v-109h-35v109h-18zM905 6v88h35v-82q0 -25 23 -24q8 0 12 2t12 10 q0 4 2 8t2 8v78h33v-133h-33v19q-6 -10 -16 -15q-16 -8 -25 -8q-20 0 -32 14q-12 12 -13 35zM928 696h119v45q-4 -4 -4.5 -7t-2.5 -7l-12 -16q-6 -6 -10 -6l-10 -5q-6 -2 -15 -2h-18v50h2q14 0 22 -9l5 -6q0 -2 1 -3t1 -5q2 -4 2 -10h2v71h-2v-10l-7 -12q-10 -12 -20 -12h-6 v51h20q18 0 25 -2l10 -8l6 -13l6 -16h5v43h-119v-4h4q10 0 12 -4q6 -4 6 -15v-65q0 -20 -18 -21h-4v-2zM987 979v10l4 12l8 11q10 12 23 20l27 12q0 -4 1 -6t1 -6q-2 -4 -2 -10q0 -4 -1 -6t-1 -6l-5 -11q-2 -4 -10 -12l-8 -6q-4 -4 -10 -4q-2 -2 -10 -2q-4 -4 -9 0 q-4 0 -8 4zM991 -303q0 20 13 31q8 8 26 12l33 4q10 4 10 10q0 16 -20 17q-4 0 -8.5 -1t-8.5 -1q-2 -4 -4 -8.5t-2 -8.5h-33q0 14 7 27q12 12 20 14l12 4q4 0 8.5 1t8.5 1q27 0 37 -8q10 -6 16 -14q2 -6 2 -17v-71q0 -11 2 -15q0 -6 6 -6v-6h-37q0 2 -2 4v2q-2 4 -2 10 q-8 -8 -12 -10l-12 -6q-4 -2 -17 -2q-14 0 -18 2q-10 2 -17 14q-8 6 -8 21zM1026 -301q0 -8 6 -10q4 -4 12 -4h7q2 0 3 1t3 1l12 8q4 4 4 14v19q-6 -6 -12 -7l-17 -2l-12 -6q-6 -6 -6 -14zM1057 -39v180h35v-180h-35zM1118 -39v180h33v-180h-33zM1120 752q0 -16 4 -23 q8 -12 15 -18q4 -4 10 -6.5t12 -6.5q16 -4 25 -4q23 0 33 8q12 7 24 21q8 10 8 29q0 12 -4 20t-12 19q-10 10 -23 12q-12 6 -26 6q-23 0 -33 -8q-10 -4 -15 -9.5t-10 -11.5q-8 -14 -8 -28zM1126 -205h37l21 -96l18 96h35l20 -96l23 96h35l-37 -127v-6h-37l-20 96l-21 -96 h-37l-37 129v4zM1133 1018q0 -6 4 -10t12 -9q4 0 6 -1t6 1h15q10 2 30 11l31 16l27 23l22 20l17 23l12 20l6 21q2 12 0 18q0 6 -6 12q-2 4 -12 8q-4 0 -8.5 1.5t-8.5 1.5q-6 0 -22 -5q-2 0 -15 -4l-14 -6l-29 -18q-8 -4 -14 -10.5t-12 -10.5l-21 -22l-14 -23 q-10 -17 -12 -31q-4 -14 0 -26zM1147 752q0 4 1 9t1 9l6 14q6 10 8 13q0 2 11 6q8 4 14 4q2 0 3 -1t5 -1l8 -4l10 -10q2 -4 4.5 -8.5t4.5 -10.5q0 -4 1 -9t1 -11q0 -12 -4 -29q-6 -12 -15 -21q-6 -4 -20 -4q-12 0 -15 4q-8 0 -14 11l-6 16q-4 12 -4 23zM1159 1020q0 4 2 6 q4 16 10 25q12 16 17 24l12 15l10 12l19 24q6 6 11 12.5t11 10.5l11 8l12 6q4 2 10 2q4 0 6 -4q2 -2 2 -8q0 -4 -4 -12l-6 -11l-6 -12q-4 -8 -8 -12l-8 -12q-4 -6 -8.5 -12.5t-8.5 -10.5l-18 -22l-23 -23q-6 -6 -12 -8q-6 -6 -14 -8q-5 -2 -11 -2l-4 4q-2 2 -2 8zM1241 70 v24h19v10q0 37 38 37h17v-26h-8q-8 0 -9 -2q-2 0 -4 -4v-15h25v-24h-25v-109h-34v109h-19zM1268 696h57v2q-6 0 -10 2q-4 0 -5 1t-5 1l-7 11q-2 2 -2 14v66l95 -97h4v78q0 12 6 23q2 6 18 6v4h-55v-4h10q0 -2 4 -2q8 -8 8 -10q4 -4 5 -17v-47l-78 80h-43v-4h2q8 0 10 -2 q4 0 5 -2t3 -2q2 -4 2 -11v-63q0 -8 -2 -12q-2 -6 -8 -9q-8 -4 -14 -4v-2zM1290 1022q2 0 3 -1t3 -1q6 0 11 2l10 6q0 2 4 6l4 4l6 6q0 2 4 7l21 24l22 25l21 24l24 25l25 22l10 11q4 2 12 10l13 8l14 6q2 0 2 -2h-2l-6 -6q-2 -6 -8 -8l-6 -8l-15 -17q-6 -6 -14 -18 q-12 -16 -16 -25l-17 -24q-4 -6 -8 -23q-4 -10 0 -18t10 -8q12 0 21 2q6 2 12 6t14 8q12 6 23 16l24 23l2 2q-2 -2 -2 -6q0 -8 5 -17q4 -8 12 -10q6 -2 22 2q20 8 29 15l25 18l8 8l8 8l16 15q-2 -2 -2 -6q0 -2 -1 -3.5t-1 -3.5v-8q-4 -6 0 -10q0 -4 1 -5t1 -3q2 -6 8 -6 q2 -2 9 -2q6 0 10 2l8 4l10 6l15 8l37 31l20 20l-6 -14q-4 -8 -4 -23v-6q4 -4 6 -4q0 -2 6 -2q2 0 10 4q4 2 7.5 3t7.5 5l12 9l12 12q4 2 13 10q6 4 11 10.5t11 12.5l21 24q2 2 2 4q-2 2 -5 2q-4 0 -8 -4l-4 -6l-14 -16l-12 -15q-4 -4 -7.5 -7t-7.5 -7l-16 -14l-8 -6l-11 -5 l-2 -2q-2 0 -4 2h2l9 17l4 8t6 8l8 13q4 4 8 12l74 108q12 12 16 21l19 18l43 49q10 12 19 24.5t20 25.5l12 20v10q-2 2 -10 2q-4 0 -13 -4q-4 0 -7 -2t-7 -4q-8 -4 -12 -8l-10 -8q-6 -4 -12.5 -9.5t-12.5 -11.5l-21 -22q-8 -8 -20 -25q-4 -8 -16 -24q-10 -12 -17.5 -24.5 t-15.5 -25.5l-31 -51l-22 -39l-9 -18q-2 0 -2 -2l-16 -17q-4 -6 -10 -11t-13 -11l-22 -21l-10 -8l-9 -6l-4 -2l-6 -4h-6h-4l6 12l6 10q0 2 1 2.5t1 2.5l2 2q4 8 9.5 15t11.5 15q4 8 9 16.5t11 16.5l17 25l8 14q4 4 8 12l2 2l2 2q0 2 1 2t1 3l2 2q6 4 4 8q0 2 -8 2l-12 -4 l-12 -6l-21 -15l-8 -8l-8 -8q0 8 -2 12q0 4 -8 8q-12 2 -25 0q-12 -4 -27 -10q-16 -6 -26 -14q-8 -4 -13.5 -9.5l-9.5 -9.5q-29 -23 -43 -45q-18 -23 -24 -43q-2 0 -2 -1t-3 -1q-4 -4 -9 -10t-11 -10q-8 -8 -25 -21q-6 -6 -14 -8q-8 -4 -12 -4h-4q-2 2 0 4l8 10l6 11l14 16 l25 33q6 8 12 15t10 17l11 21q4 12 2 18q0 6 -2 9q-4 4 -8 4q-6 0 -11 -2l-14 -7l-14 -8q-8 -8 -13 -10q-8 -8 -12 -10q-8 -8 -12 -10l-25 -25q-6 -6 -12 -11t-10 -12l-13 -14l-12 -12l4 6l29 41l31 43q0 2 1 2t1 2q2 2 2 4q2 4 2 8l-6 6q-2 0 -3.5 1.5t-5.5 1.5 q-2 0 -4 -1.5t-6 -1.5l-12 -6l-6 -6q-4 -2 -4 -4t-2 -4l-7 -8l-90 -156q-2 -2 -2 -8zM1329 27q0 10 4 26q2 12 13 23q12 12 22 16q8 4 29 4q20 0 30 -4q4 -4 9.5 -6t9.5 -6q10 -12 14 -25q4 -12 4 -28q0 -20 -8 -35q-6 -14 -22 -25q-16 -10 -37 -10q-23 0 -39 10 q-12 10 -23 27q-6 14 -6 33zM1331 -205h35v-20q14 25 41 24q13 0 25 -6q10 -4 14 -14q6 -12 6 -25v-92h-35v80q0 16 -4 20q-2 6 -18 7q-14 0 -21 -9q-6 -10 -6 -22v-76h-37v133zM1364 27q0 -14 8 -27q4 -12 25 -12q20 0 24 12q8 8 9 27q0 20 -9 28q-6 12 -24 13 q-18 0 -25 -13q-8 -12 -8 -28zM1425 696h125v49h-2q-4 -4 -4 -7t-2 -7q-4 -4 -4 -10q-2 -2 -6 -8q-8 -8 -14 -11q-4 -4 -17 -4h-28v86q0 10 6 15q4 4 14 4h8v4h-76v-4h7q18 0 18 -19v-65q0 -20 -18 -21h-7v-2zM1477 -295h34q0 -18 31 -18q10 0 17 2q4 8 4 10q0 8 -15 10 l-30 8q-6 2 -13.5 5.5t-11.5 7.5q-12 8 -12 24q0 12 6 23q4 8 18 16q8 6 29 6q12 0 21.5 -2t17.5 -6q12 -6 16 -16l4 -11v-10h-34q0 10 -7 15q-2 2 -16 2q-20 0 -20 -13q0 -6 12 -8l31 -8q12 -2 28 -12q10 -6 10 -25q0 -12 -6 -24q-8 -10 -20 -17q-8 -4 -31 -4h-12 q-8 0 -12 2q-12 4 -21 8q-12 8 -14 15q-4 12 -4 20zM1489 -39v133h33v-18q14 20 41 20q18 0 24 -4l17 -14q6 -12 6 -25v-92h-35v80q0 8 -4 20q-6 6 -21 7q-14 0 -20 -9q-4 -6 -4 -22v-76h-37zM1542 1090l2 4q0 2 2 4q4 8 8 12l9 12q2 4 4 7.5t4 7.5t10 12l21 29l30 36l8 11 l9 8l10 6q4 2 10 2q4 2 10 2l7 -4q0 -2 1 -3t1 -5t-2 -8q0 -4 -5 -9l-18 -24l-16 -27l-19 -18l-18 -21q-4 -2 -13 -10l-14 -12q-8 -4 -12 -8q-4 -2 -6 -4.5t-6 -2.5q-8 -4 -13 -2h-2q-2 2 -2 5zM1544 803h2q12 0 17 -2l6 -6t4 -7l35 -45v-24q0 -10 -4 -14q-4 -2 -8.5 -4.5 t-8.5 -2.5h-6v-2h78v2h-8q-8 0 -15 7q-6 2 -6 14v26l29 39l6 9q8 4 10 4q2 4 6 4q4 2 11 2v4h-56v-4h6q10 0 13 -2q4 -2 4 -8q0 -4 -6 -13l-23 -30l-28 36q-4 8 -5 9v2q0 4 2 4q0 2 7 2h10v4h-72v-4zM1624 -301h37v-37h-37v37zM1626 70v24h21v35h32v-35h23v-24h-23v-72 q0 -4 1 -6t1 -4q4 0 6.5 -1t6.5 -1l4 2h4v-27h-23q-16 0 -20 4q-10 0 -12 8v97h-21zM1686 -274q0 29 12 51q16 23 47 22q18 0 31 -6q14 -4 20 -18q10 -10 10 -27h-37q0 6 -4 14q-4 7 -16 7q-16 0 -20 -11q-8 -8 -9 -26q0 -18 2 -25q2 -10 9 -14q4 -4 16 -4q10 0 16 4 q6 6 6 18h37q0 -10 -8 -26q-6 -10 -20 -19q-12 -6 -33 -6q-27 0 -43 14q-8 8 -14 21q-2 8 -2 31zM1784 -2q0 20 10 29q12 8 29 12l30 4q12 2 13 10q0 16 -21 17q-8 0 -16 -4q-6 -2 -8 -17h-33q2 18 8 29q4 8 19 14q8 4 14 4h16q27 0 37 -4l8 -8t6 -8q4 -12 5 -17v-86 q0 -6 8 -6v-6h-39q-2 0 -2 2v2v2q0 4 -1 6t-1 4q-4 -6 -11 -10q-4 -2 -7 -4t-5 -2l-9 -3t-9 -1t-19 4q-4 4 -8 6t-8 6q-6 8 -6 25zM1819 -2q0 -10 4 -10q4 -4 12 -4h8h2l4 2q8 4 13 8q4 8 4 16v17q-6 -6 -15 -7l-16 -4q-6 0 -12 -6q-4 -2 -4 -12zM1823 -272q0 18 4 26 q2 8 5 13.5t7 11.5q12 12 23 14q8 6 28 6q16 0 29 -6q9 -2 23 -12q4 -4 6 -10.5t6 -12.5q4 -8 4 -30q0 -20 -8 -35q-6 -14 -23 -25q-14 -8 -37 -8q-27 0 -39 10q-14 10 -22 25q-6 14 -6 33zM1860 -272q0 -14 6 -27q6 -12 24 -12q19 0 25 12q4 6 5 13t1 14q0 23 -6 30 q-6 10 -25 11q-18 0 -24 -11q-6 -12 -6 -30zM1894 1329l33 45l17 27l30 41l2 2q0 4 4 4q0 2 2 2q2 2 3 0q0 -4 -5 -12l-8 -13l-8 -10q-4 -8 -8 -10l-19 -25l-20 -24l-12 -15q-2 -4 -11 -12zM1917 70v24h16v35h37v-35h23v-24h-23v-72q0 -4 1 -6t1 -4q2 0 4 -1t6 -1l7 2h4v-27 h-23q-16 0 -22 4q-8 0 -11 8q0 4 -2 7.5t-2 7.5v82h-16zM1982 -205h33v-20q14 25 39 24q16 0 23 -6q8 -4 14 -16q4 8 16 16q6 6 21 6q16 0 24 -8q13 -6 15 -16q6 -6 6 -21v-92h-35v80q0 27 -20 27q-23 0 -23 -27v-80h-35v80q0 10 -2 12q0 6 -6 13q-4 2 -12 2q-23 0 -23 -25 v-82h-35v133z" />
<glyph unicode="*" horiz-adv-x="2351" d="M135 -205h37l21 -96l18 96h37l18 -96l23 96h35l-37 -127v-6h-37l-21 96l-20 -96h-37l-37 129v4zM205 625v579l315 68l-12 43l47 14l-10 47l49 10l-6 52l47 4v47h43l4 43l47 -6l8 47l51 -8l13 47l45 -13l18 43l47 -18l25 45l43 -22l25 41l43 -29l30 39l39 -31l33 33 l31 -29l30 27l31 -35l41 27l27 -43l45 24l22 -41l43 19l21 -47l49 14l14 -45l45 10l11 -49l51 4l2 -31l473 103v-580l-217 -47l4 -4l-27 -31l27 -33l-37 -30l27 -41l-43 -27l26 -43l-43 -24l19 -43l-47 -21l16 -49l-45 -14l8 -46l-49 -10l4 -51l-47 -4v-47h-41l-6 -43l-45 4 l-10 -45l-50 8l-14 -47l-45 14l-16 -47l-50 21l-22 -45l-43 22l-27 -41l-43 27l-28 -37l-37 31l-35 -33l-31 29l-33 -29l-28 37l-41 -27l-29 43l-43 -24l-22 41l-45 -19l-21 47l-47 -14l-14 45l-47 -10l-11 49l-49 -4l-6 47h-47v43l-41 4l4 47l-47 8l10 49l-49 15l14 45 l-32 12zM330 -205h35l22 -96l19 96h34l21 -96l20 96h37l-37 -127l-2 -6h-35l-22 96l-21 -96h-36l-35 129v4zM334 51q0 12 2 19q0 4 2 9t2 9q2 14 16 29q4 6 11.5 11t15.5 9q10 4 19.5 6t19.5 2h6q6 0 18 -4q6 0 10.5 -2t8.5 -4q14 -8 24 -22q4 -6 9 -15q2 -4 2 -12h-39 q0 6 -4 10q-2 6 -13 13q-10 6 -20 6q-6 0 -10 -2h-8l-17 -13q-4 -4 -7 -8t-5 -10q-4 -10 -4 -33q0 -18 6 -33q2 -14 14 -18q6 -4 11.5 -6t11.5 -4h6q14 0 20 6q8 0 15 10q4 6 7 11t3 12h-43v32h76v-98h-25l-4 23q-6 -10 -16 -17q-6 -4 -11.5 -5t-9.5 -5q-6 0 -11 -1t-11 -1 q-18 0 -29 8q-17 7 -25 19q-12 12 -18 30t-6 39zM334 788q0 -2 2 -4h10l10 7l13 12l8 12l12 12q2 4 10 13l74 102q6 10 12.5 17.5t10.5 17.5l24 37q6 10 12.5 18t10.5 19q6 10 11 18t9 18q2 6 0 9q-2 2 -6 2q-8 0 -10 -2l-10 -6l-21 -23l-18 -25q-10 -10 -17 -22l-18 -23 l-66 -94l-30 -49q-8 -12 -14.5 -24.5t-12.5 -24.5l-4 -6q0 -2 -1 -3t-1 -3v-5zM383 1004q2 -8 12 -15l21 -6q16 0 26 2q4 0 7 2q2 2 2 4t-2 2h-7q-4 0 -4 -2q-20 -2 -35 4q-8 4 -10 9q-4 8 -4 12q0 8 2 14l8 17l21 22q4 4 11 9t13 9q8 4 14.5 8.5t14.5 8.5t15.5 7t15.5 7 q8 2 15 4t18 6l32 7q20 4 31 4q10 0 27 -4q4 -2 9 -3.5t9 -5.5l10 -14q2 -6 2 -20q0 -6 -4 -23l-12 -22q-4 -8 -16 -25q-4 -6 -10.5 -11t-12.5 -12q-4 -6 -11 -11t-13 -11l-27 -16l-29 -13l-16 -6q-6 0 -14 -4h-7q-4 0 -6 -2q-4 0 -4 -2q-4 0 -4 -4q0 -2 2 -2h6q4 0 6 2h7 l30 10l31 12l31 15l30 18l27 19l25 22l20 23q4 6 7 12t5 12q6 12 7 23q2 12 0 20q-4 12 -9 19q-8 6 -16 10q-12 6 -23 6q-10 2 -28 2q-8 0 -29 -4q-16 -2 -32.5 -6t-32.5 -8t-32 -11.5t-32 -15.5q-8 -4 -15 -8t-16 -10q-16 -10 -26 -21q-8 -6 -21 -22l-10 -23q-2 -12 0 -20z M522 31q0 10 1 17t5 15q6 16 21 25q8 6 17 7t20 1q27 0 35 -8q12 -8 20 -27q4 -10 5 -18t1 -18v-9h-92q0 -12 10 -22q6 -8 23 -8q6 0 14 4q8 8 8 10h37q-4 -10 -12 -23q-6 -4 -11.5 -8t-9.5 -6q-8 -2 -13 -4t-13 -2q-66 0 -66 74zM522 -205h37l21 -96l18 96h37l18 -96l21 96 h37l-37 -127l-2 -6h-35l-21 96l-22 -96h-35l-37 129v4zM559 41h53q-4 12 -8 20q-4 4 -8 6.5t-10 2.5q-23 0 -27 -29zM641 803h2q23 0 23 -19v-55q0 -14 12 -27l18 -6q6 -2 23 -2q16 0 29 4q8 4 12 9q10 8 10 26v58l10 10h2l2 2h9v4h-56v-4h13q2 0 3 -1t3 -1q12 -6 12 -27 v-39q0 -16 -10 -26l-15 -11h-18q-14 0 -20 4q-4 0 -13 9q-4 4 -4 18v55q0 12 4 15q4 4 17 4h8v4h-76v-4zM657 70v24h19v35h35v-35h20v-24h-20v-72q0 -8 2 -10q2 0 5 -1t7 -1l4 2h2v-27h-20q-16 0 -23 4q-8 0 -10 8q-2 4 -2 15v82h-19zM657 924q2 -6 11 -15q12 -8 26 -6 q16 0 33 6q18 6 37 19q18 8 37 24l28 25l17 18q0 2 4 6q0 4 4 5l4 8l19 18l18 25q6 6 11 12t9 12l9 -4l4 -6q2 -4 2 -8q0 -2 -8 -10l-19 -21l-16 -22l-15 -23l-6 -20q-2 -4 -2 -11v-8q4 -6 6 -8t9 -2q4 0 20 4l19 12q16 12 24 21q6 4 11 10t10 10q8 8 10 13l10 12l4 6l6 6 q4 4 4 6l15 19l24 35q0 -4 1 -8.5t1 -8.5q4 -12 4 -16l5 -8q-20 -8 -29 -15l-23 -18q-12 -12 -14 -21q-4 -8 -4 -20q2 -6 12 -10q7 -2 23 -2q14 2 28 10q14 6 27 18q10 6 18 21l11 20q6 12 6 23v18q0 6 -4 19l-8 18l-7 8q0 4 -4 8q0 2 -4 7v6q2 2 2 4h-10l-4 -4 q-6 -2 -14 -11l-7 -14l-2 -2l-6 -8l-37 -51l-6 -8l-6 -11l-2 -2v-2q-2 0 -4 -2l-6 -10l-6 -8l-19 -23l-24 -22q-6 -6 -15 -9q-8 -4 -14 -4h-2l2 2l8 13l8 10l9 12q4 2 8 10l10 17l10 18l6 17q2 6 2 16q-2 2 -2 8l-4 6q0 4 -2 7v26l8 12q4 10 -4 15q-6 6 -20 0q-14 -4 -19 -8 q-8 -6 -12 -15q-4 -8 -4 -14q0 -8 2 -12l4 -4l4 -5l-6 -8l-6 -6l-29 -37l-22 -26q-2 0 -6 -4v-3l-2 -2q0 -2 -2 -2l-13 -16q-8 -8 -15 -15.5t-18 -13.5q-20 -16 -38 -24q-4 -4 -10.5 -5t-12.5 -5q-16 -4 -22 -3q-8 0 -9 5q-2 2 -2 8q0 2 4 10l4 10l13 21q8 -4 14 -4 q12 0 21 2q14 2 30 12q10 4 29 18l18 19q4 4 7.5 9t5.5 9l8 17q0 12 -4 16q-4 6 -10 10q-6 2 -21 2q-4 -2 -10 -2t-12 -4q-8 -2 -25 -10q-27 -12 -51 -33q-23 -18 -35 -41q-6 -6 -14 -22q-6 -10 -9 -23v-20zM711 -301h37v-37h-37v37zM723 983l18 25l21 24l8 10q4 4 6 5.5 t4 5.5l13 10l14 6q10 2 16 0q2 -4 0 -12l-6 -10q-4 -4 -8 -13q-4 -4 -5 -6t-5 -4q-2 -4 -11 -12q-4 -6 -10 -11q-8 -8 -12 -10l-14 -8q-12 -4 -15 -4q-6 0 -14 4zM780 -205h33v-20q12 25 39 24q14 0 20 -6q10 -4 17 -16q4 10 14 16q8 6 21 6q16 0 26 -8q8 -6 15 -16 q4 -4 4 -21v-92h-33v80q0 27 -21 27q-23 0 -22 -27v-80h-37v92q0 6 -6 13q-4 2 -14 2q-23 0 -23 -25v-82h-33v133zM807 776q0 -6 6 -12q0 -2 6 -8l15 -6q2 -2 8 -3.5t16 -5.5l8 -2q12 -4 17 -4q4 0 8 -4q2 0 4 -2q6 -6 6 -12q0 -2 -4 -10q-2 -2 -10 -9h-13q-12 0 -18 2 l-20 9l-13 12q-10 14 -10 24h-4v-51h4q0 8 4 8q4 4 10 5q2 0 2 -1t5 -1q2 0 3 -1.5t5 -1.5l16 -6q4 -2 16 -2q6 0 19 4q4 0 7 2t7 7q4 2 4 4t4 6v22l-6 9q-6 4 -14 8l-21 8h-12l-2 2l-16 4q-4 2 -6 2t-4 2q-2 0 -7 4q-4 4 -4 8q0 6 2 9q0 -2 4 6l9 4q4 0 6 1t6 1q8 0 16 -4 q10 0 17 -6q8 -4 12 -9q4 -4 5 -9t5 -11h4v37h-4q-2 -8 -8 -8t-10 2q-20 10 -37 10q-10 0 -23 -4l-14 -10q-6 -10 -6 -19zM809 70v24h18v10q0 37 39 37h19v-26h-11q-6 0 -8 -2q-4 0 -4 -4v-15h23v-24h-23v-109h-35v109h-18zM905 6v88h35v-82q0 -25 23 -24q8 0 12 2t12 10 q0 4 2 8t2 8v78h33v-133h-33v19q-6 -10 -16 -15q-16 -8 -25 -8q-20 0 -32 14q-12 12 -13 35zM928 696h119v45q-4 -4 -4.5 -7t-2.5 -7l-12 -16q-6 -6 -10 -6l-10 -5q-6 -2 -15 -2h-18v50h2q14 0 22 -9l5 -6q0 -2 1 -3t1 -5q2 -4 2 -10h2v71h-2v-10l-7 -12q-10 -12 -20 -12h-6 v51h20q18 0 25 -2l10 -8l6 -13l6 -16h5v43h-119v-4h4q10 0 12 -4q6 -4 6 -15v-65q0 -20 -18 -21h-4v-2zM987 979v10l4 12l8 11q10 12 23 20l27 12q0 -4 1 -6t1 -6q-2 -4 -2 -10q0 -4 -1 -6t-1 -6l-5 -11q-2 -4 -10 -12l-8 -6q-4 -4 -10 -4q-2 -2 -10 -2q-4 -4 -9 0 q-4 0 -8 4zM991 -303q0 20 13 31q8 8 26 12l33 4q10 4 10 10q0 16 -20 17q-4 0 -8.5 -1t-8.5 -1q-2 -4 -4 -8.5t-2 -8.5h-33q0 14 7 27q12 12 20 14l12 4q4 0 8.5 1t8.5 1q27 0 37 -8q10 -6 16 -14q2 -6 2 -17v-71q0 -11 2 -15q0 -6 6 -6v-6h-37q0 2 -2 4v2q-2 4 -2 10 q-8 -8 -12 -10l-12 -6q-4 -2 -17 -2q-14 0 -18 2q-10 2 -17 14q-8 6 -8 21zM1026 -301q0 -8 6 -10q4 -4 12 -4h7q2 0 3 1t3 1l12 8q4 4 4 14v19q-6 -6 -12 -7l-17 -2l-12 -6q-6 -6 -6 -14zM1057 -39v180h35v-180h-35zM1118 -39v180h33v-180h-33zM1120 752q0 -16 4 -23 q8 -12 15 -18q4 -4 10 -6.5t12 -6.5q16 -4 25 -4q23 0 33 8q12 7 24 21q8 10 8 29q0 12 -4 20t-12 19q-10 10 -23 12q-12 6 -26 6q-23 0 -33 -8q-10 -4 -15 -9.5t-10 -11.5q-8 -14 -8 -28zM1126 -205h37l21 -96l18 96h35l20 -96l23 96h35l-37 -127v-6h-37l-20 96l-21 -96 h-37l-37 129v4zM1133 1018q0 -6 4 -10t12 -9q4 0 6 -1t6 1h15q10 2 30 11l31 16l27 23l22 20l17 23l12 20l6 21q2 12 0 18q0 6 -6 12q-2 4 -12 8q-4 0 -8.5 1.5t-8.5 1.5q-6 0 -22 -5q-2 0 -15 -4l-14 -6l-29 -18q-8 -4 -14 -10.5t-12 -10.5l-21 -22l-14 -23 q-10 -17 -12 -31q-4 -14 0 -26zM1147 752q0 4 1 9t1 9l6 14q6 10 8 13q0 2 11 6q8 4 14 4q2 0 3 -1t5 -1l8 -4l10 -10q2 -4 4.5 -8.5t4.5 -10.5q0 -4 1 -9t1 -11q0 -12 -4 -29q-6 -12 -15 -21q-6 -4 -20 -4q-12 0 -15 4q-8 0 -14 11l-6 16q-4 12 -4 23zM1159 1020q0 4 2 6 q4 16 10 25q12 16 17 24l12 15l10 12l19 24q6 6 11 12.5t11 10.5l11 8l12 6q4 2 10 2q4 0 6 -4q2 -2 2 -8q0 -4 -4 -12l-6 -11l-6 -12q-4 -8 -8 -12l-8 -12q-4 -6 -8.5 -12.5t-8.5 -10.5l-18 -22l-23 -23q-6 -6 -12 -8q-6 -6 -14 -8q-5 -2 -11 -2l-4 4q-2 2 -2 8zM1241 70 v24h19v10q0 37 38 37h17v-26h-8q-8 0 -9 -2q-2 0 -4 -4v-15h25v-24h-25v-109h-34v109h-19zM1268 696h57v2q-6 0 -10 2q-4 0 -5 1t-5 1l-7 11q-2 2 -2 14v66l95 -97h4v78q0 12 6 23q2 6 18 6v4h-55v-4h10q0 -2 4 -2q8 -8 8 -10q4 -4 5 -17v-47l-78 80h-43v-4h2q8 0 10 -2 q4 0 5 -2t3 -2q2 -4 2 -11v-63q0 -8 -2 -12q-2 -6 -8 -9q-8 -4 -14 -4v-2zM1290 1022q2 0 3 -1t3 -1q6 0 11 2l10 6q0 2 4 6l4 4l6 6q0 2 4 7l21 24l22 25l21 24l24 25l25 22l10 11q4 2 12 10l13 8l14 6q2 0 2 -2h-2l-6 -6q-2 -6 -8 -8l-6 -8l-15 -17q-6 -6 -14 -18 q-12 -16 -16 -25l-17 -24q-4 -6 -8 -23q-4 -10 0 -18t10 -8q12 0 21 2q6 2 12 6t14 8q12 6 23 16l24 23l2 2q-2 -2 -2 -6q0 -8 5 -17q4 -8 12 -10q6 -2 22 2q20 8 29 15l25 18l8 8l8 8l16 15q-2 -2 -2 -6q0 -2 -1 -3.5t-1 -3.5v-8q-4 -6 0 -10q0 -4 1 -5t1 -3q2 -6 8 -6 q2 -2 9 -2q6 0 10 2l8 4l10 6l15 8l37 31l20 20l-6 -14q-4 -8 -4 -23v-6q4 -4 6 -4q0 -2 6 -2q2 0 10 4q4 2 7.5 3t7.5 5l12 9l12 12q4 2 13 10q6 4 11 10.5t11 12.5l21 24q2 2 2 4q-2 2 -5 2q-4 0 -8 -4l-4 -6l-14 -16l-12 -15q-4 -4 -7.5 -7t-7.5 -7l-16 -14l-8 -6l-11 -5 l-2 -2q-2 0 -4 2h2l9 17l4 8t6 8l8 13q4 4 8 12l74 108q12 12 16 21l19 18l43 49q10 12 19 24.5t20 25.5l12 20v10q-2 2 -10 2q-4 0 -13 -4q-4 0 -7 -2t-7 -4q-8 -4 -12 -8l-10 -8q-6 -4 -12.5 -9.5t-12.5 -11.5l-21 -22q-8 -8 -20 -25q-4 -8 -16 -24q-10 -12 -17.5 -24.5 t-15.5 -25.5l-31 -51l-22 -39l-9 -18q-2 0 -2 -2l-16 -17q-4 -6 -10 -11t-13 -11l-22 -21l-10 -8l-9 -6l-4 -2l-6 -4h-6h-4l6 12l6 10q0 2 1 2.5t1 2.5l2 2q4 8 9.5 15t11.5 15q4 8 9 16.5t11 16.5l17 25l8 14q4 4 8 12l2 2l2 2q0 2 1 2t1 3l2 2q6 4 4 8q0 2 -8 2l-12 -4 l-12 -6l-21 -15l-8 -8l-8 -8q0 8 -2 12q0 4 -8 8q-12 2 -25 0q-12 -4 -27 -10q-16 -6 -26 -14q-8 -4 -13.5 -9.5l-9.5 -9.5q-29 -23 -43 -45q-18 -23 -24 -43q-2 0 -2 -1t-3 -1q-4 -4 -9 -10t-11 -10q-8 -8 -25 -21q-6 -6 -14 -8q-8 -4 -12 -4h-4q-2 2 0 4l8 10l6 11l14 16 l25 33q6 8 12 15t10 17l11 21q4 12 2 18q0 6 -2 9q-4 4 -8 4q-6 0 -11 -2l-14 -7l-14 -8q-8 -8 -13 -10q-8 -8 -12 -10q-8 -8 -12 -10l-25 -25q-6 -6 -12 -11t-10 -12l-13 -14l-12 -12l4 6l29 41l31 43q0 2 1 2t1 2q2 2 2 4q2 4 2 8l-6 6q-2 0 -3.5 1.5t-5.5 1.5 q-2 0 -4 -1.5t-6 -1.5l-12 -6l-6 -6q-4 -2 -4 -4t-2 -4l-7 -8l-90 -156q-2 -2 -2 -8zM1329 27q0 10 4 26q2 12 13 23q12 12 22 16q8 4 29 4q20 0 30 -4q4 -4 9.5 -6t9.5 -6q10 -12 14 -25q4 -12 4 -28q0 -20 -8 -35q-6 -14 -22 -25q-16 -10 -37 -10q-23 0 -39 10 q-12 10 -23 27q-6 14 -6 33zM1331 -205h35v-20q14 25 41 24q13 0 25 -6q10 -4 14 -14q6 -12 6 -25v-92h-35v80q0 16 -4 20q-2 6 -18 7q-14 0 -21 -9q-6 -10 -6 -22v-76h-37v133zM1364 27q0 -14 8 -27q4 -12 25 -12q20 0 24 12q8 8 9 27q0 20 -9 28q-6 12 -24 13 q-18 0 -25 -13q-8 -12 -8 -28zM1425 696h125v49h-2q-4 -4 -4 -7t-2 -7q-4 -4 -4 -10q-2 -2 -6 -8q-8 -8 -14 -11q-4 -4 -17 -4h-28v86q0 10 6 15q4 4 14 4h8v4h-76v-4h7q18 0 18 -19v-65q0 -20 -18 -21h-7v-2zM1477 -295h34q0 -18 31 -18q10 0 17 2q4 8 4 10q0 8 -15 10 l-30 8q-6 2 -13.5 5.5t-11.5 7.5q-12 8 -12 24q0 12 6 23q4 8 18 16q8 6 29 6q12 0 21.5 -2t17.5 -6q12 -6 16 -16l4 -11v-10h-34q0 10 -7 15q-2 2 -16 2q-20 0 -20 -13q0 -6 12 -8l31 -8q12 -2 28 -12q10 -6 10 -25q0 -12 -6 -24q-8 -10 -20 -17q-8 -4 -31 -4h-12 q-8 0 -12 2q-12 4 -21 8q-12 8 -14 15q-4 12 -4 20zM1489 -39v133h33v-18q14 20 41 20q18 0 24 -4l17 -14q6 -12 6 -25v-92h-35v80q0 8 -4 20q-6 6 -21 7q-14 0 -20 -9q-4 -6 -4 -22v-76h-37zM1542 1090l2 4q0 2 2 4q4 8 8 12l9 12q2 4 4 7.5t4 7.5t10 12l21 29l30 36l8 11 l9 8l10 6q4 2 10 2q4 2 10 2l7 -4q0 -2 1 -3t1 -5t-2 -8q0 -4 -5 -9l-18 -24l-16 -27l-19 -18l-18 -21q-4 -2 -13 -10l-14 -12q-8 -4 -12 -8q-4 -2 -6 -4.5t-6 -2.5q-8 -4 -13 -2h-2q-2 2 -2 5zM1544 803h2q12 0 17 -2l6 -6t4 -7l35 -45v-24q0 -10 -4 -14q-4 -2 -8.5 -4.5 t-8.5 -2.5h-6v-2h78v2h-8q-8 0 -15 7q-6 2 -6 14v26l29 39l6 9q8 4 10 4q2 4 6 4q4 2 11 2v4h-56v-4h6q10 0 13 -2q4 -2 4 -8q0 -4 -6 -13l-23 -30l-28 36q-4 8 -5 9v2q0 4 2 4q0 2 7 2h10v4h-72v-4zM1624 -301h37v-37h-37v37zM1626 70v24h21v35h32v-35h23v-24h-23v-72 q0 -4 1 -6t1 -4q4 0 6.5 -1t6.5 -1l4 2h4v-27h-23q-16 0 -20 4q-10 0 -12 8v97h-21zM1686 -274q0 29 12 51q16 23 47 22q18 0 31 -6q14 -4 20 -18q10 -10 10 -27h-37q0 6 -4 14q-4 7 -16 7q-16 0 -20 -11q-8 -8 -9 -26q0 -18 2 -25q2 -10 9 -14q4 -4 16 -4q10 0 16 4 q6 6 6 18h37q0 -10 -8 -26q-6 -10 -20 -19q-12 -6 -33 -6q-27 0 -43 14q-8 8 -14 21q-2 8 -2 31zM1784 -2q0 20 10 29q12 8 29 12l30 4q12 2 13 10q0 16 -21 17q-8 0 -16 -4q-6 -2 -8 -17h-33q2 18 8 29q4 8 19 14q8 4 14 4h16q27 0 37 -4l8 -8t6 -8q4 -12 5 -17v-86 q0 -6 8 -6v-6h-39q-2 0 -2 2v2v2q0 4 -1 6t-1 4q-4 -6 -11 -10q-4 -2 -7 -4t-5 -2l-9 -3t-9 -1t-19 4q-4 4 -8 6t-8 6q-6 8 -6 25zM1819 -2q0 -10 4 -10q4 -4 12 -4h8h2l4 2q8 4 13 8q4 8 4 16v17q-6 -6 -15 -7l-16 -4q-6 0 -12 -6q-4 -2 -4 -12zM1823 -272q0 18 4 26 q2 8 5 13.5t7 11.5q12 12 23 14q8 6 28 6q16 0 29 -6q9 -2 23 -12q4 -4 6 -10.5t6 -12.5q4 -8 4 -30q0 -20 -8 -35q-6 -14 -23 -25q-14 -8 -37 -8q-27 0 -39 10q-14 10 -22 25q-6 14 -6 33zM1860 -272q0 -14 6 -27q6 -12 24 -12q19 0 25 12q4 6 5 13t1 14q0 23 -6 30 q-6 10 -25 11q-18 0 -24 -11q-6 -12 -6 -30zM1894 1329l33 45l17 27l30 41l2 2q0 4 4 4q0 2 2 2q2 2 3 0q0 -4 -5 -12l-8 -13l-8 -10q-4 -8 -8 -10l-19 -25l-20 -24l-12 -15q-2 -4 -11 -12zM1917 70v24h16v35h37v-35h23v-24h-23v-72q0 -4 1 -6t1 -4q2 0 4 -1t6 -1l7 2h4v-27 h-23q-16 0 -22 4q-8 0 -11 8q0 4 -2 7.5t-2 7.5v82h-16zM1982 -205h33v-20q14 25 39 24q16 0 23 -6q8 -4 14 -16q4 8 16 16q6 6 21 6q16 0 24 -8q13 -6 15 -16q6 -6 6 -21v-92h-35v80q0 27 -20 27q-23 0 -23 -27v-80h-35v80q0 10 -2 12q0 6 -6 13q-4 2 -12 2q-23 0 -23 -25 v-82h-35v133z" />
<glyph unicode="+" horiz-adv-x="2322" d="M135 -205h37l21 -96l18 96h37l18 -96l23 96h35l-37 -127v-6h-37l-21 96l-20 -96h-37l-37 129v4zM205 625v579l315 68l-12 43l47 14l-10 47l49 10l-6 52l47 4v47h43l4 43l47 -6l8 47l51 -8l13 47l45 -13l18 43l47 -18l25 45l43 -22l25 41l43 -29l30 39l39 -31l33 33 l31 -29l30 27l31 -35l41 27l27 -43l45 24l22 -41l43 19l21 -47l49 14l14 -45l45 10l11 -49l51 4l2 -31l473 103v-580l-217 -47l4 -4l-27 -31l27 -33l-37 -30l27 -41l-43 -27l26 -43l-43 -24l19 -43l-47 -21l16 -49l-45 -14l8 -46l-49 -10l4 -51l-47 -4v-47h-41l-6 -43l-45 4 l-10 -45l-50 8l-14 -47l-45 14l-16 -47l-50 21l-22 -45l-43 22l-27 -41l-43 27l-28 -37l-37 31l-35 -33l-31 29l-33 -29l-28 37l-41 -27l-29 43l-43 -24l-22 41l-45 -19l-21 47l-47 -14l-14 45l-47 -10l-11 49l-49 -4l-6 47h-47v43l-41 4l4 47l-47 8l10 49l-49 15l14 45 l-32 12zM330 -205h35l22 -96l19 96h34l21 -96l20 96h37l-37 -127l-2 -6h-35l-22 96l-21 -96h-36l-35 129v4zM334 51q0 12 2 19q0 4 2 9t2 9q2 14 16 29q4 6 11.5 11t15.5 9q10 4 19.5 6t19.5 2h6q6 0 18 -4q6 0 10.5 -2t8.5 -4q14 -8 24 -22q4 -6 9 -15q2 -4 2 -12h-39 q0 6 -4 10q-2 6 -13 13q-10 6 -20 6q-6 0 -10 -2h-8l-17 -13q-4 -4 -7 -8t-5 -10q-4 -10 -4 -33q0 -18 6 -33q2 -14 14 -18q6 -4 11.5 -6t11.5 -4h6q14 0 20 6q8 0 15 10q4 6 7 11t3 12h-43v32h76v-98h-25l-4 23q-6 -10 -16 -17q-6 -4 -11.5 -5t-9.5 -5q-6 0 -11 -1t-11 -1 q-18 0 -29 8q-17 7 -25 19q-12 12 -18 30t-6 39zM334 788q0 -2 2 -4h10l10 7l13 12l8 12l12 12q2 4 10 13l74 102q6 10 12.5 17.5t10.5 17.5l24 37q6 10 12.5 18t10.5 19q6 10 11 18t9 18q2 6 0 9q-2 2 -6 2q-8 0 -10 -2l-10 -6l-21 -23l-18 -25q-10 -10 -17 -22l-18 -23 l-66 -94l-30 -49q-8 -12 -14.5 -24.5t-12.5 -24.5l-4 -6q0 -2 -1 -3t-1 -3v-5zM383 1004q2 -8 12 -15l21 -6q16 0 26 2q4 0 7 2q2 2 2 4t-2 2h-7q-4 0 -4 -2q-20 -2 -35 4q-8 4 -10 9q-4 8 -4 12q0 8 2 14l8 17l21 22q4 4 11 9t13 9q8 4 14.5 8.5t14.5 8.5t15.5 7t15.5 7 q8 2 15 4t18 6l32 7q20 4 31 4q10 0 27 -4q4 -2 9 -3.5t9 -5.5l10 -14q2 -6 2 -20q0 -6 -4 -23l-12 -22q-4 -8 -16 -25q-4 -6 -10.5 -11t-12.5 -12q-4 -6 -11 -11t-13 -11l-27 -16l-29 -13l-16 -6q-6 0 -14 -4h-7q-4 0 -6 -2q-4 0 -4 -2q-4 0 -4 -4q0 -2 2 -2h6q4 0 6 2h7 l30 10l31 12l31 15l30 18l27 19l25 22l20 23q4 6 7 12t5 12q6 12 7 23q2 12 0 20q-4 12 -9 19q-8 6 -16 10q-12 6 -23 6q-10 2 -28 2q-8 0 -29 -4q-16 -2 -32.5 -6t-32.5 -8t-32 -11.5t-32 -15.5q-8 -4 -15 -8t-16 -10q-16 -10 -26 -21q-8 -6 -21 -22l-10 -23q-2 -12 0 -20z M522 31q0 10 1 17t5 15q6 16 21 25q8 6 17 7t20 1q27 0 35 -8q12 -8 20 -27q4 -10 5 -18t1 -18v-9h-92q0 -12 10 -22q6 -8 23 -8q6 0 14 4q8 8 8 10h37q-4 -10 -12 -23q-6 -4 -11.5 -8t-9.5 -6q-8 -2 -13 -4t-13 -2q-66 0 -66 74zM522 -205h37l21 -96l18 96h37l18 -96l21 96 h37l-37 -127l-2 -6h-35l-21 96l-22 -96h-35l-37 129v4zM559 41h53q-4 12 -8 20q-4 4 -8 6.5t-10 2.5q-23 0 -27 -29zM641 803h2q23 0 23 -19v-55q0 -14 12 -27l18 -6q6 -2 23 -2q16 0 29 4q8 4 12 9q10 8 10 26v58l10 10h2l2 2h9v4h-56v-4h13q2 0 3 -1t3 -1q12 -6 12 -27 v-39q0 -16 -10 -26l-15 -11h-18q-14 0 -20 4q-4 0 -13 9q-4 4 -4 18v55q0 12 4 15q4 4 17 4h8v4h-76v-4zM657 70v24h19v35h35v-35h20v-24h-20v-72q0 -8 2 -10q2 0 5 -1t7 -1l4 2h2v-27h-20q-16 0 -23 4q-8 0 -10 8q-2 4 -2 15v82h-19zM657 924q2 -6 11 -15q12 -8 26 -6 q16 0 33 6q18 6 37 19q18 8 37 24l28 25l17 18q0 2 4 6q0 4 4 5l4 8l19 18l18 25q6 6 11 12t9 12l9 -4l4 -6q2 -4 2 -8q0 -2 -8 -10l-19 -21l-16 -22l-15 -23l-6 -20q-2 -4 -2 -11v-8q4 -6 6 -8t9 -2q4 0 20 4l19 12q16 12 24 21q6 4 11 10t10 10q8 8 10 13l10 12l4 6l6 6 q4 4 4 6l15 19l24 35q0 -4 1 -8.5t1 -8.5q4 -12 4 -16l5 -8q-20 -8 -29 -15l-23 -18q-12 -12 -14 -21q-4 -8 -4 -20q2 -6 12 -10q7 -2 23 -2q14 2 28 10q14 6 27 18q10 6 18 21l11 20q6 12 6 23v18q0 6 -4 19l-8 18l-7 8q0 4 -4 8q0 2 -4 7v6q2 2 2 4h-10l-4 -4 q-6 -2 -14 -11l-7 -14l-2 -2l-6 -8l-37 -51l-6 -8l-6 -11l-2 -2v-2q-2 0 -4 -2l-6 -10l-6 -8l-19 -23l-24 -22q-6 -6 -15 -9q-8 -4 -14 -4h-2l2 2l8 13l8 10l9 12q4 2 8 10l10 17l10 18l6 17q2 6 2 16q-2 2 -2 8l-4 6q0 4 -2 7v26l8 12q4 10 -4 15q-6 6 -20 0q-14 -4 -19 -8 q-8 -6 -12 -15q-4 -8 -4 -14q0 -8 2 -12l4 -4l4 -5l-6 -8l-6 -6l-29 -37l-22 -26q-2 0 -6 -4v-3l-2 -2q0 -2 -2 -2l-13 -16q-8 -8 -15 -15.5t-18 -13.5q-20 -16 -38 -24q-4 -4 -10.5 -5t-12.5 -5q-16 -4 -22 -3q-8 0 -9 5q-2 2 -2 8q0 2 4 10l4 10l13 21q8 -4 14 -4 q12 0 21 2q14 2 30 12q10 4 29 18l18 19q4 4 7.5 9t5.5 9l8 17q0 12 -4 16q-4 6 -10 10q-6 2 -21 2q-4 -2 -10 -2t-12 -4q-8 -2 -25 -10q-27 -12 -51 -33q-23 -18 -35 -41q-6 -6 -14 -22q-6 -10 -9 -23v-20zM711 -301h37v-37h-37v37zM723 983l18 25l21 24l8 10q4 4 6 5.5 t4 5.5l13 10l14 6q10 2 16 0q2 -4 0 -12l-6 -10q-4 -4 -8 -13q-4 -4 -5 -6t-5 -4q-2 -4 -11 -12q-4 -6 -10 -11q-8 -8 -12 -10l-14 -8q-12 -4 -15 -4q-6 0 -14 4zM780 -205h33v-20q12 25 39 24q14 0 20 -6q10 -4 17 -16q4 10 14 16q8 6 21 6q16 0 26 -8q8 -6 15 -16 q4 -4 4 -21v-92h-33v80q0 27 -21 27q-23 0 -22 -27v-80h-37v92q0 6 -6 13q-4 2 -14 2q-23 0 -23 -25v-82h-33v133zM807 776q0 -6 6 -12q0 -2 6 -8l15 -6q2 -2 8 -3.5t16 -5.5l8 -2q12 -4 17 -4q4 0 8 -4q2 0 4 -2q6 -6 6 -12q0 -2 -4 -10q-2 -2 -10 -9h-13q-12 0 -18 2 l-20 9l-13 12q-10 14 -10 24h-4v-51h4q0 8 4 8q4 4 10 5q2 0 2 -1t5 -1q2 0 3 -1.5t5 -1.5l16 -6q4 -2 16 -2q6 0 19 4q4 0 7 2t7 7q4 2 4 4t4 6v22l-6 9q-6 4 -14 8l-21 8h-12l-2 2l-16 4q-4 2 -6 2t-4 2q-2 0 -7 4q-4 4 -4 8q0 6 2 9q0 -2 4 6l9 4q4 0 6 1t6 1q8 0 16 -4 q10 0 17 -6q8 -4 12 -9q4 -4 5 -9t5 -11h4v37h-4q-2 -8 -8 -8t-10 2q-20 10 -37 10q-10 0 -23 -4l-14 -10q-6 -10 -6 -19zM809 70v24h18v10q0 37 39 37h19v-26h-11q-6 0 -8 -2q-4 0 -4 -4v-15h23v-24h-23v-109h-35v109h-18zM905 6v88h35v-82q0 -25 23 -24q8 0 12 2t12 10 q0 4 2 8t2 8v78h33v-133h-33v19q-6 -10 -16 -15q-16 -8 -25 -8q-20 0 -32 14q-12 12 -13 35zM928 696h119v45q-4 -4 -4.5 -7t-2.5 -7l-12 -16q-6 -6 -10 -6l-10 -5q-6 -2 -15 -2h-18v50h2q14 0 22 -9l5 -6q0 -2 1 -3t1 -5q2 -4 2 -10h2v71h-2v-10l-7 -12q-10 -12 -20 -12h-6 v51h20q18 0 25 -2l10 -8l6 -13l6 -16h5v43h-119v-4h4q10 0 12 -4q6 -4 6 -15v-65q0 -20 -18 -21h-4v-2zM987 979v10l4 12l8 11q10 12 23 20l27 12q0 -4 1 -6t1 -6q-2 -4 -2 -10q0 -4 -1 -6t-1 -6l-5 -11q-2 -4 -10 -12l-8 -6q-4 -4 -10 -4q-2 -2 -10 -2q-4 -4 -9 0 q-4 0 -8 4zM991 -303q0 20 13 31q8 8 26 12l33 4q10 4 10 10q0 16 -20 17q-4 0 -8.5 -1t-8.5 -1q-2 -4 -4 -8.5t-2 -8.5h-33q0 14 7 27q12 12 20 14l12 4q4 0 8.5 1t8.5 1q27 0 37 -8q10 -6 16 -14q2 -6 2 -17v-71q0 -11 2 -15q0 -6 6 -6v-6h-37q0 2 -2 4v2q-2 4 -2 10 q-8 -8 -12 -10l-12 -6q-4 -2 -17 -2q-14 0 -18 2q-10 2 -17 14q-8 6 -8 21zM1026 -301q0 -8 6 -10q4 -4 12 -4h7q2 0 3 1t3 1l12 8q4 4 4 14v19q-6 -6 -12 -7l-17 -2l-12 -6q-6 -6 -6 -14zM1057 -39v180h35v-180h-35zM1118 -39v180h33v-180h-33zM1120 752q0 -16 4 -23 q8 -12 15 -18q4 -4 10 -6.5t12 -6.5q16 -4 25 -4q23 0 33 8q12 7 24 21q8 10 8 29q0 12 -4 20t-12 19q-10 10 -23 12q-12 6 -26 6q-23 0 -33 -8q-10 -4 -15 -9.5t-10 -11.5q-8 -14 -8 -28zM1126 -205h37l21 -96l18 96h35l20 -96l23 96h35l-37 -127v-6h-37l-20 96l-21 -96 h-37l-37 129v4zM1133 1018q0 -6 4 -10t12 -9q4 0 6 -1t6 1h15q10 2 30 11l31 16l27 23l22 20l17 23l12 20l6 21q2 12 0 18q0 6 -6 12q-2 4 -12 8q-4 0 -8.5 1.5t-8.5 1.5q-6 0 -22 -5q-2 0 -15 -4l-14 -6l-29 -18q-8 -4 -14 -10.5t-12 -10.5l-21 -22l-14 -23 q-10 -17 -12 -31q-4 -14 0 -26zM1147 752q0 4 1 9t1 9l6 14q6 10 8 13q0 2 11 6q8 4 14 4q2 0 3 -1t5 -1l8 -4l10 -10q2 -4 4.5 -8.5t4.5 -10.5q0 -4 1 -9t1 -11q0 -12 -4 -29q-6 -12 -15 -21q-6 -4 -20 -4q-12 0 -15 4q-8 0 -14 11l-6 16q-4 12 -4 23zM1159 1020q0 4 2 6 q4 16 10 25q12 16 17 24l12 15l10 12l19 24q6 6 11 12.5t11 10.5l11 8l12 6q4 2 10 2q4 0 6 -4q2 -2 2 -8q0 -4 -4 -12l-6 -11l-6 -12q-4 -8 -8 -12l-8 -12q-4 -6 -8.5 -12.5t-8.5 -10.5l-18 -22l-23 -23q-6 -6 -12 -8q-6 -6 -14 -8q-5 -2 -11 -2l-4 4q-2 2 -2 8zM1241 70 v24h19v10q0 37 38 37h17v-26h-8q-8 0 -9 -2q-2 0 -4 -4v-15h25v-24h-25v-109h-34v109h-19zM1268 696h57v2q-6 0 -10 2q-4 0 -5 1t-5 1l-7 11q-2 2 -2 14v66l95 -97h4v78q0 12 6 23q2 6 18 6v4h-55v-4h10q0 -2 4 -2q8 -8 8 -10q4 -4 5 -17v-47l-78 80h-43v-4h2q8 0 10 -2 q4 0 5 -2t3 -2q2 -4 2 -11v-63q0 -8 -2 -12q-2 -6 -8 -9q-8 -4 -14 -4v-2zM1290 1022q2 0 3 -1t3 -1q6 0 11 2l10 6q0 2 4 6l4 4l6 6q0 2 4 7l21 24l22 25l21 24l24 25l25 22l10 11q4 2 12 10l13 8l14 6q2 0 2 -2h-2l-6 -6q-2 -6 -8 -8l-6 -8l-15 -17q-6 -6 -14 -18 q-12 -16 -16 -25l-17 -24q-4 -6 -8 -23q-4 -10 0 -18t10 -8q12 0 21 2q6 2 12 6t14 8q12 6 23 16l24 23l2 2q-2 -2 -2 -6q0 -8 5 -17q4 -8 12 -10q6 -2 22 2q20 8 29 15l25 18l8 8l8 8l16 15q-2 -2 -2 -6q0 -2 -1 -3.5t-1 -3.5v-8q-4 -6 0 -10q0 -4 1 -5t1 -3q2 -6 8 -6 q2 -2 9 -2q6 0 10 2l8 4l10 6l15 8l37 31l20 20l-6 -14q-4 -8 -4 -23v-6q4 -4 6 -4q0 -2 6 -2q2 0 10 4q4 2 7.5 3t7.5 5l12 9l12 12q4 2 13 10q6 4 11 10.5t11 12.5l21 24q2 2 2 4q-2 2 -5 2q-4 0 -8 -4l-4 -6l-14 -16l-12 -15q-4 -4 -7.5 -7t-7.5 -7l-16 -14l-8 -6l-11 -5 l-2 -2q-2 0 -4 2h2l9 17l4 8t6 8l8 13q4 4 8 12l74 108q12 12 16 21l19 18l43 49q10 12 19 24.5t20 25.5l12 20v10q-2 2 -10 2q-4 0 -13 -4q-4 0 -7 -2t-7 -4q-8 -4 -12 -8l-10 -8q-6 -4 -12.5 -9.5t-12.5 -11.5l-21 -22q-8 -8 -20 -25q-4 -8 -16 -24q-10 -12 -17.5 -24.5 t-15.5 -25.5l-31 -51l-22 -39l-9 -18q-2 0 -2 -2l-16 -17q-4 -6 -10 -11t-13 -11l-22 -21l-10 -8l-9 -6l-4 -2l-6 -4h-6h-4l6 12l6 10q0 2 1 2.5t1 2.5l2 2q4 8 9.5 15t11.5 15q4 8 9 16.5t11 16.5l17 25l8 14q4 4 8 12l2 2l2 2q0 2 1 2t1 3l2 2q6 4 4 8q0 2 -8 2l-12 -4 l-12 -6l-21 -15l-8 -8l-8 -8q0 8 -2 12q0 4 -8 8q-12 2 -25 0q-12 -4 -27 -10q-16 -6 -26 -14q-8 -4 -13.5 -9.5l-9.5 -9.5q-29 -23 -43 -45q-18 -23 -24 -43q-2 0 -2 -1t-3 -1q-4 -4 -9 -10t-11 -10q-8 -8 -25 -21q-6 -6 -14 -8q-8 -4 -12 -4h-4q-2 2 0 4l8 10l6 11l14 16 l25 33q6 8 12 15t10 17l11 21q4 12 2 18q0 6 -2 9q-4 4 -8 4q-6 0 -11 -2l-14 -7l-14 -8q-8 -8 -13 -10q-8 -8 -12 -10q-8 -8 -12 -10l-25 -25q-6 -6 -12 -11t-10 -12l-13 -14l-12 -12l4 6l29 41l31 43q0 2 1 2t1 2q2 2 2 4q2 4 2 8l-6 6q-2 0 -3.5 1.5t-5.5 1.5 q-2 0 -4 -1.5t-6 -1.5l-12 -6l-6 -6q-4 -2 -4 -4t-2 -4l-7 -8l-90 -156q-2 -2 -2 -8zM1329 27q0 10 4 26q2 12 13 23q12 12 22 16q8 4 29 4q20 0 30 -4q4 -4 9.5 -6t9.5 -6q10 -12 14 -25q4 -12 4 -28q0 -20 -8 -35q-6 -14 -22 -25q-16 -10 -37 -10q-23 0 -39 10 q-12 10 -23 27q-6 14 -6 33zM1331 -205h35v-20q14 25 41 24q13 0 25 -6q10 -4 14 -14q6 -12 6 -25v-92h-35v80q0 16 -4 20q-2 6 -18 7q-14 0 -21 -9q-6 -10 -6 -22v-76h-37v133zM1364 27q0 -14 8 -27q4 -12 25 -12q20 0 24 12q8 8 9 27q0 20 -9 28q-6 12 -24 13 q-18 0 -25 -13q-8 -12 -8 -28zM1425 696h125v49h-2q-4 -4 -4 -7t-2 -7q-4 -4 -4 -10q-2 -2 -6 -8q-8 -8 -14 -11q-4 -4 -17 -4h-28v86q0 10 6 15q4 4 14 4h8v4h-76v-4h7q18 0 18 -19v-65q0 -20 -18 -21h-7v-2zM1477 -295h34q0 -18 31 -18q10 0 17 2q4 8 4 10q0 8 -15 10 l-30 8q-6 2 -13.5 5.5t-11.5 7.5q-12 8 -12 24q0 12 6 23q4 8 18 16q8 6 29 6q12 0 21.5 -2t17.5 -6q12 -6 16 -16l4 -11v-10h-34q0 10 -7 15q-2 2 -16 2q-20 0 -20 -13q0 -6 12 -8l31 -8q12 -2 28 -12q10 -6 10 -25q0 -12 -6 -24q-8 -10 -20 -17q-8 -4 -31 -4h-12 q-8 0 -12 2q-12 4 -21 8q-12 8 -14 15q-4 12 -4 20zM1489 -39v133h33v-18q14 20 41 20q18 0 24 -4l17 -14q6 -12 6 -25v-92h-35v80q0 8 -4 20q-6 6 -21 7q-14 0 -20 -9q-4 -6 -4 -22v-76h-37zM1542 1090l2 4q0 2 2 4q4 8 8 12l9 12q2 4 4 7.5t4 7.5t10 12l21 29l30 36l8 11 l9 8l10 6q4 2 10 2q4 2 10 2l7 -4q0 -2 1 -3t1 -5t-2 -8q0 -4 -5 -9l-18 -24l-16 -27l-19 -18l-18 -21q-4 -2 -13 -10l-14 -12q-8 -4 -12 -8q-4 -2 -6 -4.5t-6 -2.5q-8 -4 -13 -2h-2q-2 2 -2 5zM1544 803h2q12 0 17 -2l6 -6t4 -7l35 -45v-24q0 -10 -4 -14q-4 -2 -8.5 -4.5 t-8.5 -2.5h-6v-2h78v2h-8q-8 0 -15 7q-6 2 -6 14v26l29 39l6 9q8 4 10 4q2 4 6 4q4 2 11 2v4h-56v-4h6q10 0 13 -2q4 -2 4 -8q0 -4 -6 -13l-23 -30l-28 36q-4 8 -5 9v2q0 4 2 4q0 2 7 2h10v4h-72v-4zM1624 -301h37v-37h-37v37zM1626 70v24h21v35h32v-35h23v-24h-23v-72 q0 -4 1 -6t1 -4q4 0 6.5 -1t6.5 -1l4 2h4v-27h-23q-16 0 -20 4q-10 0 -12 8v97h-21zM1686 -274q0 29 12 51q16 23 47 22q18 0 31 -6q14 -4 20 -18q10 -10 10 -27h-37q0 6 -4 14q-4 7 -16 7q-16 0 -20 -11q-8 -8 -9 -26q0 -18 2 -25q2 -10 9 -14q4 -4 16 -4q10 0 16 4 q6 6 6 18h37q0 -10 -8 -26q-6 -10 -20 -19q-12 -6 -33 -6q-27 0 -43 14q-8 8 -14 21q-2 8 -2 31zM1784 -2q0 20 10 29q12 8 29 12l30 4q12 2 13 10q0 16 -21 17q-8 0 -16 -4q-6 -2 -8 -17h-33q2 18 8 29q4 8 19 14q8 4 14 4h16q27 0 37 -4l8 -8t6 -8q4 -12 5 -17v-86 q0 -6 8 -6v-6h-39q-2 0 -2 2v2v2q0 4 -1 6t-1 4q-4 -6 -11 -10q-4 -2 -7 -4t-5 -2l-9 -3t-9 -1t-19 4q-4 4 -8 6t-8 6q-6 8 -6 25zM1819 -2q0 -10 4 -10q4 -4 12 -4h8h2l4 2q8 4 13 8q4 8 4 16v17q-6 -6 -15 -7l-16 -4q-6 0 -12 -6q-4 -2 -4 -12zM1823 -272q0 18 4 26 q2 8 5 13.5t7 11.5q12 12 23 14q8 6 28 6q16 0 29 -6q9 -2 23 -12q4 -4 6 -10.5t6 -12.5q4 -8 4 -30q0 -20 -8 -35q-6 -14 -23 -25q-14 -8 -37 -8q-27 0 -39 10q-14 10 -22 25q-6 14 -6 33zM1860 -272q0 -14 6 -27q6 -12 24 -12q19 0 25 12q4 6 5 13t1 14q0 23 -6 30 q-6 10 -25 11q-18 0 -24 -11q-6 -12 -6 -30zM1894 1329l33 45l17 27l30 41l2 2q0 4 4 4q0 2 2 2q2 2 3 0q0 -4 -5 -12l-8 -13l-8 -10q-4 -8 -8 -10l-19 -25l-20 -24l-12 -15q-2 -4 -11 -12zM1917 70v24h16v35h37v-35h23v-24h-23v-72q0 -4 1 -6t1 -4q2 0 4 -1t6 -1l7 2h4v-27 h-23q-16 0 -22 4q-8 0 -11 8q0 4 -2 7.5t-2 7.5v82h-16zM1982 -205h33v-20q14 25 39 24q16 0 23 -6q8 -4 14 -16q4 8 16 16q6 6 21 6q16 0 24 -8q13 -6 15 -16q6 -6 6 -21v-92h-35v80q0 27 -20 27q-23 0 -23 -27v-80h-35v80q0 10 -2 12q0 6 -6 13q-4 2 -12 2q-23 0 -23 -25 v-82h-35v133z" />
<glyph unicode="," horiz-adv-x="262" d="M0 -127v291h160v-127l-74 -164h-86z" />
<glyph unicode="-" horiz-adv-x="403" d="M0 412v159h301v-159h-301z" />
<glyph unicode="." horiz-adv-x="245" d="M0 0v201h143v-201h-143z" />
<glyph unicode="/" horiz-adv-x="526" d="M-16 0l368 1309h172l-358 -1309h-182z" />
<glyph unicode="0" d="M0 313v684q0 141 72.5 227.5t191.5 86.5t191.5 -86t72.5 -228v-684q0 -141 -72.5 -227t-191.5 -86t-191.5 86t-72.5 227zM158 313q0 -18 3 -43.5t14 -50t31.5 -42t57.5 -17.5q35 0 55.5 17.5t31.5 42t14.5 50t3.5 43.5v684q0 18 -3.5 44t-14.5 50.5t-31.5 42t-55.5 17.5 q-37 0 -57.5 -17.5t-31.5 -42t-14 -50t-3 -44.5v-684z" />
<glyph unicode="1" horiz-adv-x="423" d="M0 0v160h82v897h-74v104l74 150h158v-1151h82v-160h-322z" />
<glyph unicode="2" d="M0 0q0 123 19.5 211t50 152.5t68.5 111.5t75 88q33 37 61.5 71t49 71.5t33 81.5t12.5 104v106q0 18 -3.5 44t-14.5 50.5t-31.5 42t-55.5 17.5t-56.5 -17.5t-31.5 -42t-13 -50t-3 -44.5v-79h-160v79q0 141 72.5 227.5t191.5 86.5t191.5 -86t72.5 -228v-106 q0 -82 -17 -145.5t-46 -114.5t-64.5 -93t-70.5 -81q-59 -66 -104.5 -130.5t-61.5 -166.5h364v-160h-528z" />
<glyph unicode="3" d="M0 313v80h158v-80q0 -18 3 -43.5t14 -50t31.5 -42t57.5 -17.5q35 0 55.5 17.5t31.5 42t14.5 50t3.5 43.5v111q0 18 -3.5 44t-14.5 50.5t-31.5 42t-55.5 17.5h-80v159h80q35 0 55.5 17.5t31.5 42t14.5 51t3.5 43.5v106q0 18 -3.5 44t-14.5 50.5t-31.5 42t-55.5 17.5 q-37 0 -57.5 -17.5t-31.5 -42t-14 -50t-3 -44.5v-79h-158v79q0 141 72.5 227.5t191.5 86.5t191.5 -86t72.5 -228v-106q0 -147 -79 -234q80 -86 79 -233v-111q0 -141 -72.5 -227t-191.5 -86t-191.5 86t-72.5 227z" />
<glyph unicode="4" horiz-adv-x="610" d="M-31 328l373 977h166v-1305h-160v328h-379zM188 487h160v545z" />
<glyph unicode="5" d="M0 313v80h160v-80q0 -18 3 -43.5t13 -50t31.5 -42t56.5 -17.5t55.5 17.5t31.5 42t14.5 50t3.5 43.5v185q0 18 -3.5 43.5t-14.5 50t-31.5 42t-55.5 17.5h-258l49 662h424v-158h-276l-25 -344h86q119 0 191.5 -86t72.5 -227v-185q0 -141 -72.5 -227t-191.5 -86t-191.5 86 t-72.5 227z" />
<glyph unicode="6" d="M0 299v700q0 141 72.5 227.5t191.5 86.5t191.5 -86t72.5 -228v-79h-157v79q0 18 -3 45t-14.5 51.5t-32 42t-57.5 17.5q-35 0 -56.5 -17.5t-31.5 -42t-13 -51t-3 -45.5v-274l39 53q16 4 32.5 6t32.5 2q119 0 191.5 -86t72.5 -227v-160q0 -141 -72.5 -227t-191.5 -86 q-115 0 -187.5 82t-76.5 217zM160 313q0 -18 3 -43.5t13 -50t31.5 -42t56.5 -17.5q37 0 57.5 17.5t32 42t14.5 50t3 43.5v160q0 18 -3 44t-14.5 50.5t-32 42t-57.5 17.5q-35 0 -56.5 -17.5t-31.5 -42t-13 -50t-3 -44.5v-160z" />
<glyph unicode="7" horiz-adv-x="593" d="M0 1147v160h539l-361 -1307h-158l328 1147h-348z" />
<glyph unicode="8" d="M0 313v111q0 72 20.5 132t57.5 101q-37 41 -57.5 100.5t-20.5 131.5v110q0 141 72.5 227.5t191.5 86.5t191.5 -86t72.5 -228v-110q0 -72 -20.5 -131.5t-56.5 -100.5q37 -41 57 -101t20 -132v-111q0 -141 -72.5 -227t-191.5 -86t-191.5 86t-72.5 227zM160 313 q0 -18 3 -43.5t13 -50t31.5 -42t56.5 -17.5t55.5 17.5t31.5 42t14.5 50t3.5 43.5v111q0 16 -2 39.5t-11.5 47.5t-27 42t-45.5 25h-37q-29 -6 -46.5 -24.5t-26.5 -42.5t-11 -47.5t-2 -39.5v-111zM160 889q0 -16 2 -40t11 -47.5t26.5 -42t46.5 -22.5h37q29 4 46 22.5t26.5 42 t11.5 47t2 40.5v110q0 18 -3.5 45t-14.5 51.5t-31.5 42t-55.5 17.5t-56.5 -17.5t-31.5 -42t-13 -51t-3 -45.5v-110z" />
<glyph unicode="9" d="M0 313v80h158v-80q0 -18 3 -44.5t14 -51t31.5 -42t57.5 -17.5q35 0 55.5 17.5t31.5 42t14.5 51t3.5 44.5v275l-39 -53q-16 -4 -32.5 -6.5t-33.5 -2.5q-119 0 -191.5 86t-72.5 228v159q0 141 72.5 227.5t191.5 86.5q115 0 187.5 -82t76.5 -217v-701q0 -141 -72.5 -227 t-191.5 -86t-191.5 86t-72.5 227zM158 840q0 -18 3 -44t14 -50.5t31.5 -42t57.5 -17.5q35 0 55.5 17.5t31.5 42t14.5 50t3.5 44.5v159q0 18 -3.5 44t-14.5 50.5t-31.5 42t-55.5 17.5q-37 0 -57.5 -17.5t-31.5 -42t-14 -50t-3 -44.5v-159z" />
<glyph unicode=":" horiz-adv-x="266" d="M0 0v160h164v-160h-164zM0 737v160h164v-160h-164z" />
<glyph unicode=";" horiz-adv-x="264" d="M0 -127v291h160v-127l-74 -164h-86zM0 737v160h162v-160h-162z" />
<glyph unicode="&#x3c;" horiz-adv-x="468" d="M0 492l317 305l50 -47l-181 -265l170 -252l-49 -49z" />
<glyph unicode="=" horiz-adv-x="546" d="M0 317v160h444v-160h-444zM0 539v159h444v-159h-444z" />
<glyph unicode="&#x3e;" horiz-adv-x="468" d="M0 233l180 263l-170 254l49 47l308 -305l-318 -308z" />
<glyph unicode="?" d="M0 993q0 53 15.5 109.5t47 102.5t78.5 76t113 30q80 0 133 -28t84 -77t44 -116.5t13 -145.5v-43q0 -59 -20.5 -119.5t-58.5 -107.5q-29 -35 -50.5 -59.5t-39 -50t-29 -57.5t-17.5 -77l-6 -49h-86l-6 49q-6 70 10.5 134.5t61.5 129.5q18 25 32.5 48.5t25.5 50t17.5 58.5 t6.5 73v77q0 20 -5.5 45t-17.5 46.5t-31.5 36t-46.5 14.5q-41 0 -64.5 -21.5t-33.5 -55.5t-12 -75t-2 -78l-154 2zM184 0v164h160v-164h-160z" />
<glyph unicode="@" horiz-adv-x="1021" d="M0 565v183q0 127 33 230t92 177t145.5 114t190.5 40t189 -40t144.5 -114t92.5 -177.5t33 -229.5v-183q0 -78 -10.5 -152.5t-33 -133t-58.5 -93t-89 -34.5q-37 0 -64.5 14t-47 37.5t-33 53.5t-21.5 58q-23 -33 -52.5 -56t-70.5 -23q-100 0 -157.5 63t-40.5 186 q12 88 59 139.5t99.5 84t93.5 54t41 48.5v10q0 12 -2.5 30.5t-9.5 36t-22.5 30t-39.5 12.5q-25 0 -39 -12.5t-22.5 -30t-10.5 -35.5t-2 -31l-145 2q0 117 60 187.5t159 70.5q98 0 158.5 -70.5t60.5 -187.5v-327q0 -72 5 -112t36 -40q14 0 22.5 19.5t12.5 65.5t5 124t1 195 q0 35 -8.5 102.5t-38 134t-90 115.5t-164.5 49t-164.5 -49t-91.5 -115.5t-38 -134.5t-7 -102v-183q0 -25 3 -63.5t13 -82.5t29.5 -90t52.5 -83t83 -60.5t120 -23.5q59 0 114 22l62 -147q-82 -35 -176 -35q-104 0 -190.5 40t-145.5 113.5t-92 177t-33 232.5zM383 489 q-10 -53 14.5 -78.5t63.5 -25.5q27 0 42 13.5t23.5 32t10.5 37.5t2 32v192q-2 -12 -23.5 -27.5t-47.5 -38t-51.5 -55t-33.5 -82.5z" />
<glyph unicode="A" horiz-adv-x="700" d="M0 0l195 1309h208l195 -1309h-162l-45 326h-184l-45 -326h-162zM229 483h142l-49 351l-23 294l-23 -294z" />
<glyph unicode="B" horiz-adv-x="620" d="M0 -2v1309h236q49 0 99 -14.5t91 -55.5t66.5 -112.5t25.5 -184.5q0 -53 -11 -103.5t-30.5 -89t-46.5 -64.5t-57 -30q63 -18 104 -99t41 -189q0 -115 -25.5 -185.5t-66.5 -111.5t-91 -55.5t-99 -14.5h-236zM160 158h76q16 0 37.5 3t41 23.5t32.5 64.5t13 126t-13 124 t-32.5 60.5t-41 19.5t-37.5 1h-76v-422zM160 721h76q16 0 37.5 1t41 19.5t32.5 61.5t13 125t-13 127t-32.5 65.5t-41 23.5t-37.5 3h-76v-426z" />
<glyph unicode="C" d="M0 313v682q0 141 72.5 227.5t191.5 86.5t191.5 -86t72.5 -228v-80h-159v80q0 16 -3.5 43t-14.5 51.5t-31.5 42t-55.5 17.5q-37 0 -57.5 -17.5t-31.5 -42t-14 -51t-3 -43.5v-682q0 -16 3 -42.5t14 -51t31.5 -42t57.5 -17.5q35 0 55.5 17.5t31.5 42t14.5 51t3.5 42.5v80 h159v-80q0 -141 -72.5 -227t-191.5 -86t-191.5 86t-72.5 227z" />
<glyph unicode="D" d="M0 -2v1309h264q119 0 191.5 -86t72.5 -228v-682q0 -141 -72.5 -227t-191.5 -86h-264zM160 158h104q35 0 55.5 17.5t31.5 42t14.5 51t3.5 42.5v682q0 16 -3.5 43t-14.5 51.5t-31.5 42t-55.5 17.5h-104v-989z" />
<glyph unicode="E" horiz-adv-x="501" d="M0 -2v1309h440v-160h-282v-422h202v-158h-202v-409h282v-160h-440z" />
<glyph unicode="F" horiz-adv-x="503" d="M0 0v1309h442v-160h-282v-422h202v-158h-202v-569h-160z" />
<glyph unicode="G" horiz-adv-x="628" d="M0 313v682q0 141 71.5 227.5t190.5 86.5q121 0 192.5 -86t71.5 -228v-80h-157v80q0 16 -3.5 43t-14.5 51.5t-31.5 42t-57.5 17.5q-35 0 -56.5 -17.5t-31.5 -42t-13 -51t-3 -43.5v-682q0 -16 3 -42.5t13 -51t31.5 -42t56.5 -17.5q37 0 57.5 17.5t31.5 42t14.5 51t3.5 42.5 v213h-127v160h284v-373q0 -141 -71.5 -227t-192.5 -86q-119 0 -190.5 86t-71.5 227z" />
<glyph unicode="H" horiz-adv-x="598" d="M0 0v1309h158v-582h178v582h160v-1309h-160v569h-178v-569h-158z" />
<glyph unicode="I" horiz-adv-x="262" d="M0 0v1309h160v-1309h-160z" />
<glyph unicode="J" d="M0 313v80h158v-80q0 -16 3 -42.5t14 -51t31.5 -42t57.5 -17.5q35 0 55.5 17.5t31.5 42t14.5 51t3.5 42.5v996h159v-996q0 -141 -72.5 -227t-191.5 -86t-191.5 86t-72.5 227z" />
<glyph unicode="K" horiz-adv-x="593" d="M0 0v1309h158v-621q27 14 37 45l163 576h162q-25 -72 -51.5 -158t-50 -168t-43 -148.5t-29.5 -97.5q-8 -23 -24.5 -40t-34.5 -29q45 -20 82 -64q39 -45 53 -128t23.5 -174t22.5 -174t54 -128h-162q-18 18 -31.5 64.5t-21.5 104.5t-13 121.5t-11.5 120t-14.5 99.5t-20 57 q-23 23 -46.5 30t-43.5 7v-604h-158z" />
<glyph unicode="L" horiz-adv-x="542" d="M0 0v1309h158v-1149h282v-160h-440z" />
<glyph unicode="M" horiz-adv-x="794" d="M0 -2v1309h158l170 -754l18 -203l19 203l167 754h160v-1309h-160v784l-16 -135l-127 -649h-78l-137 649l-16 135v-784h-158z" />
<glyph unicode="N" horiz-adv-x="647" d="M0 -2v1309h158l194 -693l35 -208v901h158v-1309h-158l-201 709l-28 182v-891h-158z" />
<glyph unicode="O" horiz-adv-x="628" d="M0 311v682q0 141 71.5 227.5t190.5 86.5q121 0 192.5 -86t71.5 -228v-682q0 -141 -71.5 -227t-192.5 -86q-119 0 -190.5 86t-71.5 227zM158 311q0 -16 3 -42.5t13 -51t31.5 -42t56.5 -17.5q37 0 57.5 17.5t31.5 42t14.5 51t3.5 42.5v682q0 16 -3.5 43t-14.5 51.5 t-31.5 42t-57.5 17.5q-35 0 -56.5 -17.5t-31.5 -42t-13 -51t-3 -43.5v-682z" />
<glyph unicode="P" horiz-adv-x="620" d="M0 -2v1309h233q49 0 99.5 -16.5t91.5 -59.5t67.5 -120t26.5 -200t-26.5 -199.5t-67.5 -120.5t-91 -59.5t-100 -15.5h-75v-518h-158zM158 674h75q16 0 38 4t41.5 25.5t32.5 69.5t13 138q0 88 -13 136.5t-32.5 70t-41 25.5t-38.5 4h-75v-473z" />
<glyph unicode="Q" horiz-adv-x="628" d="M0 311v682q0 141 71.5 227.5t192.5 86.5q119 0 190.5 -86t71.5 -228v-682q0 -150 -80 -235l125 -172h-159l-58 110q-43 -16 -90 -16q-121 0 -192.5 86t-71.5 227zM158 311q0 -16 3 -42.5t14 -51t31.5 -42t57.5 -17.5q12 0 17 2l-86 170v92l153 -211q12 27 16.5 54.5 t4.5 45.5v682q0 16 -3.5 43t-14.5 51.5t-31.5 42t-55.5 17.5q-37 0 -57.5 -17.5t-31.5 -42t-14 -51t-3 -43.5v-682z" />
<glyph unicode="R" horiz-adv-x="595" d="M0 0v1309h211q49 0 99 -15.5t91 -57.5t67 -117t26 -193q0 -72 -15.5 -121t-40 -82t-56.5 -49.5t-65 -24.5q47 -27 73 -74t38 -104t16.5 -120.5t11.5 -126t21.5 -121t46.5 -103.5h-162q-20 18 -32.5 64.5t-20.5 104.5t-14 121.5t-12.5 120t-14.5 99.5t-20 57 q-23 23 -46.5 30t-41.5 7v-604h-160zM160 713h51q18 0 39.5 6t40 27.5t32 64.5t13.5 115q0 84 -13.5 129t-32 66.5t-40 24.5t-39.5 3h-51v-436z" />
<glyph unicode="S" d="M0 313v80h160v-80q0 -16 3 -42.5t13 -51t31.5 -42t56.5 -17.5q37 0 57.5 17.5t32 42t14.5 51t3 42.5q0 72 -11.5 117t-32 75t-47 49t-59.5 38q-37 23 -76 50.5t-71.5 72.5t-53 111.5t-20.5 168.5q0 141 72.5 227.5t191.5 86.5t191.5 -86t72.5 -228v-80h-157v80 q0 16 -3 43t-14.5 51.5t-32 42t-57.5 17.5q-35 0 -56.5 -17.5t-31.5 -42t-13 -51t-3 -43.5q0 -68 10 -110.5t28.5 -70.5t45 -47t59.5 -38q37 -23 77 -51.5t72.5 -74.5t54 -115.5t21.5 -174.5q0 -141 -72.5 -227t-191.5 -86t-191.5 86t-72.5 227z" />
<glyph unicode="T" horiz-adv-x="618" d="M0 1149v160h575v-160h-208v-1149h-158v1149h-209z" />
<glyph unicode="U" d="M0 313v996h160v-996q0 -16 3 -42.5t13 -51t31.5 -42t56.5 -17.5t55.5 17.5t31.5 42t14.5 51t3.5 42.5v996h159v-996q0 -141 -72.5 -227t-191.5 -86t-191.5 86t-72.5 227z" />
<glyph unicode="V" horiz-adv-x="659" d="M0 1309h162l114 -834l23 -293l23 295l114 832h162l-195 -1309h-208z" />
<glyph unicode="W" horiz-adv-x="946" d="M0 1307h162l90 -709l35 -379l10 258l65 815v15h160v-15l66 -817l10 -256l35 379l90 709h162l-170 -1307h-209l-64 569l-63 -569h-209z" />
<glyph unicode="X" horiz-adv-x="651" d="M0 -2l197 653l-197 654h162l90 -340l22 -185l23 185l90 340h162l-189 -654l189 -653h-162l-90 340l-23 184l-22 -184l-90 -340h-162z" />
<glyph unicode="Y" horiz-adv-x="651" d="M0 1309h162l90 -385l22 -207l23 209l90 383h162l-195 -762v-545h-159v573z" />
<glyph unicode="Z" horiz-adv-x="620" d="M0 2l350 1149h-321v158h536l-350 -1147h324v-160h-539z" />
<glyph unicode="[" horiz-adv-x="2369" d="M135 -205h37l21 -96l18 96h37l18 -96l23 96h35l-37 -127v-6h-37l-21 96l-20 -96h-37l-37 129v4zM205 625v579l315 68l-12 43l47 14l-10 47l49 10l-6 52l47 4v47h43l4 43l47 -6l8 47l51 -8l13 47l45 -13l18 43l47 -18l25 45l43 -22l25 41l43 -29l30 39l39 -31l33 33 l31 -29l30 27l31 -35l41 27l27 -43l45 24l22 -41l43 19l21 -47l49 14l14 -45l45 10l11 -49l51 4l2 -31l473 103v-580l-217 -47l4 -4l-27 -31l27 -33l-37 -30l27 -41l-43 -27l26 -43l-43 -24l19 -43l-47 -21l16 -49l-45 -14l8 -46l-49 -10l4 -51l-47 -4v-47h-41l-6 -43l-45 4 l-10 -45l-50 8l-14 -47l-45 14l-16 -47l-50 21l-22 -45l-43 22l-27 -41l-43 27l-28 -37l-37 31l-35 -33l-31 29l-33 -29l-28 37l-41 -27l-29 43l-43 -24l-22 41l-45 -19l-21 47l-47 -14l-14 45l-47 -10l-11 49l-49 -4l-6 47h-47v43l-41 4l4 47l-47 8l10 49l-49 15l14 45 l-32 12zM330 -205h35l22 -96l19 96h34l21 -96l20 96h37l-37 -127l-2 -6h-35l-22 96l-21 -96h-36l-35 129v4zM334 51q0 12 2 19q0 4 2 9t2 9q2 14 16 29q4 6 11.5 11t15.5 9q10 4 19.5 6t19.5 2h6q6 0 18 -4q6 0 10.5 -2t8.5 -4q14 -8 24 -22q4 -6 9 -15q2 -4 2 -12h-39 q0 6 -4 10q-2 6 -13 13q-10 6 -20 6q-6 0 -10 -2h-8l-17 -13q-4 -4 -7 -8t-5 -10q-4 -10 -4 -33q0 -18 6 -33q2 -14 14 -18q6 -4 11.5 -6t11.5 -4h6q14 0 20 6q8 0 15 10q4 6 7 11t3 12h-43v32h76v-98h-25l-4 23q-6 -10 -16 -17q-6 -4 -11.5 -5t-9.5 -5q-6 0 -11 -1t-11 -1 q-18 0 -29 8q-17 7 -25 19q-12 12 -18 30t-6 39zM334 788q0 -2 2 -4h10l10 7l13 12l8 12l12 12q2 4 10 13l74 102q6 10 12.5 17.5t10.5 17.5l24 37q6 10 12.5 18t10.5 19q6 10 11 18t9 18q2 6 0 9q-2 2 -6 2q-8 0 -10 -2l-10 -6l-21 -23l-18 -25q-10 -10 -17 -22l-18 -23 l-66 -94l-30 -49q-8 -12 -14.5 -24.5t-12.5 -24.5l-4 -6q0 -2 -1 -3t-1 -3v-5zM383 1004q2 -8 12 -15l21 -6q16 0 26 2q4 0 7 2q2 2 2 4t-2 2h-7q-4 0 -4 -2q-20 -2 -35 4q-8 4 -10 9q-4 8 -4 12q0 8 2 14l8 17l21 22q4 4 11 9t13 9q8 4 14.5 8.5t14.5 8.5t15.5 7t15.5 7 q8 2 15 4t18 6l32 7q20 4 31 4q10 0 27 -4q4 -2 9 -3.5t9 -5.5l10 -14q2 -6 2 -20q0 -6 -4 -23l-12 -22q-4 -8 -16 -25q-4 -6 -10.5 -11t-12.5 -12q-4 -6 -11 -11t-13 -11l-27 -16l-29 -13l-16 -6q-6 0 -14 -4h-7q-4 0 -6 -2q-4 0 -4 -2q-4 0 -4 -4q0 -2 2 -2h6q4 0 6 2h7 l30 10l31 12l31 15l30 18l27 19l25 22l20 23q4 6 7 12t5 12q6 12 7 23q2 12 0 20q-4 12 -9 19q-8 6 -16 10q-12 6 -23 6q-10 2 -28 2q-8 0 -29 -4q-16 -2 -32.5 -6t-32.5 -8t-32 -11.5t-32 -15.5q-8 -4 -15 -8t-16 -10q-16 -10 -26 -21q-8 -6 -21 -22l-10 -23q-2 -12 0 -20z M522 31q0 10 1 17t5 15q6 16 21 25q8 6 17 7t20 1q27 0 35 -8q12 -8 20 -27q4 -10 5 -18t1 -18v-9h-92q0 -12 10 -22q6 -8 23 -8q6 0 14 4q8 8 8 10h37q-4 -10 -12 -23q-6 -4 -11.5 -8t-9.5 -6q-8 -2 -13 -4t-13 -2q-66 0 -66 74zM522 -205h37l21 -96l18 96h37l18 -96l21 96 h37l-37 -127l-2 -6h-35l-21 96l-22 -96h-35l-37 129v4zM559 41h53q-4 12 -8 20q-4 4 -8 6.5t-10 2.5q-23 0 -27 -29zM641 803h2q23 0 23 -19v-55q0 -14 12 -27l18 -6q6 -2 23 -2q16 0 29 4q8 4 12 9q10 8 10 26v58l10 10h2l2 2h9v4h-56v-4h13q2 0 3 -1t3 -1q12 -6 12 -27 v-39q0 -16 -10 -26l-15 -11h-18q-14 0 -20 4q-4 0 -13 9q-4 4 -4 18v55q0 12 4 15q4 4 17 4h8v4h-76v-4zM657 70v24h19v35h35v-35h20v-24h-20v-72q0 -8 2 -10q2 0 5 -1t7 -1l4 2h2v-27h-20q-16 0 -23 4q-8 0 -10 8q-2 4 -2 15v82h-19zM657 924q2 -6 11 -15q12 -8 26 -6 q16 0 33 6q18 6 37 19q18 8 37 24l28 25l17 18q0 2 4 6q0 4 4 5l4 8l19 18l18 25q6 6 11 12t9 12l9 -4l4 -6q2 -4 2 -8q0 -2 -8 -10l-19 -21l-16 -22l-15 -23l-6 -20q-2 -4 -2 -11v-8q4 -6 6 -8t9 -2q4 0 20 4l19 12q16 12 24 21q6 4 11 10t10 10q8 8 10 13l10 12l4 6l6 6 q4 4 4 6l15 19l24 35q0 -4 1 -8.5t1 -8.5q4 -12 4 -16l5 -8q-20 -8 -29 -15l-23 -18q-12 -12 -14 -21q-4 -8 -4 -20q2 -6 12 -10q7 -2 23 -2q14 2 28 10q14 6 27 18q10 6 18 21l11 20q6 12 6 23v18q0 6 -4 19l-8 18l-7 8q0 4 -4 8q0 2 -4 7v6q2 2 2 4h-10l-4 -4 q-6 -2 -14 -11l-7 -14l-2 -2l-6 -8l-37 -51l-6 -8l-6 -11l-2 -2v-2q-2 0 -4 -2l-6 -10l-6 -8l-19 -23l-24 -22q-6 -6 -15 -9q-8 -4 -14 -4h-2l2 2l8 13l8 10l9 12q4 2 8 10l10 17l10 18l6 17q2 6 2 16q-2 2 -2 8l-4 6q0 4 -2 7v26l8 12q4 10 -4 15q-6 6 -20 0q-14 -4 -19 -8 q-8 -6 -12 -15q-4 -8 -4 -14q0 -8 2 -12l4 -4l4 -5l-6 -8l-6 -6l-29 -37l-22 -26q-2 0 -6 -4v-3l-2 -2q0 -2 -2 -2l-13 -16q-8 -8 -15 -15.5t-18 -13.5q-20 -16 -38 -24q-4 -4 -10.5 -5t-12.5 -5q-16 -4 -22 -3q-8 0 -9 5q-2 2 -2 8q0 2 4 10l4 10l13 21q8 -4 14 -4 q12 0 21 2q14 2 30 12q10 4 29 18l18 19q4 4 7.5 9t5.5 9l8 17q0 12 -4 16q-4 6 -10 10q-6 2 -21 2q-4 -2 -10 -2t-12 -4q-8 -2 -25 -10q-27 -12 -51 -33q-23 -18 -35 -41q-6 -6 -14 -22q-6 -10 -9 -23v-20zM711 -301h37v-37h-37v37zM723 983l18 25l21 24l8 10q4 4 6 5.5 t4 5.5l13 10l14 6q10 2 16 0q2 -4 0 -12l-6 -10q-4 -4 -8 -13q-4 -4 -5 -6t-5 -4q-2 -4 -11 -12q-4 -6 -10 -11q-8 -8 -12 -10l-14 -8q-12 -4 -15 -4q-6 0 -14 4zM780 -205h33v-20q12 25 39 24q14 0 20 -6q10 -4 17 -16q4 10 14 16q8 6 21 6q16 0 26 -8q8 -6 15 -16 q4 -4 4 -21v-92h-33v80q0 27 -21 27q-23 0 -22 -27v-80h-37v92q0 6 -6 13q-4 2 -14 2q-23 0 -23 -25v-82h-33v133zM807 776q0 -6 6 -12q0 -2 6 -8l15 -6q2 -2 8 -3.5t16 -5.5l8 -2q12 -4 17 -4q4 0 8 -4q2 0 4 -2q6 -6 6 -12q0 -2 -4 -10q-2 -2 -10 -9h-13q-12 0 -18 2 l-20 9l-13 12q-10 14 -10 24h-4v-51h4q0 8 4 8q4 4 10 5q2 0 2 -1t5 -1q2 0 3 -1.5t5 -1.5l16 -6q4 -2 16 -2q6 0 19 4q4 0 7 2t7 7q4 2 4 4t4 6v22l-6 9q-6 4 -14 8l-21 8h-12l-2 2l-16 4q-4 2 -6 2t-4 2q-2 0 -7 4q-4 4 -4 8q0 6 2 9q0 -2 4 6l9 4q4 0 6 1t6 1q8 0 16 -4 q10 0 17 -6q8 -4 12 -9q4 -4 5 -9t5 -11h4v37h-4q-2 -8 -8 -8t-10 2q-20 10 -37 10q-10 0 -23 -4l-14 -10q-6 -10 -6 -19zM809 70v24h18v10q0 37 39 37h19v-26h-11q-6 0 -8 -2q-4 0 -4 -4v-15h23v-24h-23v-109h-35v109h-18zM905 6v88h35v-82q0 -25 23 -24q8 0 12 2t12 10 q0 4 2 8t2 8v78h33v-133h-33v19q-6 -10 -16 -15q-16 -8 -25 -8q-20 0 -32 14q-12 12 -13 35zM928 696h119v45q-4 -4 -4.5 -7t-2.5 -7l-12 -16q-6 -6 -10 -6l-10 -5q-6 -2 -15 -2h-18v50h2q14 0 22 -9l5 -6q0 -2 1 -3t1 -5q2 -4 2 -10h2v71h-2v-10l-7 -12q-10 -12 -20 -12h-6 v51h20q18 0 25 -2l10 -8l6 -13l6 -16h5v43h-119v-4h4q10 0 12 -4q6 -4 6 -15v-65q0 -20 -18 -21h-4v-2zM987 979v10l4 12l8 11q10 12 23 20l27 12q0 -4 1 -6t1 -6q-2 -4 -2 -10q0 -4 -1 -6t-1 -6l-5 -11q-2 -4 -10 -12l-8 -6q-4 -4 -10 -4q-2 -2 -10 -2q-4 -4 -9 0 q-4 0 -8 4zM991 -303q0 20 13 31q8 8 26 12l33 4q10 4 10 10q0 16 -20 17q-4 0 -8.5 -1t-8.5 -1q-2 -4 -4 -8.5t-2 -8.5h-33q0 14 7 27q12 12 20 14l12 4q4 0 8.5 1t8.5 1q27 0 37 -8q10 -6 16 -14q2 -6 2 -17v-71q0 -11 2 -15q0 -6 6 -6v-6h-37q0 2 -2 4v2q-2 4 -2 10 q-8 -8 -12 -10l-12 -6q-4 -2 -17 -2q-14 0 -18 2q-10 2 -17 14q-8 6 -8 21zM1026 -301q0 -8 6 -10q4 -4 12 -4h7q2 0 3 1t3 1l12 8q4 4 4 14v19q-6 -6 -12 -7l-17 -2l-12 -6q-6 -6 -6 -14zM1057 -39v180h35v-180h-35zM1118 -39v180h33v-180h-33zM1120 752q0 -16 4 -23 q8 -12 15 -18q4 -4 10 -6.5t12 -6.5q16 -4 25 -4q23 0 33 8q12 7 24 21q8 10 8 29q0 12 -4 20t-12 19q-10 10 -23 12q-12 6 -26 6q-23 0 -33 -8q-10 -4 -15 -9.5t-10 -11.5q-8 -14 -8 -28zM1126 -205h37l21 -96l18 96h35l20 -96l23 96h35l-37 -127v-6h-37l-20 96l-21 -96 h-37l-37 129v4zM1133 1018q0 -6 4 -10t12 -9q4 0 6 -1t6 1h15q10 2 30 11l31 16l27 23l22 20l17 23l12 20l6 21q2 12 0 18q0 6 -6 12q-2 4 -12 8q-4 0 -8.5 1.5t-8.5 1.5q-6 0 -22 -5q-2 0 -15 -4l-14 -6l-29 -18q-8 -4 -14 -10.5t-12 -10.5l-21 -22l-14 -23 q-10 -17 -12 -31q-4 -14 0 -26zM1147 752q0 4 1 9t1 9l6 14q6 10 8 13q0 2 11 6q8 4 14 4q2 0 3 -1t5 -1l8 -4l10 -10q2 -4 4.5 -8.5t4.5 -10.5q0 -4 1 -9t1 -11q0 -12 -4 -29q-6 -12 -15 -21q-6 -4 -20 -4q-12 0 -15 4q-8 0 -14 11l-6 16q-4 12 -4 23zM1159 1020q0 4 2 6 q4 16 10 25q12 16 17 24l12 15l10 12l19 24q6 6 11 12.5t11 10.5l11 8l12 6q4 2 10 2q4 0 6 -4q2 -2 2 -8q0 -4 -4 -12l-6 -11l-6 -12q-4 -8 -8 -12l-8 -12q-4 -6 -8.5 -12.5t-8.5 -10.5l-18 -22l-23 -23q-6 -6 -12 -8q-6 -6 -14 -8q-5 -2 -11 -2l-4 4q-2 2 -2 8zM1241 70 v24h19v10q0 37 38 37h17v-26h-8q-8 0 -9 -2q-2 0 -4 -4v-15h25v-24h-25v-109h-34v109h-19zM1268 696h57v2q-6 0 -10 2q-4 0 -5 1t-5 1l-7 11q-2 2 -2 14v66l95 -97h4v78q0 12 6 23q2 6 18 6v4h-55v-4h10q0 -2 4 -2q8 -8 8 -10q4 -4 5 -17v-47l-78 80h-43v-4h2q8 0 10 -2 q4 0 5 -2t3 -2q2 -4 2 -11v-63q0 -8 -2 -12q-2 -6 -8 -9q-8 -4 -14 -4v-2zM1290 1022q2 0 3 -1t3 -1q6 0 11 2l10 6q0 2 4 6l4 4l6 6q0 2 4 7l21 24l22 25l21 24l24 25l25 22l10 11q4 2 12 10l13 8l14 6q2 0 2 -2h-2l-6 -6q-2 -6 -8 -8l-6 -8l-15 -17q-6 -6 -14 -18 q-12 -16 -16 -25l-17 -24q-4 -6 -8 -23q-4 -10 0 -18t10 -8q12 0 21 2q6 2 12 6t14 8q12 6 23 16l24 23l2 2q-2 -2 -2 -6q0 -8 5 -17q4 -8 12 -10q6 -2 22 2q20 8 29 15l25 18l8 8l8 8l16 15q-2 -2 -2 -6q0 -2 -1 -3.5t-1 -3.5v-8q-4 -6 0 -10q0 -4 1 -5t1 -3q2 -6 8 -6 q2 -2 9 -2q6 0 10 2l8 4l10 6l15 8l37 31l20 20l-6 -14q-4 -8 -4 -23v-6q4 -4 6 -4q0 -2 6 -2q2 0 10 4q4 2 7.5 3t7.5 5l12 9l12 12q4 2 13 10q6 4 11 10.5t11 12.5l21 24q2 2 2 4q-2 2 -5 2q-4 0 -8 -4l-4 -6l-14 -16l-12 -15q-4 -4 -7.5 -7t-7.5 -7l-16 -14l-8 -6l-11 -5 l-2 -2q-2 0 -4 2h2l9 17l4 8t6 8l8 13q4 4 8 12l74 108q12 12 16 21l19 18l43 49q10 12 19 24.5t20 25.5l12 20v10q-2 2 -10 2q-4 0 -13 -4q-4 0 -7 -2t-7 -4q-8 -4 -12 -8l-10 -8q-6 -4 -12.5 -9.5t-12.5 -11.5l-21 -22q-8 -8 -20 -25q-4 -8 -16 -24q-10 -12 -17.5 -24.5 t-15.5 -25.5l-31 -51l-22 -39l-9 -18q-2 0 -2 -2l-16 -17q-4 -6 -10 -11t-13 -11l-22 -21l-10 -8l-9 -6l-4 -2l-6 -4h-6h-4l6 12l6 10q0 2 1 2.5t1 2.5l2 2q4 8 9.5 15t11.5 15q4 8 9 16.5t11 16.5l17 25l8 14q4 4 8 12l2 2l2 2q0 2 1 2t1 3l2 2q6 4 4 8q0 2 -8 2l-12 -4 l-12 -6l-21 -15l-8 -8l-8 -8q0 8 -2 12q0 4 -8 8q-12 2 -25 0q-12 -4 -27 -10q-16 -6 -26 -14q-8 -4 -13.5 -9.5l-9.5 -9.5q-29 -23 -43 -45q-18 -23 -24 -43q-2 0 -2 -1t-3 -1q-4 -4 -9 -10t-11 -10q-8 -8 -25 -21q-6 -6 -14 -8q-8 -4 -12 -4h-4q-2 2 0 4l8 10l6 11l14 16 l25 33q6 8 12 15t10 17l11 21q4 12 2 18q0 6 -2 9q-4 4 -8 4q-6 0 -11 -2l-14 -7l-14 -8q-8 -8 -13 -10q-8 -8 -12 -10q-8 -8 -12 -10l-25 -25q-6 -6 -12 -11t-10 -12l-13 -14l-12 -12l4 6l29 41l31 43q0 2 1 2t1 2q2 2 2 4q2 4 2 8l-6 6q-2 0 -3.5 1.5t-5.5 1.5 q-2 0 -4 -1.5t-6 -1.5l-12 -6l-6 -6q-4 -2 -4 -4t-2 -4l-7 -8l-90 -156q-2 -2 -2 -8zM1329 27q0 10 4 26q2 12 13 23q12 12 22 16q8 4 29 4q20 0 30 -4q4 -4 9.5 -6t9.5 -6q10 -12 14 -25q4 -12 4 -28q0 -20 -8 -35q-6 -14 -22 -25q-16 -10 -37 -10q-23 0 -39 10 q-12 10 -23 27q-6 14 -6 33zM1331 -205h35v-20q14 25 41 24q13 0 25 -6q10 -4 14 -14q6 -12 6 -25v-92h-35v80q0 16 -4 20q-2 6 -18 7q-14 0 -21 -9q-6 -10 -6 -22v-76h-37v133zM1364 27q0 -14 8 -27q4 -12 25 -12q20 0 24 12q8 8 9 27q0 20 -9 28q-6 12 -24 13 q-18 0 -25 -13q-8 -12 -8 -28zM1425 696h125v49h-2q-4 -4 -4 -7t-2 -7q-4 -4 -4 -10q-2 -2 -6 -8q-8 -8 -14 -11q-4 -4 -17 -4h-28v86q0 10 6 15q4 4 14 4h8v4h-76v-4h7q18 0 18 -19v-65q0 -20 -18 -21h-7v-2zM1477 -295h34q0 -18 31 -18q10 0 17 2q4 8 4 10q0 8 -15 10 l-30 8q-6 2 -13.5 5.5t-11.5 7.5q-12 8 -12 24q0 12 6 23q4 8 18 16q8 6 29 6q12 0 21.5 -2t17.5 -6q12 -6 16 -16l4 -11v-10h-34q0 10 -7 15q-2 2 -16 2q-20 0 -20 -13q0 -6 12 -8l31 -8q12 -2 28 -12q10 -6 10 -25q0 -12 -6 -24q-8 -10 -20 -17q-8 -4 -31 -4h-12 q-8 0 -12 2q-12 4 -21 8q-12 8 -14 15q-4 12 -4 20zM1489 -39v133h33v-18q14 20 41 20q18 0 24 -4l17 -14q6 -12 6 -25v-92h-35v80q0 8 -4 20q-6 6 -21 7q-14 0 -20 -9q-4 -6 -4 -22v-76h-37zM1542 1090l2 4q0 2 2 4q4 8 8 12l9 12q2 4 4 7.5t4 7.5t10 12l21 29l30 36l8 11 l9 8l10 6q4 2 10 2q4 2 10 2l7 -4q0 -2 1 -3t1 -5t-2 -8q0 -4 -5 -9l-18 -24l-16 -27l-19 -18l-18 -21q-4 -2 -13 -10l-14 -12q-8 -4 -12 -8q-4 -2 -6 -4.5t-6 -2.5q-8 -4 -13 -2h-2q-2 2 -2 5zM1544 803h2q12 0 17 -2l6 -6t4 -7l35 -45v-24q0 -10 -4 -14q-4 -2 -8.5 -4.5 t-8.5 -2.5h-6v-2h78v2h-8q-8 0 -15 7q-6 2 -6 14v26l29 39l6 9q8 4 10 4q2 4 6 4q4 2 11 2v4h-56v-4h6q10 0 13 -2q4 -2 4 -8q0 -4 -6 -13l-23 -30l-28 36q-4 8 -5 9v2q0 4 2 4q0 2 7 2h10v4h-72v-4zM1624 -301h37v-37h-37v37zM1626 70v24h21v35h32v-35h23v-24h-23v-72 q0 -4 1 -6t1 -4q4 0 6.5 -1t6.5 -1l4 2h4v-27h-23q-16 0 -20 4q-10 0 -12 8v97h-21zM1686 -274q0 29 12 51q16 23 47 22q18 0 31 -6q14 -4 20 -18q10 -10 10 -27h-37q0 6 -4 14q-4 7 -16 7q-16 0 -20 -11q-8 -8 -9 -26q0 -18 2 -25q2 -10 9 -14q4 -4 16 -4q10 0 16 4 q6 6 6 18h37q0 -10 -8 -26q-6 -10 -20 -19q-12 -6 -33 -6q-27 0 -43 14q-8 8 -14 21q-2 8 -2 31zM1784 -2q0 20 10 29q12 8 29 12l30 4q12 2 13 10q0 16 -21 17q-8 0 -16 -4q-6 -2 -8 -17h-33q2 18 8 29q4 8 19 14q8 4 14 4h16q27 0 37 -4l8 -8t6 -8q4 -12 5 -17v-86 q0 -6 8 -6v-6h-39q-2 0 -2 2v2v2q0 4 -1 6t-1 4q-4 -6 -11 -10q-4 -2 -7 -4t-5 -2l-9 -3t-9 -1t-19 4q-4 4 -8 6t-8 6q-6 8 -6 25zM1819 -2q0 -10 4 -10q4 -4 12 -4h8h2l4 2q8 4 13 8q4 8 4 16v17q-6 -6 -15 -7l-16 -4q-6 0 -12 -6q-4 -2 -4 -12zM1823 -272q0 18 4 26 q2 8 5 13.5t7 11.5q12 12 23 14q8 6 28 6q16 0 29 -6q9 -2 23 -12q4 -4 6 -10.5t6 -12.5q4 -8 4 -30q0 -20 -8 -35q-6 -14 -23 -25q-14 -8 -37 -8q-27 0 -39 10q-14 10 -22 25q-6 14 -6 33zM1860 -272q0 -14 6 -27q6 -12 24 -12q19 0 25 12q4 6 5 13t1 14q0 23 -6 30 q-6 10 -25 11q-18 0 -24 -11q-6 -12 -6 -30zM1894 1329l33 45l17 27l30 41l2 2q0 4 4 4q0 2 2 2q2 2 3 0q0 -4 -5 -12l-8 -13l-8 -10q-4 -8 -8 -10l-19 -25l-20 -24l-12 -15q-2 -4 -11 -12zM1917 70v24h16v35h37v-35h23v-24h-23v-72q0 -4 1 -6t1 -4q2 0 4 -1t6 -1l7 2h4v-27 h-23q-16 0 -22 4q-8 0 -11 8q0 4 -2 7.5t-2 7.5v82h-16zM1982 -205h33v-20q14 25 39 24q16 0 23 -6q8 -4 14 -16q4 8 16 16q6 6 21 6q16 0 24 -8q13 -6 15 -16q6 -6 6 -21v-92h-35v80q0 27 -20 27q-23 0 -23 -27v-80h-35v80q0 10 -2 12q0 6 -6 13q-4 2 -12 2q-23 0 -23 -25 v-82h-35v133z" />
<glyph unicode="\" horiz-adv-x="526" d="M-16 1309h172l368 -1309h-182z" />
<glyph unicode="]" horiz-adv-x="2381" d="M135 -205h37l21 -96l18 96h37l18 -96l23 96h35l-37 -127v-6h-37l-21 96l-20 -96h-37l-37 129v4zM205 625v579l315 68l-12 43l47 14l-10 47l49 10l-6 52l47 4v47h43l4 43l47 -6l8 47l51 -8l13 47l45 -13l18 43l47 -18l25 45l43 -22l25 41l43 -29l30 39l39 -31l33 33 l31 -29l30 27l31 -35l41 27l27 -43l45 24l22 -41l43 19l21 -47l49 14l14 -45l45 10l11 -49l51 4l2 -31l473 103v-580l-217 -47l4 -4l-27 -31l27 -33l-37 -30l27 -41l-43 -27l26 -43l-43 -24l19 -43l-47 -21l16 -49l-45 -14l8 -46l-49 -10l4 -51l-47 -4v-47h-41l-6 -43l-45 4 l-10 -45l-50 8l-14 -47l-45 14l-16 -47l-50 21l-22 -45l-43 22l-27 -41l-43 27l-28 -37l-37 31l-35 -33l-31 29l-33 -29l-28 37l-41 -27l-29 43l-43 -24l-22 41l-45 -19l-21 47l-47 -14l-14 45l-47 -10l-11 49l-49 -4l-6 47h-47v43l-41 4l4 47l-47 8l10 49l-49 15l14 45 l-32 12zM330 -205h35l22 -96l19 96h34l21 -96l20 96h37l-37 -127l-2 -6h-35l-22 96l-21 -96h-36l-35 129v4zM334 51q0 12 2 19q0 4 2 9t2 9q2 14 16 29q4 6 11.5 11t15.5 9q10 4 19.5 6t19.5 2h6q6 0 18 -4q6 0 10.5 -2t8.5 -4q14 -8 24 -22q4 -6 9 -15q2 -4 2 -12h-39 q0 6 -4 10q-2 6 -13 13q-10 6 -20 6q-6 0 -10 -2h-8l-17 -13q-4 -4 -7 -8t-5 -10q-4 -10 -4 -33q0 -18 6 -33q2 -14 14 -18q6 -4 11.5 -6t11.5 -4h6q14 0 20 6q8 0 15 10q4 6 7 11t3 12h-43v32h76v-98h-25l-4 23q-6 -10 -16 -17q-6 -4 -11.5 -5t-9.5 -5q-6 0 -11 -1t-11 -1 q-18 0 -29 8q-17 7 -25 19q-12 12 -18 30t-6 39zM334 788q0 -2 2 -4h10l10 7l13 12l8 12l12 12q2 4 10 13l74 102q6 10 12.5 17.5t10.5 17.5l24 37q6 10 12.5 18t10.5 19q6 10 11 18t9 18q2 6 0 9q-2 2 -6 2q-8 0 -10 -2l-10 -6l-21 -23l-18 -25q-10 -10 -17 -22l-18 -23 l-66 -94l-30 -49q-8 -12 -14.5 -24.5t-12.5 -24.5l-4 -6q0 -2 -1 -3t-1 -3v-5zM383 1004q2 -8 12 -15l21 -6q16 0 26 2q4 0 7 2q2 2 2 4t-2 2h-7q-4 0 -4 -2q-20 -2 -35 4q-8 4 -10 9q-4 8 -4 12q0 8 2 14l8 17l21 22q4 4 11 9t13 9q8 4 14.5 8.5t14.5 8.5t15.5 7t15.5 7 q8 2 15 4t18 6l32 7q20 4 31 4q10 0 27 -4q4 -2 9 -3.5t9 -5.5l10 -14q2 -6 2 -20q0 -6 -4 -23l-12 -22q-4 -8 -16 -25q-4 -6 -10.5 -11t-12.5 -12q-4 -6 -11 -11t-13 -11l-27 -16l-29 -13l-16 -6q-6 0 -14 -4h-7q-4 0 -6 -2q-4 0 -4 -2q-4 0 -4 -4q0 -2 2 -2h6q4 0 6 2h7 l30 10l31 12l31 15l30 18l27 19l25 22l20 23q4 6 7 12t5 12q6 12 7 23q2 12 0 20q-4 12 -9 19q-8 6 -16 10q-12 6 -23 6q-10 2 -28 2q-8 0 -29 -4q-16 -2 -32.5 -6t-32.5 -8t-32 -11.5t-32 -15.5q-8 -4 -15 -8t-16 -10q-16 -10 -26 -21q-8 -6 -21 -22l-10 -23q-2 -12 0 -20z M522 31q0 10 1 17t5 15q6 16 21 25q8 6 17 7t20 1q27 0 35 -8q12 -8 20 -27q4 -10 5 -18t1 -18v-9h-92q0 -12 10 -22q6 -8 23 -8q6 0 14 4q8 8 8 10h37q-4 -10 -12 -23q-6 -4 -11.5 -8t-9.5 -6q-8 -2 -13 -4t-13 -2q-66 0 -66 74zM522 -205h37l21 -96l18 96h37l18 -96l21 96 h37l-37 -127l-2 -6h-35l-21 96l-22 -96h-35l-37 129v4zM559 41h53q-4 12 -8 20q-4 4 -8 6.5t-10 2.5q-23 0 -27 -29zM641 803h2q23 0 23 -19v-55q0 -14 12 -27l18 -6q6 -2 23 -2q16 0 29 4q8 4 12 9q10 8 10 26v58l10 10h2l2 2h9v4h-56v-4h13q2 0 3 -1t3 -1q12 -6 12 -27 v-39q0 -16 -10 -26l-15 -11h-18q-14 0 -20 4q-4 0 -13 9q-4 4 -4 18v55q0 12 4 15q4 4 17 4h8v4h-76v-4zM657 70v24h19v35h35v-35h20v-24h-20v-72q0 -8 2 -10q2 0 5 -1t7 -1l4 2h2v-27h-20q-16 0 -23 4q-8 0 -10 8q-2 4 -2 15v82h-19zM657 924q2 -6 11 -15q12 -8 26 -6 q16 0 33 6q18 6 37 19q18 8 37 24l28 25l17 18q0 2 4 6q0 4 4 5l4 8l19 18l18 25q6 6 11 12t9 12l9 -4l4 -6q2 -4 2 -8q0 -2 -8 -10l-19 -21l-16 -22l-15 -23l-6 -20q-2 -4 -2 -11v-8q4 -6 6 -8t9 -2q4 0 20 4l19 12q16 12 24 21q6 4 11 10t10 10q8 8 10 13l10 12l4 6l6 6 q4 4 4 6l15 19l24 35q0 -4 1 -8.5t1 -8.5q4 -12 4 -16l5 -8q-20 -8 -29 -15l-23 -18q-12 -12 -14 -21q-4 -8 -4 -20q2 -6 12 -10q7 -2 23 -2q14 2 28 10q14 6 27 18q10 6 18 21l11 20q6 12 6 23v18q0 6 -4 19l-8 18l-7 8q0 4 -4 8q0 2 -4 7v6q2 2 2 4h-10l-4 -4 q-6 -2 -14 -11l-7 -14l-2 -2l-6 -8l-37 -51l-6 -8l-6 -11l-2 -2v-2q-2 0 -4 -2l-6 -10l-6 -8l-19 -23l-24 -22q-6 -6 -15 -9q-8 -4 -14 -4h-2l2 2l8 13l8 10l9 12q4 2 8 10l10 17l10 18l6 17q2 6 2 16q-2 2 -2 8l-4 6q0 4 -2 7v26l8 12q4 10 -4 15q-6 6 -20 0q-14 -4 -19 -8 q-8 -6 -12 -15q-4 -8 -4 -14q0 -8 2 -12l4 -4l4 -5l-6 -8l-6 -6l-29 -37l-22 -26q-2 0 -6 -4v-3l-2 -2q0 -2 -2 -2l-13 -16q-8 -8 -15 -15.5t-18 -13.5q-20 -16 -38 -24q-4 -4 -10.5 -5t-12.5 -5q-16 -4 -22 -3q-8 0 -9 5q-2 2 -2 8q0 2 4 10l4 10l13 21q8 -4 14 -4 q12 0 21 2q14 2 30 12q10 4 29 18l18 19q4 4 7.5 9t5.5 9l8 17q0 12 -4 16q-4 6 -10 10q-6 2 -21 2q-4 -2 -10 -2t-12 -4q-8 -2 -25 -10q-27 -12 -51 -33q-23 -18 -35 -41q-6 -6 -14 -22q-6 -10 -9 -23v-20zM711 -301h37v-37h-37v37zM723 983l18 25l21 24l8 10q4 4 6 5.5 t4 5.5l13 10l14 6q10 2 16 0q2 -4 0 -12l-6 -10q-4 -4 -8 -13q-4 -4 -5 -6t-5 -4q-2 -4 -11 -12q-4 -6 -10 -11q-8 -8 -12 -10l-14 -8q-12 -4 -15 -4q-6 0 -14 4zM780 -205h33v-20q12 25 39 24q14 0 20 -6q10 -4 17 -16q4 10 14 16q8 6 21 6q16 0 26 -8q8 -6 15 -16 q4 -4 4 -21v-92h-33v80q0 27 -21 27q-23 0 -22 -27v-80h-37v92q0 6 -6 13q-4 2 -14 2q-23 0 -23 -25v-82h-33v133zM807 776q0 -6 6 -12q0 -2 6 -8l15 -6q2 -2 8 -3.5t16 -5.5l8 -2q12 -4 17 -4q4 0 8 -4q2 0 4 -2q6 -6 6 -12q0 -2 -4 -10q-2 -2 -10 -9h-13q-12 0 -18 2 l-20 9l-13 12q-10 14 -10 24h-4v-51h4q0 8 4 8q4 4 10 5q2 0 2 -1t5 -1q2 0 3 -1.5t5 -1.5l16 -6q4 -2 16 -2q6 0 19 4q4 0 7 2t7 7q4 2 4 4t4 6v22l-6 9q-6 4 -14 8l-21 8h-12l-2 2l-16 4q-4 2 -6 2t-4 2q-2 0 -7 4q-4 4 -4 8q0 6 2 9q0 -2 4 6l9 4q4 0 6 1t6 1q8 0 16 -4 q10 0 17 -6q8 -4 12 -9q4 -4 5 -9t5 -11h4v37h-4q-2 -8 -8 -8t-10 2q-20 10 -37 10q-10 0 -23 -4l-14 -10q-6 -10 -6 -19zM809 70v24h18v10q0 37 39 37h19v-26h-11q-6 0 -8 -2q-4 0 -4 -4v-15h23v-24h-23v-109h-35v109h-18zM905 6v88h35v-82q0 -25 23 -24q8 0 12 2t12 10 q0 4 2 8t2 8v78h33v-133h-33v19q-6 -10 -16 -15q-16 -8 -25 -8q-20 0 -32 14q-12 12 -13 35zM928 696h119v45q-4 -4 -4.5 -7t-2.5 -7l-12 -16q-6 -6 -10 -6l-10 -5q-6 -2 -15 -2h-18v50h2q14 0 22 -9l5 -6q0 -2 1 -3t1 -5q2 -4 2 -10h2v71h-2v-10l-7 -12q-10 -12 -20 -12h-6 v51h20q18 0 25 -2l10 -8l6 -13l6 -16h5v43h-119v-4h4q10 0 12 -4q6 -4 6 -15v-65q0 -20 -18 -21h-4v-2zM987 979v10l4 12l8 11q10 12 23 20l27 12q0 -4 1 -6t1 -6q-2 -4 -2 -10q0 -4 -1 -6t-1 -6l-5 -11q-2 -4 -10 -12l-8 -6q-4 -4 -10 -4q-2 -2 -10 -2q-4 -4 -9 0 q-4 0 -8 4zM991 -303q0 20 13 31q8 8 26 12l33 4q10 4 10 10q0 16 -20 17q-4 0 -8.5 -1t-8.5 -1q-2 -4 -4 -8.5t-2 -8.5h-33q0 14 7 27q12 12 20 14l12 4q4 0 8.5 1t8.5 1q27 0 37 -8q10 -6 16 -14q2 -6 2 -17v-71q0 -11 2 -15q0 -6 6 -6v-6h-37q0 2 -2 4v2q-2 4 -2 10 q-8 -8 -12 -10l-12 -6q-4 -2 -17 -2q-14 0 -18 2q-10 2 -17 14q-8 6 -8 21zM1026 -301q0 -8 6 -10q4 -4 12 -4h7q2 0 3 1t3 1l12 8q4 4 4 14v19q-6 -6 -12 -7l-17 -2l-12 -6q-6 -6 -6 -14zM1057 -39v180h35v-180h-35zM1118 -39v180h33v-180h-33zM1120 752q0 -16 4 -23 q8 -12 15 -18q4 -4 10 -6.5t12 -6.5q16 -4 25 -4q23 0 33 8q12 7 24 21q8 10 8 29q0 12 -4 20t-12 19q-10 10 -23 12q-12 6 -26 6q-23 0 -33 -8q-10 -4 -15 -9.5t-10 -11.5q-8 -14 -8 -28zM1126 -205h37l21 -96l18 96h35l20 -96l23 96h35l-37 -127v-6h-37l-20 96l-21 -96 h-37l-37 129v4zM1133 1018q0 -6 4 -10t12 -9q4 0 6 -1t6 1h15q10 2 30 11l31 16l27 23l22 20l17 23l12 20l6 21q2 12 0 18q0 6 -6 12q-2 4 -12 8q-4 0 -8.5 1.5t-8.5 1.5q-6 0 -22 -5q-2 0 -15 -4l-14 -6l-29 -18q-8 -4 -14 -10.5t-12 -10.5l-21 -22l-14 -23 q-10 -17 -12 -31q-4 -14 0 -26zM1147 752q0 4 1 9t1 9l6 14q6 10 8 13q0 2 11 6q8 4 14 4q2 0 3 -1t5 -1l8 -4l10 -10q2 -4 4.5 -8.5t4.5 -10.5q0 -4 1 -9t1 -11q0 -12 -4 -29q-6 -12 -15 -21q-6 -4 -20 -4q-12 0 -15 4q-8 0 -14 11l-6 16q-4 12 -4 23zM1159 1020q0 4 2 6 q4 16 10 25q12 16 17 24l12 15l10 12l19 24q6 6 11 12.5t11 10.5l11 8l12 6q4 2 10 2q4 0 6 -4q2 -2 2 -8q0 -4 -4 -12l-6 -11l-6 -12q-4 -8 -8 -12l-8 -12q-4 -6 -8.5 -12.5t-8.5 -10.5l-18 -22l-23 -23q-6 -6 -12 -8q-6 -6 -14 -8q-5 -2 -11 -2l-4 4q-2 2 -2 8zM1241 70 v24h19v10q0 37 38 37h17v-26h-8q-8 0 -9 -2q-2 0 -4 -4v-15h25v-24h-25v-109h-34v109h-19zM1268 696h57v2q-6 0 -10 2q-4 0 -5 1t-5 1l-7 11q-2 2 -2 14v66l95 -97h4v78q0 12 6 23q2 6 18 6v4h-55v-4h10q0 -2 4 -2q8 -8 8 -10q4 -4 5 -17v-47l-78 80h-43v-4h2q8 0 10 -2 q4 0 5 -2t3 -2q2 -4 2 -11v-63q0 -8 -2 -12q-2 -6 -8 -9q-8 -4 -14 -4v-2zM1290 1022q2 0 3 -1t3 -1q6 0 11 2l10 6q0 2 4 6l4 4l6 6q0 2 4 7l21 24l22 25l21 24l24 25l25 22l10 11q4 2 12 10l13 8l14 6q2 0 2 -2h-2l-6 -6q-2 -6 -8 -8l-6 -8l-15 -17q-6 -6 -14 -18 q-12 -16 -16 -25l-17 -24q-4 -6 -8 -23q-4 -10 0 -18t10 -8q12 0 21 2q6 2 12 6t14 8q12 6 23 16l24 23l2 2q-2 -2 -2 -6q0 -8 5 -17q4 -8 12 -10q6 -2 22 2q20 8 29 15l25 18l8 8l8 8l16 15q-2 -2 -2 -6q0 -2 -1 -3.5t-1 -3.5v-8q-4 -6 0 -10q0 -4 1 -5t1 -3q2 -6 8 -6 q2 -2 9 -2q6 0 10 2l8 4l10 6l15 8l37 31l20 20l-6 -14q-4 -8 -4 -23v-6q4 -4 6 -4q0 -2 6 -2q2 0 10 4q4 2 7.5 3t7.5 5l12 9l12 12q4 2 13 10q6 4 11 10.5t11 12.5l21 24q2 2 2 4q-2 2 -5 2q-4 0 -8 -4l-4 -6l-14 -16l-12 -15q-4 -4 -7.5 -7t-7.5 -7l-16 -14l-8 -6l-11 -5 l-2 -2q-2 0 -4 2h2l9 17l4 8t6 8l8 13q4 4 8 12l74 108q12 12 16 21l19 18l43 49q10 12 19 24.5t20 25.5l12 20v10q-2 2 -10 2q-4 0 -13 -4q-4 0 -7 -2t-7 -4q-8 -4 -12 -8l-10 -8q-6 -4 -12.5 -9.5t-12.5 -11.5l-21 -22q-8 -8 -20 -25q-4 -8 -16 -24q-10 -12 -17.5 -24.5 t-15.5 -25.5l-31 -51l-22 -39l-9 -18q-2 0 -2 -2l-16 -17q-4 -6 -10 -11t-13 -11l-22 -21l-10 -8l-9 -6l-4 -2l-6 -4h-6h-4l6 12l6 10q0 2 1 2.5t1 2.5l2 2q4 8 9.5 15t11.5 15q4 8 9 16.5t11 16.5l17 25l8 14q4 4 8 12l2 2l2 2q0 2 1 2t1 3l2 2q6 4 4 8q0 2 -8 2l-12 -4 l-12 -6l-21 -15l-8 -8l-8 -8q0 8 -2 12q0 4 -8 8q-12 2 -25 0q-12 -4 -27 -10q-16 -6 -26 -14q-8 -4 -13.5 -9.5l-9.5 -9.5q-29 -23 -43 -45q-18 -23 -24 -43q-2 0 -2 -1t-3 -1q-4 -4 -9 -10t-11 -10q-8 -8 -25 -21q-6 -6 -14 -8q-8 -4 -12 -4h-4q-2 2 0 4l8 10l6 11l14 16 l25 33q6 8 12 15t10 17l11 21q4 12 2 18q0 6 -2 9q-4 4 -8 4q-6 0 -11 -2l-14 -7l-14 -8q-8 -8 -13 -10q-8 -8 -12 -10q-8 -8 -12 -10l-25 -25q-6 -6 -12 -11t-10 -12l-13 -14l-12 -12l4 6l29 41l31 43q0 2 1 2t1 2q2 2 2 4q2 4 2 8l-6 6q-2 0 -3.5 1.5t-5.5 1.5 q-2 0 -4 -1.5t-6 -1.5l-12 -6l-6 -6q-4 -2 -4 -4t-2 -4l-7 -8l-90 -156q-2 -2 -2 -8zM1329 27q0 10 4 26q2 12 13 23q12 12 22 16q8 4 29 4q20 0 30 -4q4 -4 9.5 -6t9.5 -6q10 -12 14 -25q4 -12 4 -28q0 -20 -8 -35q-6 -14 -22 -25q-16 -10 -37 -10q-23 0 -39 10 q-12 10 -23 27q-6 14 -6 33zM1331 -205h35v-20q14 25 41 24q13 0 25 -6q10 -4 14 -14q6 -12 6 -25v-92h-35v80q0 16 -4 20q-2 6 -18 7q-14 0 -21 -9q-6 -10 -6 -22v-76h-37v133zM1364 27q0 -14 8 -27q4 -12 25 -12q20 0 24 12q8 8 9 27q0 20 -9 28q-6 12 -24 13 q-18 0 -25 -13q-8 -12 -8 -28zM1425 696h125v49h-2q-4 -4 -4 -7t-2 -7q-4 -4 -4 -10q-2 -2 -6 -8q-8 -8 -14 -11q-4 -4 -17 -4h-28v86q0 10 6 15q4 4 14 4h8v4h-76v-4h7q18 0 18 -19v-65q0 -20 -18 -21h-7v-2zM1477 -295h34q0 -18 31 -18q10 0 17 2q4 8 4 10q0 8 -15 10 l-30 8q-6 2 -13.5 5.5t-11.5 7.5q-12 8 -12 24q0 12 6 23q4 8 18 16q8 6 29 6q12 0 21.5 -2t17.5 -6q12 -6 16 -16l4 -11v-10h-34q0 10 -7 15q-2 2 -16 2q-20 0 -20 -13q0 -6 12 -8l31 -8q12 -2 28 -12q10 -6 10 -25q0 -12 -6 -24q-8 -10 -20 -17q-8 -4 -31 -4h-12 q-8 0 -12 2q-12 4 -21 8q-12 8 -14 15q-4 12 -4 20zM1489 -39v133h33v-18q14 20 41 20q18 0 24 -4l17 -14q6 -12 6 -25v-92h-35v80q0 8 -4 20q-6 6 -21 7q-14 0 -20 -9q-4 -6 -4 -22v-76h-37zM1542 1090l2 4q0 2 2 4q4 8 8 12l9 12q2 4 4 7.5t4 7.5t10 12l21 29l30 36l8 11 l9 8l10 6q4 2 10 2q4 2 10 2l7 -4q0 -2 1 -3t1 -5t-2 -8q0 -4 -5 -9l-18 -24l-16 -27l-19 -18l-18 -21q-4 -2 -13 -10l-14 -12q-8 -4 -12 -8q-4 -2 -6 -4.5t-6 -2.5q-8 -4 -13 -2h-2q-2 2 -2 5zM1544 803h2q12 0 17 -2l6 -6t4 -7l35 -45v-24q0 -10 -4 -14q-4 -2 -8.5 -4.5 t-8.5 -2.5h-6v-2h78v2h-8q-8 0 -15 7q-6 2 -6 14v26l29 39l6 9q8 4 10 4q2 4 6 4q4 2 11 2v4h-56v-4h6q10 0 13 -2q4 -2 4 -8q0 -4 -6 -13l-23 -30l-28 36q-4 8 -5 9v2q0 4 2 4q0 2 7 2h10v4h-72v-4zM1624 -301h37v-37h-37v37zM1626 70v24h21v35h32v-35h23v-24h-23v-72 q0 -4 1 -6t1 -4q4 0 6.5 -1t6.5 -1l4 2h4v-27h-23q-16 0 -20 4q-10 0 -12 8v97h-21zM1686 -274q0 29 12 51q16 23 47 22q18 0 31 -6q14 -4 20 -18q10 -10 10 -27h-37q0 6 -4 14q-4 7 -16 7q-16 0 -20 -11q-8 -8 -9 -26q0 -18 2 -25q2 -10 9 -14q4 -4 16 -4q10 0 16 4 q6 6 6 18h37q0 -10 -8 -26q-6 -10 -20 -19q-12 -6 -33 -6q-27 0 -43 14q-8 8 -14 21q-2 8 -2 31zM1784 -2q0 20 10 29q12 8 29 12l30 4q12 2 13 10q0 16 -21 17q-8 0 -16 -4q-6 -2 -8 -17h-33q2 18 8 29q4 8 19 14q8 4 14 4h16q27 0 37 -4l8 -8t6 -8q4 -12 5 -17v-86 q0 -6 8 -6v-6h-39q-2 0 -2 2v2v2q0 4 -1 6t-1 4q-4 -6 -11 -10q-4 -2 -7 -4t-5 -2l-9 -3t-9 -1t-19 4q-4 4 -8 6t-8 6q-6 8 -6 25zM1819 -2q0 -10 4 -10q4 -4 12 -4h8h2l4 2q8 4 13 8q4 8 4 16v17q-6 -6 -15 -7l-16 -4q-6 0 -12 -6q-4 -2 -4 -12zM1823 -272q0 18 4 26 q2 8 5 13.5t7 11.5q12 12 23 14q8 6 28 6q16 0 29 -6q9 -2 23 -12q4 -4 6 -10.5t6 -12.5q4 -8 4 -30q0 -20 -8 -35q-6 -14 -23 -25q-14 -8 -37 -8q-27 0 -39 10q-14 10 -22 25q-6 14 -6 33zM1860 -272q0 -14 6 -27q6 -12 24 -12q19 0 25 12q4 6 5 13t1 14q0 23 -6 30 q-6 10 -25 11q-18 0 -24 -11q-6 -12 -6 -30zM1894 1329l33 45l17 27l30 41l2 2q0 4 4 4q0 2 2 2q2 2 3 0q0 -4 -5 -12l-8 -13l-8 -10q-4 -8 -8 -10l-19 -25l-20 -24l-12 -15q-2 -4 -11 -12zM1917 70v24h16v35h37v-35h23v-24h-23v-72q0 -4 1 -6t1 -4q2 0 4 -1t6 -1l7 2h4v-27 h-23q-16 0 -22 4q-8 0 -11 8q0 4 -2 7.5t-2 7.5v82h-16zM1982 -205h33v-20q14 25 39 24q16 0 23 -6q8 -4 14 -16q4 8 16 16q6 6 21 6q16 0 24 -8q13 -6 15 -16q6 -6 6 -21v-92h-35v80q0 27 -20 27q-23 0 -23 -27v-80h-35v80q0 10 -2 12q0 6 -6 13q-4 2 -12 2q-23 0 -23 -25 v-82h-35v133z" />
<glyph unicode="^" horiz-adv-x="608" d="M0 872l254 252l252 -260l-39 -41l-217 119l-207 -108z" />
<glyph unicode="_" horiz-adv-x="546" d="M0 0h444v-160h-444v160z" />
<glyph unicode="`" horiz-adv-x="487" d="M0 1180v149l385 -211l-35 -37z" />
<glyph unicode="a" d="M0 299q8 70 39 120t72 85t87 59.5t83.5 44t62.5 39t25 43.5v17q0 18 -3.5 43.5t-14.5 50t-31.5 42t-55.5 17.5t-56.5 -17.5t-31.5 -42t-13 -50t-3 -43.5h-160q0 141 72.5 227t191.5 86t191.5 -86t72.5 -227v-709h-98q-27 31 -39 106q-25 -43 -63.5 -74.5t-87.5 -31.5 q-122 0 -190 76q-54 60 -54 166q0 28 4 59zM158 236q6 -26 20.5 -44t37 -26t48.5 -8q35 0 55.5 17.5t31.5 42t14.5 50t3.5 43.5v262q-4 -18 -32 -39.5t-63.5 -51t-68.5 -73.5t-45 -110q-5 -21 -5 -39q0 -13 3 -24z" />
<glyph unicode="b" d="M0 2v1307h158v-340q61 55 139 55q104 0 167.5 -86t63.5 -227v-396q0 -141 -63.5 -227t-167.5 -86q-53 0 -97 24.5t-73 67.5q-6 -31 -14.5 -54.5t-20.5 -37.5h-92zM158 315q0 -18 3 -43.5t14 -50t31.5 -42t57.5 -17.5q35 0 55.5 17.5t31.5 42t14.5 50t3.5 43.5v396 q0 18 -3.5 43.5t-14.5 50t-31.5 42t-55.5 17.5q-37 0 -57.5 -17.5t-31.5 -42t-14 -50t-3 -43.5v-396z" />
<glyph unicode="c" d="M0 315v396q0 141 72.5 227t191.5 86t191.5 -86t72.5 -227v-80h-159v80q0 16 -3.5 42.5t-14.5 51t-31.5 42t-55.5 17.5t-56.5 -17.5t-31.5 -42t-13 -51t-3 -42.5v-396q0 -18 3 -43.5t13 -50t31.5 -42t56.5 -17.5t55.5 17.5t31.5 42t14.5 50t3.5 43.5v80h159v-80 q0 -141 -72.5 -227t-191.5 -86t-191.5 86t-72.5 227z" />
<glyph unicode="d" d="M0 315v396q0 141 63.5 227t167.5 86q78 0 138 -55v340h159v-1307h-92q-12 14 -20 37.5t-15 54.5q-31 -43 -73.5 -67.5t-96.5 -24.5q-104 0 -167.5 86t-63.5 227zM160 315q0 -18 3 -43.5t13 -50t31.5 -42t56.5 -17.5t55.5 17.5t31.5 42t14.5 50t3.5 43.5v396 q0 18 -3.5 43.5t-14.5 50t-31.5 42t-55.5 17.5t-56.5 -17.5t-31.5 -42t-13 -50t-3 -43.5v-396z" />
<glyph unicode="e" d="M0 315v396q0 141 72.5 227t191.5 86t191.5 -86t72.5 -227v-230h-368v-166q0 -18 3 -43.5t13 -50t31.5 -42t56.5 -17.5t55.5 17.5t31.5 42t14.5 50t3.5 43.5v80h159v-80q0 -141 -72.5 -227t-191.5 -86t-191.5 86t-72.5 227zM160 604h209v107q0 18 -3.5 43.5t-14.5 50 t-31.5 42t-55.5 17.5t-56.5 -17.5t-31.5 -42t-13 -50t-3 -43.5v-107z" />
<glyph unicode="f" horiz-adv-x="366" d="M0 2v993q0 141 72.5 227.5t191.5 86.5h80v-158h-80q-35 0 -56.5 -17.5t-31.5 -42t-13 -51t-3 -45.5v-104h104v-160h-104v-729h-160z" />
<glyph unicode="g" d="M0 23q0 72 29 145q23 -25 58.5 -51.5t80.5 -34.5q-10 -31 -10 -59q0 -6 2 -32t12 -53.5t31.5 -49t60.5 -21.5q35 0 55.5 17.5t31.5 42t14.5 51t3.5 45.5v155q-59 -55 -140 -55q-104 0 -166.5 86t-62.5 227v275q0 141 62.5 227t166.5 86q53 0 97 -24.5t75 -69.5 q12 70 33 94h94v-1001q0 -141 -72.5 -227.5t-191.5 -86.5q-59 0 -107 22.5t-83 64.5t-54.5 99.5t-19.5 127.5zM158 436q0 -16 3 -42.5t14 -51.5t31.5 -42t57.5 -17q35 0 55.5 17t31.5 42t14.5 50.5t3.5 43.5v275q0 16 -3.5 42.5t-14.5 51t-31.5 42t-55.5 17.5 q-37 0 -57.5 -17.5t-31.5 -42t-14 -51t-3 -42.5v-275z" />
<glyph unicode="h" horiz-adv-x="638" d="M0 2v1307h160v-340q59 55 139 55q104 0 166.5 -86t62.5 -227v-541q0 -55 1 -88t3 -51q2 -23 5 -29h-131q-10 8 -19 31q-8 18 -13 51t-5 86v541q0 18 -3.5 43.5t-14.5 50t-31.5 42t-55.5 17.5t-56.5 -17.5t-31.5 -42t-13 -50t-3 -43.5v-709h-160z" />
<glyph unicode="i" horiz-adv-x="260" d="M0 2v1022h158v-1022h-158zM0 1147v158h158v-158h-158z" />
<glyph unicode="j" horiz-adv-x="262" d="M0 -289v1313h160v-1313h-160zM0 1147v158h160v-158h-160z" />
<glyph unicode="k" horiz-adv-x="606" d="M0 2v1307h160v-744q16 4 29.5 13.5t23.5 29.5l147 418h162q-25 -55 -51.5 -122.5t-50 -132t-43 -116t-31.5 -75.5q-14 -35 -59 -56q23 -8 43.5 -19.5t40.5 -29.5q39 -37 52 -101.5t22.5 -135t23.5 -136t55 -100.5h-162q-31 23 -44 88.5t-22 138t-18.5 136t-29.5 79.5 q-23 18 -46.5 24.5t-41.5 6.5v-473h-160z" />
<glyph unicode="l" horiz-adv-x="262" d="M0 2v1307h160v-1307h-160z" />
<glyph unicode="m" horiz-adv-x="1007" d="M0 2v1022h94q20 -25 33 -94q31 45 75 69.5t97 24.5q59 0 106.5 -30.5t77.5 -84.5q29 53 77 84t108 31q104 0 166.5 -86t62.5 -227v-541q0 -55 1 -88t3 -51q2 -23 4 -29h-131q-10 8 -18 31q-8 18 -13.5 51t-5.5 86v541q0 18 -3 43.5t-14 50t-31.5 42t-55.5 17.5 q-33 0 -52.5 -14t-30.5 -35.5t-16.5 -46.5t-5.5 -43v-6v-24.5v-64.5v-124t1 -203t1 -301h-159v709q0 18 -3 43.5t-14.5 50t-32 42t-57.5 17.5q-35 0 -56.5 -17.5t-31.5 -42t-13 -50t-3 -43.5v-709h-160z" />
<glyph unicode="n" horiz-adv-x="638" d="M0 2v1022h92q20 -25 35 -94q29 45 74 69.5t98 24.5q104 0 166.5 -86t62.5 -227v-541q0 -55 1 -88t3 -51q2 -23 5 -29h-131q-10 8 -19 31q-8 18 -13 51t-5 86v541q0 18 -3.5 43.5t-14.5 50t-31.5 42t-55.5 17.5t-56.5 -17.5t-31.5 -42t-13 -50t-3 -43.5v-709h-160z" />
<glyph unicode="o" d="M0 315v396q0 141 72.5 227t191.5 86t191.5 -86t72.5 -227v-396q0 -141 -72.5 -227t-191.5 -86t-191.5 86t-72.5 227zM160 315q0 -18 3 -43.5t13 -50t31.5 -42t56.5 -17.5q37 0 57.5 17.5t32 42t14.5 50t3 43.5v396q0 16 -3 42.5t-14.5 51t-32 42t-57.5 17.5 q-35 0 -56.5 -17.5t-31.5 -42t-13 -51t-3 -42.5v-396z" />
<glyph unicode="p" d="M0 -285v1309h92q25 -31 33 -94q31 45 75 69.5t97 24.5q104 0 167.5 -86t63.5 -227v-396q0 -141 -63.5 -227t-167.5 -86q-80 0 -139 53v-340h-158zM158 315q0 -18 3 -44.5t14 -51t31.5 -42t57.5 -17.5q35 0 55.5 17.5t31.5 42t14.5 51t3.5 44.5v396q0 16 -3.5 42.5 t-14.5 51t-31.5 42t-55.5 17.5q-37 0 -57.5 -17.5t-31.5 -42t-14 -51t-3 -42.5v-396z" />
<glyph unicode="q" d="M0 315v396q0 141 62.5 227t166.5 86q53 0 97 -24.5t75 -69.5q12 70 33 94h94v-1309h-159v340q-57 -53 -140 -53q-104 0 -166.5 86t-62.5 227zM158 315q0 -18 3 -44.5t14 -51t31.5 -42t57.5 -17.5q35 0 55.5 17.5t31.5 42t14.5 51t3.5 44.5v396q0 16 -3.5 42.5t-14.5 51 t-31.5 42t-55.5 17.5q-37 0 -57.5 -17.5t-31.5 -42t-14 -51t-3 -42.5v-396z" />
<glyph unicode="r" horiz-adv-x="446" d="M0 2v1022h94q21 -24 33 -94q31 45 75 69.5t97 24.5q63 0 117 -37l-94 -139q-23 16 -56 16q-37 0 -57.5 -17.5t-31.5 -42t-14 -50t-3 -43.5v-709h-160z" />
<glyph unicode="s" d="M0 281v34h160v-34q0 -16 5 -37t16.5 -39.5t31.5 -30.5t51 -12t51.5 12t32.5 30.5t17.5 39t5.5 37.5q0 35 -8.5 58t-26 40.5t-43 31t-62.5 29.5t-76.5 39t-74.5 56.5t-57.5 84t-22.5 123.5q0 51 17.5 101.5t51 90.5t83 64.5t112.5 24.5t113.5 -24.5t83.5 -64.5t50 -90 t17 -102v-30h-157v30q0 16 -5.5 38t-17.5 40.5t-32.5 30.5t-51.5 12t-51 -12t-31.5 -30.5t-16.5 -40t-5 -38.5q0 -35 8 -57t24.5 -38.5t43 -31t61.5 -30.5q37 -16 78 -38t74.5 -56.5t56 -85t22.5 -125.5q0 -51 -17 -100.5t-50 -89.5t-83 -64.5t-114 -24.5q-63 0 -112.5 24.5 t-83 64.5t-51 89t-17.5 101z" />
<glyph unicode="t" horiz-adv-x="395" d="M0 315v994h160v-285h151v-160h-151v-549q0 -18 3 -43.5t13 -50t31.5 -42t56.5 -17.5h80v-160h-80q-119 0 -191.5 86t-72.5 227z" />
<glyph unicode="u" horiz-adv-x="628" d="M0 315v709h158v-709q0 -18 3 -43.5t13 -50t31.5 -42t56.5 -17.5q37 0 57.5 17.5t31.5 42t14.5 50t3.5 43.5v709h157v-1022h-92q-8 10 -14 40t-10 75q-31 -53 -77 -84t-106 -31q-104 0 -165.5 86t-61.5 227z" />
<glyph unicode="v" horiz-adv-x="636" d="M-31 1020h162l115 -649l22 -228l23 230l115 647h161l-194 -1018h-209z" />
<glyph unicode="w" horiz-adv-x="956" d="M0 1024h162l90 -555l35 -295l10 201l65 637l-2 12h164l-2 -12l66 -637l10 -201l35 297l90 553h162l-170 -1022h-209l-45 360l-19 277l-18 -277l-45 -360h-207z" />
<glyph unicode="x" horiz-adv-x="651" d="M0 2l195 512l-195 510h162l90 -266l22 -144l23 144l90 266h162l-189 -510l189 -512h-162l-90 266l-23 144l-22 -144l-90 -266h-162z" />
<glyph unicode="y" horiz-adv-x="638" d="M0 1024h131q10 -6 19 -27q6 -16 12 -46.5t6 -78.5v-483q0 -16 3 -39.5t13.5 -46t32 -38t55.5 -15.5q33 0 53.5 13t32 33.5t15.5 43t4 39.5v645h160v-1001q0 -141 -73 -227.5t-192 -86.5q-59 0 -107 22.5t-83 64.5t-54.5 99.5t-19.5 127.5q0 74 31 145q23 -25 57.5 -51.5 t79.5 -34.5q-4 -14 -6 -28.5t-2 -30.5q0 -6 2 -32t12.5 -53.5t30.5 -49t59 -21.5q35 0 55.5 17.5t32 42t14.5 51t3 45.5v135q-55 -49 -137 -49q-104 0 -168 76.5t-64 203.5v483q0 49 -1 79t-3 46q-2 18 -4 27z" />
<glyph unicode="z" horiz-adv-x="608" d="M0 2l287 862h-256v160h475l-285 -862h254v-160h-475z" />
<glyph unicode="{" horiz-adv-x="2293" d="M135 -205h37l21 -96l18 96h37l18 -96l23 96h35l-37 -127v-6h-37l-21 96l-20 -96h-37l-37 129v4zM205 625v579l315 68l-12 43l47 14l-10 47l49 10l-6 52l47 4v47h43l4 43l47 -6l8 47l51 -8l13 47l45 -13l18 43l47 -18l25 45l43 -22l25 41l43 -29l30 39l39 -31l33 33 l31 -29l30 27l31 -35l41 27l27 -43l45 24l22 -41l43 19l21 -47l49 14l14 -45l45 10l11 -49l51 4l2 -31l473 103v-580l-217 -47l4 -4l-27 -31l27 -33l-37 -30l27 -41l-43 -27l26 -43l-43 -24l19 -43l-47 -21l16 -49l-45 -14l8 -46l-49 -10l4 -51l-47 -4v-47h-41l-6 -43l-45 4 l-10 -45l-50 8l-14 -47l-45 14l-16 -47l-50 21l-22 -45l-43 22l-27 -41l-43 27l-28 -37l-37 31l-35 -33l-31 29l-33 -29l-28 37l-41 -27l-29 43l-43 -24l-22 41l-45 -19l-21 47l-47 -14l-14 45l-47 -10l-11 49l-49 -4l-6 47h-47v43l-41 4l4 47l-47 8l10 49l-49 15l14 45 l-32 12zM330 -205h35l22 -96l19 96h34l21 -96l20 96h37l-37 -127l-2 -6h-35l-22 96l-21 -96h-36l-35 129v4zM334 51q0 12 2 19q0 4 2 9t2 9q2 14 16 29q4 6 11.5 11t15.5 9q10 4 19.5 6t19.5 2h6q6 0 18 -4q6 0 10.5 -2t8.5 -4q14 -8 24 -22q4 -6 9 -15q2 -4 2 -12h-39 q0 6 -4 10q-2 6 -13 13q-10 6 -20 6q-6 0 -10 -2h-8l-17 -13q-4 -4 -7 -8t-5 -10q-4 -10 -4 -33q0 -18 6 -33q2 -14 14 -18q6 -4 11.5 -6t11.5 -4h6q14 0 20 6q8 0 15 10q4 6 7 11t3 12h-43v32h76v-98h-25l-4 23q-6 -10 -16 -17q-6 -4 -11.5 -5t-9.5 -5q-6 0 -11 -1t-11 -1 q-18 0 -29 8q-17 7 -25 19q-12 12 -18 30t-6 39zM334 788q0 -2 2 -4h10l10 7l13 12l8 12l12 12q2 4 10 13l74 102q6 10 12.5 17.5t10.5 17.5l24 37q6 10 12.5 18t10.5 19q6 10 11 18t9 18q2 6 0 9q-2 2 -6 2q-8 0 -10 -2l-10 -6l-21 -23l-18 -25q-10 -10 -17 -22l-18 -23 l-66 -94l-30 -49q-8 -12 -14.5 -24.5t-12.5 -24.5l-4 -6q0 -2 -1 -3t-1 -3v-5zM383 1004q2 -8 12 -15l21 -6q16 0 26 2q4 0 7 2q2 2 2 4t-2 2h-7q-4 0 -4 -2q-20 -2 -35 4q-8 4 -10 9q-4 8 -4 12q0 8 2 14l8 17l21 22q4 4 11 9t13 9q8 4 14.5 8.5t14.5 8.5t15.5 7t15.5 7 q8 2 15 4t18 6l32 7q20 4 31 4q10 0 27 -4q4 -2 9 -3.5t9 -5.5l10 -14q2 -6 2 -20q0 -6 -4 -23l-12 -22q-4 -8 -16 -25q-4 -6 -10.5 -11t-12.5 -12q-4 -6 -11 -11t-13 -11l-27 -16l-29 -13l-16 -6q-6 0 -14 -4h-7q-4 0 -6 -2q-4 0 -4 -2q-4 0 -4 -4q0 -2 2 -2h6q4 0 6 2h7 l30 10l31 12l31 15l30 18l27 19l25 22l20 23q4 6 7 12t5 12q6 12 7 23q2 12 0 20q-4 12 -9 19q-8 6 -16 10q-12 6 -23 6q-10 2 -28 2q-8 0 -29 -4q-16 -2 -32.5 -6t-32.5 -8t-32 -11.5t-32 -15.5q-8 -4 -15 -8t-16 -10q-16 -10 -26 -21q-8 -6 -21 -22l-10 -23q-2 -12 0 -20z M522 31q0 10 1 17t5 15q6 16 21 25q8 6 17 7t20 1q27 0 35 -8q12 -8 20 -27q4 -10 5 -18t1 -18v-9h-92q0 -12 10 -22q6 -8 23 -8q6 0 14 4q8 8 8 10h37q-4 -10 -12 -23q-6 -4 -11.5 -8t-9.5 -6q-8 -2 -13 -4t-13 -2q-66 0 -66 74zM522 -205h37l21 -96l18 96h37l18 -96l21 96 h37l-37 -127l-2 -6h-35l-21 96l-22 -96h-35l-37 129v4zM559 41h53q-4 12 -8 20q-4 4 -8 6.5t-10 2.5q-23 0 -27 -29zM641 803h2q23 0 23 -19v-55q0 -14 12 -27l18 -6q6 -2 23 -2q16 0 29 4q8 4 12 9q10 8 10 26v58l10 10h2l2 2h9v4h-56v-4h13q2 0 3 -1t3 -1q12 -6 12 -27 v-39q0 -16 -10 -26l-15 -11h-18q-14 0 -20 4q-4 0 -13 9q-4 4 -4 18v55q0 12 4 15q4 4 17 4h8v4h-76v-4zM657 70v24h19v35h35v-35h20v-24h-20v-72q0 -8 2 -10q2 0 5 -1t7 -1l4 2h2v-27h-20q-16 0 -23 4q-8 0 -10 8q-2 4 -2 15v82h-19zM657 924q2 -6 11 -15q12 -8 26 -6 q16 0 33 6q18 6 37 19q18 8 37 24l28 25l17 18q0 2 4 6q0 4 4 5l4 8l19 18l18 25q6 6 11 12t9 12l9 -4l4 -6q2 -4 2 -8q0 -2 -8 -10l-19 -21l-16 -22l-15 -23l-6 -20q-2 -4 -2 -11v-8q4 -6 6 -8t9 -2q4 0 20 4l19 12q16 12 24 21q6 4 11 10t10 10q8 8 10 13l10 12l4 6l6 6 q4 4 4 6l15 19l24 35q0 -4 1 -8.5t1 -8.5q4 -12 4 -16l5 -8q-20 -8 -29 -15l-23 -18q-12 -12 -14 -21q-4 -8 -4 -20q2 -6 12 -10q7 -2 23 -2q14 2 28 10q14 6 27 18q10 6 18 21l11 20q6 12 6 23v18q0 6 -4 19l-8 18l-7 8q0 4 -4 8q0 2 -4 7v6q2 2 2 4h-10l-4 -4 q-6 -2 -14 -11l-7 -14l-2 -2l-6 -8l-37 -51l-6 -8l-6 -11l-2 -2v-2q-2 0 -4 -2l-6 -10l-6 -8l-19 -23l-24 -22q-6 -6 -15 -9q-8 -4 -14 -4h-2l2 2l8 13l8 10l9 12q4 2 8 10l10 17l10 18l6 17q2 6 2 16q-2 2 -2 8l-4 6q0 4 -2 7v26l8 12q4 10 -4 15q-6 6 -20 0q-14 -4 -19 -8 q-8 -6 -12 -15q-4 -8 -4 -14q0 -8 2 -12l4 -4l4 -5l-6 -8l-6 -6l-29 -37l-22 -26q-2 0 -6 -4v-3l-2 -2q0 -2 -2 -2l-13 -16q-8 -8 -15 -15.5t-18 -13.5q-20 -16 -38 -24q-4 -4 -10.5 -5t-12.5 -5q-16 -4 -22 -3q-8 0 -9 5q-2 2 -2 8q0 2 4 10l4 10l13 21q8 -4 14 -4 q12 0 21 2q14 2 30 12q10 4 29 18l18 19q4 4 7.5 9t5.5 9l8 17q0 12 -4 16q-4 6 -10 10q-6 2 -21 2q-4 -2 -10 -2t-12 -4q-8 -2 -25 -10q-27 -12 -51 -33q-23 -18 -35 -41q-6 -6 -14 -22q-6 -10 -9 -23v-20zM711 -301h37v-37h-37v37zM723 983l18 25l21 24l8 10q4 4 6 5.5 t4 5.5l13 10l14 6q10 2 16 0q2 -4 0 -12l-6 -10q-4 -4 -8 -13q-4 -4 -5 -6t-5 -4q-2 -4 -11 -12q-4 -6 -10 -11q-8 -8 -12 -10l-14 -8q-12 -4 -15 -4q-6 0 -14 4zM780 -205h33v-20q12 25 39 24q14 0 20 -6q10 -4 17 -16q4 10 14 16q8 6 21 6q16 0 26 -8q8 -6 15 -16 q4 -4 4 -21v-92h-33v80q0 27 -21 27q-23 0 -22 -27v-80h-37v92q0 6 -6 13q-4 2 -14 2q-23 0 -23 -25v-82h-33v133zM807 776q0 -6 6 -12q0 -2 6 -8l15 -6q2 -2 8 -3.5t16 -5.5l8 -2q12 -4 17 -4q4 0 8 -4q2 0 4 -2q6 -6 6 -12q0 -2 -4 -10q-2 -2 -10 -9h-13q-12 0 -18 2 l-20 9l-13 12q-10 14 -10 24h-4v-51h4q0 8 4 8q4 4 10 5q2 0 2 -1t5 -1q2 0 3 -1.5t5 -1.5l16 -6q4 -2 16 -2q6 0 19 4q4 0 7 2t7 7q4 2 4 4t4 6v22l-6 9q-6 4 -14 8l-21 8h-12l-2 2l-16 4q-4 2 -6 2t-4 2q-2 0 -7 4q-4 4 -4 8q0 6 2 9q0 -2 4 6l9 4q4 0 6 1t6 1q8 0 16 -4 q10 0 17 -6q8 -4 12 -9q4 -4 5 -9t5 -11h4v37h-4q-2 -8 -8 -8t-10 2q-20 10 -37 10q-10 0 -23 -4l-14 -10q-6 -10 -6 -19zM809 70v24h18v10q0 37 39 37h19v-26h-11q-6 0 -8 -2q-4 0 -4 -4v-15h23v-24h-23v-109h-35v109h-18zM905 6v88h35v-82q0 -25 23 -24q8 0 12 2t12 10 q0 4 2 8t2 8v78h33v-133h-33v19q-6 -10 -16 -15q-16 -8 -25 -8q-20 0 -32 14q-12 12 -13 35zM928 696h119v45q-4 -4 -4.5 -7t-2.5 -7l-12 -16q-6 -6 -10 -6l-10 -5q-6 -2 -15 -2h-18v50h2q14 0 22 -9l5 -6q0 -2 1 -3t1 -5q2 -4 2 -10h2v71h-2v-10l-7 -12q-10 -12 -20 -12h-6 v51h20q18 0 25 -2l10 -8l6 -13l6 -16h5v43h-119v-4h4q10 0 12 -4q6 -4 6 -15v-65q0 -20 -18 -21h-4v-2zM987 979v10l4 12l8 11q10 12 23 20l27 12q0 -4 1 -6t1 -6q-2 -4 -2 -10q0 -4 -1 -6t-1 -6l-5 -11q-2 -4 -10 -12l-8 -6q-4 -4 -10 -4q-2 -2 -10 -2q-4 -4 -9 0 q-4 0 -8 4zM991 -303q0 20 13 31q8 8 26 12l33 4q10 4 10 10q0 16 -20 17q-4 0 -8.5 -1t-8.5 -1q-2 -4 -4 -8.5t-2 -8.5h-33q0 14 7 27q12 12 20 14l12 4q4 0 8.5 1t8.5 1q27 0 37 -8q10 -6 16 -14q2 -6 2 -17v-71q0 -11 2 -15q0 -6 6 -6v-6h-37q0 2 -2 4v2q-2 4 -2 10 q-8 -8 -12 -10l-12 -6q-4 -2 -17 -2q-14 0 -18 2q-10 2 -17 14q-8 6 -8 21zM1026 -301q0 -8 6 -10q4 -4 12 -4h7q2 0 3 1t3 1l12 8q4 4 4 14v19q-6 -6 -12 -7l-17 -2l-12 -6q-6 -6 -6 -14zM1057 -39v180h35v-180h-35zM1118 -39v180h33v-180h-33zM1120 752q0 -16 4 -23 q8 -12 15 -18q4 -4 10 -6.5t12 -6.5q16 -4 25 -4q23 0 33 8q12 7 24 21q8 10 8 29q0 12 -4 20t-12 19q-10 10 -23 12q-12 6 -26 6q-23 0 -33 -8q-10 -4 -15 -9.5t-10 -11.5q-8 -14 -8 -28zM1126 -205h37l21 -96l18 96h35l20 -96l23 96h35l-37 -127v-6h-37l-20 96l-21 -96 h-37l-37 129v4zM1133 1018q0 -6 4 -10t12 -9q4 0 6 -1t6 1h15q10 2 30 11l31 16l27 23l22 20l17 23l12 20l6 21q2 12 0 18q0 6 -6 12q-2 4 -12 8q-4 0 -8.5 1.5t-8.5 1.5q-6 0 -22 -5q-2 0 -15 -4l-14 -6l-29 -18q-8 -4 -14 -10.5t-12 -10.5l-21 -22l-14 -23 q-10 -17 -12 -31q-4 -14 0 -26zM1147 752q0 4 1 9t1 9l6 14q6 10 8 13q0 2 11 6q8 4 14 4q2 0 3 -1t5 -1l8 -4l10 -10q2 -4 4.5 -8.5t4.5 -10.5q0 -4 1 -9t1 -11q0 -12 -4 -29q-6 -12 -15 -21q-6 -4 -20 -4q-12 0 -15 4q-8 0 -14 11l-6 16q-4 12 -4 23zM1159 1020q0 4 2 6 q4 16 10 25q12 16 17 24l12 15l10 12l19 24q6 6 11 12.5t11 10.5l11 8l12 6q4 2 10 2q4 0 6 -4q2 -2 2 -8q0 -4 -4 -12l-6 -11l-6 -12q-4 -8 -8 -12l-8 -12q-4 -6 -8.5 -12.5t-8.5 -10.5l-18 -22l-23 -23q-6 -6 -12 -8q-6 -6 -14 -8q-5 -2 -11 -2l-4 4q-2 2 -2 8zM1241 70 v24h19v10q0 37 38 37h17v-26h-8q-8 0 -9 -2q-2 0 -4 -4v-15h25v-24h-25v-109h-34v109h-19zM1268 696h57v2q-6 0 -10 2q-4 0 -5 1t-5 1l-7 11q-2 2 -2 14v66l95 -97h4v78q0 12 6 23q2 6 18 6v4h-55v-4h10q0 -2 4 -2q8 -8 8 -10q4 -4 5 -17v-47l-78 80h-43v-4h2q8 0 10 -2 q4 0 5 -2t3 -2q2 -4 2 -11v-63q0 -8 -2 -12q-2 -6 -8 -9q-8 -4 -14 -4v-2zM1290 1022q2 0 3 -1t3 -1q6 0 11 2l10 6q0 2 4 6l4 4l6 6q0 2 4 7l21 24l22 25l21 24l24 25l25 22l10 11q4 2 12 10l13 8l14 6q2 0 2 -2h-2l-6 -6q-2 -6 -8 -8l-6 -8l-15 -17q-6 -6 -14 -18 q-12 -16 -16 -25l-17 -24q-4 -6 -8 -23q-4 -10 0 -18t10 -8q12 0 21 2q6 2 12 6t14 8q12 6 23 16l24 23l2 2q-2 -2 -2 -6q0 -8 5 -17q4 -8 12 -10q6 -2 22 2q20 8 29 15l25 18l8 8l8 8l16 15q-2 -2 -2 -6q0 -2 -1 -3.5t-1 -3.5v-8q-4 -6 0 -10q0 -4 1 -5t1 -3q2 -6 8 -6 q2 -2 9 -2q6 0 10 2l8 4l10 6l15 8l37 31l20 20l-6 -14q-4 -8 -4 -23v-6q4 -4 6 -4q0 -2 6 -2q2 0 10 4q4 2 7.5 3t7.5 5l12 9l12 12q4 2 13 10q6 4 11 10.5t11 12.5l21 24q2 2 2 4q-2 2 -5 2q-4 0 -8 -4l-4 -6l-14 -16l-12 -15q-4 -4 -7.5 -7t-7.5 -7l-16 -14l-8 -6l-11 -5 l-2 -2q-2 0 -4 2h2l9 17l4 8t6 8l8 13q4 4 8 12l74 108q12 12 16 21l19 18l43 49q10 12 19 24.5t20 25.5l12 20v10q-2 2 -10 2q-4 0 -13 -4q-4 0 -7 -2t-7 -4q-8 -4 -12 -8l-10 -8q-6 -4 -12.5 -9.5t-12.5 -11.5l-21 -22q-8 -8 -20 -25q-4 -8 -16 -24q-10 -12 -17.5 -24.5 t-15.5 -25.5l-31 -51l-22 -39l-9 -18q-2 0 -2 -2l-16 -17q-4 -6 -10 -11t-13 -11l-22 -21l-10 -8l-9 -6l-4 -2l-6 -4h-6h-4l6 12l6 10q0 2 1 2.5t1 2.5l2 2q4 8 9.5 15t11.5 15q4 8 9 16.5t11 16.5l17 25l8 14q4 4 8 12l2 2l2 2q0 2 1 2t1 3l2 2q6 4 4 8q0 2 -8 2l-12 -4 l-12 -6l-21 -15l-8 -8l-8 -8q0 8 -2 12q0 4 -8 8q-12 2 -25 0q-12 -4 -27 -10q-16 -6 -26 -14q-8 -4 -13.5 -9.5l-9.5 -9.5q-29 -23 -43 -45q-18 -23 -24 -43q-2 0 -2 -1t-3 -1q-4 -4 -9 -10t-11 -10q-8 -8 -25 -21q-6 -6 -14 -8q-8 -4 -12 -4h-4q-2 2 0 4l8 10l6 11l14 16 l25 33q6 8 12 15t10 17l11 21q4 12 2 18q0 6 -2 9q-4 4 -8 4q-6 0 -11 -2l-14 -7l-14 -8q-8 -8 -13 -10q-8 -8 -12 -10q-8 -8 -12 -10l-25 -25q-6 -6 -12 -11t-10 -12l-13 -14l-12 -12l4 6l29 41l31 43q0 2 1 2t1 2q2 2 2 4q2 4 2 8l-6 6q-2 0 -3.5 1.5t-5.5 1.5 q-2 0 -4 -1.5t-6 -1.5l-12 -6l-6 -6q-4 -2 -4 -4t-2 -4l-7 -8l-90 -156q-2 -2 -2 -8zM1329 27q0 10 4 26q2 12 13 23q12 12 22 16q8 4 29 4q20 0 30 -4q4 -4 9.5 -6t9.5 -6q10 -12 14 -25q4 -12 4 -28q0 -20 -8 -35q-6 -14 -22 -25q-16 -10 -37 -10q-23 0 -39 10 q-12 10 -23 27q-6 14 -6 33zM1331 -205h35v-20q14 25 41 24q13 0 25 -6q10 -4 14 -14q6 -12 6 -25v-92h-35v80q0 16 -4 20q-2 6 -18 7q-14 0 -21 -9q-6 -10 -6 -22v-76h-37v133zM1364 27q0 -14 8 -27q4 -12 25 -12q20 0 24 12q8 8 9 27q0 20 -9 28q-6 12 -24 13 q-18 0 -25 -13q-8 -12 -8 -28zM1425 696h125v49h-2q-4 -4 -4 -7t-2 -7q-4 -4 -4 -10q-2 -2 -6 -8q-8 -8 -14 -11q-4 -4 -17 -4h-28v86q0 10 6 15q4 4 14 4h8v4h-76v-4h7q18 0 18 -19v-65q0 -20 -18 -21h-7v-2zM1477 -295h34q0 -18 31 -18q10 0 17 2q4 8 4 10q0 8 -15 10 l-30 8q-6 2 -13.5 5.5t-11.5 7.5q-12 8 -12 24q0 12 6 23q4 8 18 16q8 6 29 6q12 0 21.5 -2t17.5 -6q12 -6 16 -16l4 -11v-10h-34q0 10 -7 15q-2 2 -16 2q-20 0 -20 -13q0 -6 12 -8l31 -8q12 -2 28 -12q10 -6 10 -25q0 -12 -6 -24q-8 -10 -20 -17q-8 -4 -31 -4h-12 q-8 0 -12 2q-12 4 -21 8q-12 8 -14 15q-4 12 -4 20zM1489 -39v133h33v-18q14 20 41 20q18 0 24 -4l17 -14q6 -12 6 -25v-92h-35v80q0 8 -4 20q-6 6 -21 7q-14 0 -20 -9q-4 -6 -4 -22v-76h-37zM1542 1090l2 4q0 2 2 4q4 8 8 12l9 12q2 4 4 7.5t4 7.5t10 12l21 29l30 36l8 11 l9 8l10 6q4 2 10 2q4 2 10 2l7 -4q0 -2 1 -3t1 -5t-2 -8q0 -4 -5 -9l-18 -24l-16 -27l-19 -18l-18 -21q-4 -2 -13 -10l-14 -12q-8 -4 -12 -8q-4 -2 -6 -4.5t-6 -2.5q-8 -4 -13 -2h-2q-2 2 -2 5zM1544 803h2q12 0 17 -2l6 -6t4 -7l35 -45v-24q0 -10 -4 -14q-4 -2 -8.5 -4.5 t-8.5 -2.5h-6v-2h78v2h-8q-8 0 -15 7q-6 2 -6 14v26l29 39l6 9q8 4 10 4q2 4 6 4q4 2 11 2v4h-56v-4h6q10 0 13 -2q4 -2 4 -8q0 -4 -6 -13l-23 -30l-28 36q-4 8 -5 9v2q0 4 2 4q0 2 7 2h10v4h-72v-4zM1624 -301h37v-37h-37v37zM1626 70v24h21v35h32v-35h23v-24h-23v-72 q0 -4 1 -6t1 -4q4 0 6.5 -1t6.5 -1l4 2h4v-27h-23q-16 0 -20 4q-10 0 -12 8v97h-21zM1686 -274q0 29 12 51q16 23 47 22q18 0 31 -6q14 -4 20 -18q10 -10 10 -27h-37q0 6 -4 14q-4 7 -16 7q-16 0 -20 -11q-8 -8 -9 -26q0 -18 2 -25q2 -10 9 -14q4 -4 16 -4q10 0 16 4 q6 6 6 18h37q0 -10 -8 -26q-6 -10 -20 -19q-12 -6 -33 -6q-27 0 -43 14q-8 8 -14 21q-2 8 -2 31zM1784 -2q0 20 10 29q12 8 29 12l30 4q12 2 13 10q0 16 -21 17q-8 0 -16 -4q-6 -2 -8 -17h-33q2 18 8 29q4 8 19 14q8 4 14 4h16q27 0 37 -4l8 -8t6 -8q4 -12 5 -17v-86 q0 -6 8 -6v-6h-39q-2 0 -2 2v2v2q0 4 -1 6t-1 4q-4 -6 -11 -10q-4 -2 -7 -4t-5 -2l-9 -3t-9 -1t-19 4q-4 4 -8 6t-8 6q-6 8 -6 25zM1819 -2q0 -10 4 -10q4 -4 12 -4h8h2l4 2q8 4 13 8q4 8 4 16v17q-6 -6 -15 -7l-16 -4q-6 0 -12 -6q-4 -2 -4 -12zM1823 -272q0 18 4 26 q2 8 5 13.5t7 11.5q12 12 23 14q8 6 28 6q16 0 29 -6q9 -2 23 -12q4 -4 6 -10.5t6 -12.5q4 -8 4 -30q0 -20 -8 -35q-6 -14 -23 -25q-14 -8 -37 -8q-27 0 -39 10q-14 10 -22 25q-6 14 -6 33zM1860 -272q0 -14 6 -27q6 -12 24 -12q19 0 25 12q4 6 5 13t1 14q0 23 -6 30 q-6 10 -25 11q-18 0 -24 -11q-6 -12 -6 -30zM1894 1329l33 45l17 27l30 41l2 2q0 4 4 4q0 2 2 2q2 2 3 0q0 -4 -5 -12l-8 -13l-8 -10q-4 -8 -8 -10l-19 -25l-20 -24l-12 -15q-2 -4 -11 -12zM1917 70v24h16v35h37v-35h23v-24h-23v-72q0 -4 1 -6t1 -4q2 0 4 -1t6 -1l7 2h4v-27 h-23q-16 0 -22 4q-8 0 -11 8q0 4 -2 7.5t-2 7.5v82h-16zM1982 -205h33v-20q14 25 39 24q16 0 23 -6q8 -4 14 -16q4 8 16 16q6 6 21 6q16 0 24 -8q13 -6 15 -16q6 -6 6 -21v-92h-35v80q0 27 -20 27q-23 0 -23 -27v-80h-35v80q0 10 -2 12q0 6 -6 13q-4 2 -12 2q-23 0 -23 -25 v-82h-35v133z" />
<glyph unicode="|" horiz-adv-x="260" d="M0 0v1309h158v-1309h-158z" />
<glyph unicode="}" horiz-adv-x="2310" d="M135 -205h37l21 -96l18 96h37l18 -96l23 96h35l-37 -127v-6h-37l-21 96l-20 -96h-37l-37 129v4zM205 625v579l315 68l-12 43l47 14l-10 47l49 10l-6 52l47 4v47h43l4 43l47 -6l8 47l51 -8l13 47l45 -13l18 43l47 -18l25 45l43 -22l25 41l43 -29l30 39l39 -31l33 33 l31 -29l30 27l31 -35l41 27l27 -43l45 24l22 -41l43 19l21 -47l49 14l14 -45l45 10l11 -49l51 4l2 -31l473 103v-580l-217 -47l4 -4l-27 -31l27 -33l-37 -30l27 -41l-43 -27l26 -43l-43 -24l19 -43l-47 -21l16 -49l-45 -14l8 -46l-49 -10l4 -51l-47 -4v-47h-41l-6 -43l-45 4 l-10 -45l-50 8l-14 -47l-45 14l-16 -47l-50 21l-22 -45l-43 22l-27 -41l-43 27l-28 -37l-37 31l-35 -33l-31 29l-33 -29l-28 37l-41 -27l-29 43l-43 -24l-22 41l-45 -19l-21 47l-47 -14l-14 45l-47 -10l-11 49l-49 -4l-6 47h-47v43l-41 4l4 47l-47 8l10 49l-49 15l14 45 l-32 12zM330 -205h35l22 -96l19 96h34l21 -96l20 96h37l-37 -127l-2 -6h-35l-22 96l-21 -96h-36l-35 129v4zM334 51q0 12 2 19q0 4 2 9t2 9q2 14 16 29q4 6 11.5 11t15.5 9q10 4 19.5 6t19.5 2h6q6 0 18 -4q6 0 10.5 -2t8.5 -4q14 -8 24 -22q4 -6 9 -15q2 -4 2 -12h-39 q0 6 -4 10q-2 6 -13 13q-10 6 -20 6q-6 0 -10 -2h-8l-17 -13q-4 -4 -7 -8t-5 -10q-4 -10 -4 -33q0 -18 6 -33q2 -14 14 -18q6 -4 11.5 -6t11.5 -4h6q14 0 20 6q8 0 15 10q4 6 7 11t3 12h-43v32h76v-98h-25l-4 23q-6 -10 -16 -17q-6 -4 -11.5 -5t-9.5 -5q-6 0 -11 -1t-11 -1 q-18 0 -29 8q-17 7 -25 19q-12 12 -18 30t-6 39zM334 788q0 -2 2 -4h10l10 7l13 12l8 12l12 12q2 4 10 13l74 102q6 10 12.5 17.5t10.5 17.5l24 37q6 10 12.5 18t10.5 19q6 10 11 18t9 18q2 6 0 9q-2 2 -6 2q-8 0 -10 -2l-10 -6l-21 -23l-18 -25q-10 -10 -17 -22l-18 -23 l-66 -94l-30 -49q-8 -12 -14.5 -24.5t-12.5 -24.5l-4 -6q0 -2 -1 -3t-1 -3v-5zM383 1004q2 -8 12 -15l21 -6q16 0 26 2q4 0 7 2q2 2 2 4t-2 2h-7q-4 0 -4 -2q-20 -2 -35 4q-8 4 -10 9q-4 8 -4 12q0 8 2 14l8 17l21 22q4 4 11 9t13 9q8 4 14.5 8.5t14.5 8.5t15.5 7t15.5 7 q8 2 15 4t18 6l32 7q20 4 31 4q10 0 27 -4q4 -2 9 -3.5t9 -5.5l10 -14q2 -6 2 -20q0 -6 -4 -23l-12 -22q-4 -8 -16 -25q-4 -6 -10.5 -11t-12.5 -12q-4 -6 -11 -11t-13 -11l-27 -16l-29 -13l-16 -6q-6 0 -14 -4h-7q-4 0 -6 -2q-4 0 -4 -2q-4 0 -4 -4q0 -2 2 -2h6q4 0 6 2h7 l30 10l31 12l31 15l30 18l27 19l25 22l20 23q4 6 7 12t5 12q6 12 7 23q2 12 0 20q-4 12 -9 19q-8 6 -16 10q-12 6 -23 6q-10 2 -28 2q-8 0 -29 -4q-16 -2 -32.5 -6t-32.5 -8t-32 -11.5t-32 -15.5q-8 -4 -15 -8t-16 -10q-16 -10 -26 -21q-8 -6 -21 -22l-10 -23q-2 -12 0 -20z M522 31q0 10 1 17t5 15q6 16 21 25q8 6 17 7t20 1q27 0 35 -8q12 -8 20 -27q4 -10 5 -18t1 -18v-9h-92q0 -12 10 -22q6 -8 23 -8q6 0 14 4q8 8 8 10h37q-4 -10 -12 -23q-6 -4 -11.5 -8t-9.5 -6q-8 -2 -13 -4t-13 -2q-66 0 -66 74zM522 -205h37l21 -96l18 96h37l18 -96l21 96 h37l-37 -127l-2 -6h-35l-21 96l-22 -96h-35l-37 129v4zM559 41h53q-4 12 -8 20q-4 4 -8 6.5t-10 2.5q-23 0 -27 -29zM641 803h2q23 0 23 -19v-55q0 -14 12 -27l18 -6q6 -2 23 -2q16 0 29 4q8 4 12 9q10 8 10 26v58l10 10h2l2 2h9v4h-56v-4h13q2 0 3 -1t3 -1q12 -6 12 -27 v-39q0 -16 -10 -26l-15 -11h-18q-14 0 -20 4q-4 0 -13 9q-4 4 -4 18v55q0 12 4 15q4 4 17 4h8v4h-76v-4zM657 70v24h19v35h35v-35h20v-24h-20v-72q0 -8 2 -10q2 0 5 -1t7 -1l4 2h2v-27h-20q-16 0 -23 4q-8 0 -10 8q-2 4 -2 15v82h-19zM657 924q2 -6 11 -15q12 -8 26 -6 q16 0 33 6q18 6 37 19q18 8 37 24l28 25l17 18q0 2 4 6q0 4 4 5l4 8l19 18l18 25q6 6 11 12t9 12l9 -4l4 -6q2 -4 2 -8q0 -2 -8 -10l-19 -21l-16 -22l-15 -23l-6 -20q-2 -4 -2 -11v-8q4 -6 6 -8t9 -2q4 0 20 4l19 12q16 12 24 21q6 4 11 10t10 10q8 8 10 13l10 12l4 6l6 6 q4 4 4 6l15 19l24 35q0 -4 1 -8.5t1 -8.5q4 -12 4 -16l5 -8q-20 -8 -29 -15l-23 -18q-12 -12 -14 -21q-4 -8 -4 -20q2 -6 12 -10q7 -2 23 -2q14 2 28 10q14 6 27 18q10 6 18 21l11 20q6 12 6 23v18q0 6 -4 19l-8 18l-7 8q0 4 -4 8q0 2 -4 7v6q2 2 2 4h-10l-4 -4 q-6 -2 -14 -11l-7 -14l-2 -2l-6 -8l-37 -51l-6 -8l-6 -11l-2 -2v-2q-2 0 -4 -2l-6 -10l-6 -8l-19 -23l-24 -22q-6 -6 -15 -9q-8 -4 -14 -4h-2l2 2l8 13l8 10l9 12q4 2 8 10l10 17l10 18l6 17q2 6 2 16q-2 2 -2 8l-4 6q0 4 -2 7v26l8 12q4 10 -4 15q-6 6 -20 0q-14 -4 -19 -8 q-8 -6 -12 -15q-4 -8 -4 -14q0 -8 2 -12l4 -4l4 -5l-6 -8l-6 -6l-29 -37l-22 -26q-2 0 -6 -4v-3l-2 -2q0 -2 -2 -2l-13 -16q-8 -8 -15 -15.5t-18 -13.5q-20 -16 -38 -24q-4 -4 -10.5 -5t-12.5 -5q-16 -4 -22 -3q-8 0 -9 5q-2 2 -2 8q0 2 4 10l4 10l13 21q8 -4 14 -4 q12 0 21 2q14 2 30 12q10 4 29 18l18 19q4 4 7.5 9t5.5 9l8 17q0 12 -4 16q-4 6 -10 10q-6 2 -21 2q-4 -2 -10 -2t-12 -4q-8 -2 -25 -10q-27 -12 -51 -33q-23 -18 -35 -41q-6 -6 -14 -22q-6 -10 -9 -23v-20zM711 -301h37v-37h-37v37zM723 983l18 25l21 24l8 10q4 4 6 5.5 t4 5.5l13 10l14 6q10 2 16 0q2 -4 0 -12l-6 -10q-4 -4 -8 -13q-4 -4 -5 -6t-5 -4q-2 -4 -11 -12q-4 -6 -10 -11q-8 -8 -12 -10l-14 -8q-12 -4 -15 -4q-6 0 -14 4zM780 -205h33v-20q12 25 39 24q14 0 20 -6q10 -4 17 -16q4 10 14 16q8 6 21 6q16 0 26 -8q8 -6 15 -16 q4 -4 4 -21v-92h-33v80q0 27 -21 27q-23 0 -22 -27v-80h-37v92q0 6 -6 13q-4 2 -14 2q-23 0 -23 -25v-82h-33v133zM807 776q0 -6 6 -12q0 -2 6 -8l15 -6q2 -2 8 -3.5t16 -5.5l8 -2q12 -4 17 -4q4 0 8 -4q2 0 4 -2q6 -6 6 -12q0 -2 -4 -10q-2 -2 -10 -9h-13q-12 0 -18 2 l-20 9l-13 12q-10 14 -10 24h-4v-51h4q0 8 4 8q4 4 10 5q2 0 2 -1t5 -1q2 0 3 -1.5t5 -1.5l16 -6q4 -2 16 -2q6 0 19 4q4 0 7 2t7 7q4 2 4 4t4 6v22l-6 9q-6 4 -14 8l-21 8h-12l-2 2l-16 4q-4 2 -6 2t-4 2q-2 0 -7 4q-4 4 -4 8q0 6 2 9q0 -2 4 6l9 4q4 0 6 1t6 1q8 0 16 -4 q10 0 17 -6q8 -4 12 -9q4 -4 5 -9t5 -11h4v37h-4q-2 -8 -8 -8t-10 2q-20 10 -37 10q-10 0 -23 -4l-14 -10q-6 -10 -6 -19zM809 70v24h18v10q0 37 39 37h19v-26h-11q-6 0 -8 -2q-4 0 -4 -4v-15h23v-24h-23v-109h-35v109h-18zM905 6v88h35v-82q0 -25 23 -24q8 0 12 2t12 10 q0 4 2 8t2 8v78h33v-133h-33v19q-6 -10 -16 -15q-16 -8 -25 -8q-20 0 -32 14q-12 12 -13 35zM928 696h119v45q-4 -4 -4.5 -7t-2.5 -7l-12 -16q-6 -6 -10 -6l-10 -5q-6 -2 -15 -2h-18v50h2q14 0 22 -9l5 -6q0 -2 1 -3t1 -5q2 -4 2 -10h2v71h-2v-10l-7 -12q-10 -12 -20 -12h-6 v51h20q18 0 25 -2l10 -8l6 -13l6 -16h5v43h-119v-4h4q10 0 12 -4q6 -4 6 -15v-65q0 -20 -18 -21h-4v-2zM987 979v10l4 12l8 11q10 12 23 20l27 12q0 -4 1 -6t1 -6q-2 -4 -2 -10q0 -4 -1 -6t-1 -6l-5 -11q-2 -4 -10 -12l-8 -6q-4 -4 -10 -4q-2 -2 -10 -2q-4 -4 -9 0 q-4 0 -8 4zM991 -303q0 20 13 31q8 8 26 12l33 4q10 4 10 10q0 16 -20 17q-4 0 -8.5 -1t-8.5 -1q-2 -4 -4 -8.5t-2 -8.5h-33q0 14 7 27q12 12 20 14l12 4q4 0 8.5 1t8.5 1q27 0 37 -8q10 -6 16 -14q2 -6 2 -17v-71q0 -11 2 -15q0 -6 6 -6v-6h-37q0 2 -2 4v2q-2 4 -2 10 q-8 -8 -12 -10l-12 -6q-4 -2 -17 -2q-14 0 -18 2q-10 2 -17 14q-8 6 -8 21zM1026 -301q0 -8 6 -10q4 -4 12 -4h7q2 0 3 1t3 1l12 8q4 4 4 14v19q-6 -6 -12 -7l-17 -2l-12 -6q-6 -6 -6 -14zM1057 -39v180h35v-180h-35zM1118 -39v180h33v-180h-33zM1120 752q0 -16 4 -23 q8 -12 15 -18q4 -4 10 -6.5t12 -6.5q16 -4 25 -4q23 0 33 8q12 7 24 21q8 10 8 29q0 12 -4 20t-12 19q-10 10 -23 12q-12 6 -26 6q-23 0 -33 -8q-10 -4 -15 -9.5t-10 -11.5q-8 -14 -8 -28zM1126 -205h37l21 -96l18 96h35l20 -96l23 96h35l-37 -127v-6h-37l-20 96l-21 -96 h-37l-37 129v4zM1133 1018q0 -6 4 -10t12 -9q4 0 6 -1t6 1h15q10 2 30 11l31 16l27 23l22 20l17 23l12 20l6 21q2 12 0 18q0 6 -6 12q-2 4 -12 8q-4 0 -8.5 1.5t-8.5 1.5q-6 0 -22 -5q-2 0 -15 -4l-14 -6l-29 -18q-8 -4 -14 -10.5t-12 -10.5l-21 -22l-14 -23 q-10 -17 -12 -31q-4 -14 0 -26zM1147 752q0 4 1 9t1 9l6 14q6 10 8 13q0 2 11 6q8 4 14 4q2 0 3 -1t5 -1l8 -4l10 -10q2 -4 4.5 -8.5t4.5 -10.5q0 -4 1 -9t1 -11q0 -12 -4 -29q-6 -12 -15 -21q-6 -4 -20 -4q-12 0 -15 4q-8 0 -14 11l-6 16q-4 12 -4 23zM1159 1020q0 4 2 6 q4 16 10 25q12 16 17 24l12 15l10 12l19 24q6 6 11 12.5t11 10.5l11 8l12 6q4 2 10 2q4 0 6 -4q2 -2 2 -8q0 -4 -4 -12l-6 -11l-6 -12q-4 -8 -8 -12l-8 -12q-4 -6 -8.5 -12.5t-8.5 -10.5l-18 -22l-23 -23q-6 -6 -12 -8q-6 -6 -14 -8q-5 -2 -11 -2l-4 4q-2 2 -2 8zM1241 70 v24h19v10q0 37 38 37h17v-26h-8q-8 0 -9 -2q-2 0 -4 -4v-15h25v-24h-25v-109h-34v109h-19zM1268 696h57v2q-6 0 -10 2q-4 0 -5 1t-5 1l-7 11q-2 2 -2 14v66l95 -97h4v78q0 12 6 23q2 6 18 6v4h-55v-4h10q0 -2 4 -2q8 -8 8 -10q4 -4 5 -17v-47l-78 80h-43v-4h2q8 0 10 -2 q4 0 5 -2t3 -2q2 -4 2 -11v-63q0 -8 -2 -12q-2 -6 -8 -9q-8 -4 -14 -4v-2zM1290 1022q2 0 3 -1t3 -1q6 0 11 2l10 6q0 2 4 6l4 4l6 6q0 2 4 7l21 24l22 25l21 24l24 25l25 22l10 11q4 2 12 10l13 8l14 6q2 0 2 -2h-2l-6 -6q-2 -6 -8 -8l-6 -8l-15 -17q-6 -6 -14 -18 q-12 -16 -16 -25l-17 -24q-4 -6 -8 -23q-4 -10 0 -18t10 -8q12 0 21 2q6 2 12 6t14 8q12 6 23 16l24 23l2 2q-2 -2 -2 -6q0 -8 5 -17q4 -8 12 -10q6 -2 22 2q20 8 29 15l25 18l8 8l8 8l16 15q-2 -2 -2 -6q0 -2 -1 -3.5t-1 -3.5v-8q-4 -6 0 -10q0 -4 1 -5t1 -3q2 -6 8 -6 q2 -2 9 -2q6 0 10 2l8 4l10 6l15 8l37 31l20 20l-6 -14q-4 -8 -4 -23v-6q4 -4 6 -4q0 -2 6 -2q2 0 10 4q4 2 7.5 3t7.5 5l12 9l12 12q4 2 13 10q6 4 11 10.5t11 12.5l21 24q2 2 2 4q-2 2 -5 2q-4 0 -8 -4l-4 -6l-14 -16l-12 -15q-4 -4 -7.5 -7t-7.5 -7l-16 -14l-8 -6l-11 -5 l-2 -2q-2 0 -4 2h2l9 17l4 8t6 8l8 13q4 4 8 12l74 108q12 12 16 21l19 18l43 49q10 12 19 24.5t20 25.5l12 20v10q-2 2 -10 2q-4 0 -13 -4q-4 0 -7 -2t-7 -4q-8 -4 -12 -8l-10 -8q-6 -4 -12.5 -9.5t-12.5 -11.5l-21 -22q-8 -8 -20 -25q-4 -8 -16 -24q-10 -12 -17.5 -24.5 t-15.5 -25.5l-31 -51l-22 -39l-9 -18q-2 0 -2 -2l-16 -17q-4 -6 -10 -11t-13 -11l-22 -21l-10 -8l-9 -6l-4 -2l-6 -4h-6h-4l6 12l6 10q0 2 1 2.5t1 2.5l2 2q4 8 9.5 15t11.5 15q4 8 9 16.5t11 16.5l17 25l8 14q4 4 8 12l2 2l2 2q0 2 1 2t1 3l2 2q6 4 4 8q0 2 -8 2l-12 -4 l-12 -6l-21 -15l-8 -8l-8 -8q0 8 -2 12q0 4 -8 8q-12 2 -25 0q-12 -4 -27 -10q-16 -6 -26 -14q-8 -4 -13.5 -9.5l-9.5 -9.5q-29 -23 -43 -45q-18 -23 -24 -43q-2 0 -2 -1t-3 -1q-4 -4 -9 -10t-11 -10q-8 -8 -25 -21q-6 -6 -14 -8q-8 -4 -12 -4h-4q-2 2 0 4l8 10l6 11l14 16 l25 33q6 8 12 15t10 17l11 21q4 12 2 18q0 6 -2 9q-4 4 -8 4q-6 0 -11 -2l-14 -7l-14 -8q-8 -8 -13 -10q-8 -8 -12 -10q-8 -8 -12 -10l-25 -25q-6 -6 -12 -11t-10 -12l-13 -14l-12 -12l4 6l29 41l31 43q0 2 1 2t1 2q2 2 2 4q2 4 2 8l-6 6q-2 0 -3.5 1.5t-5.5 1.5 q-2 0 -4 -1.5t-6 -1.5l-12 -6l-6 -6q-4 -2 -4 -4t-2 -4l-7 -8l-90 -156q-2 -2 -2 -8zM1329 27q0 10 4 26q2 12 13 23q12 12 22 16q8 4 29 4q20 0 30 -4q4 -4 9.5 -6t9.5 -6q10 -12 14 -25q4 -12 4 -28q0 -20 -8 -35q-6 -14 -22 -25q-16 -10 -37 -10q-23 0 -39 10 q-12 10 -23 27q-6 14 -6 33zM1331 -205h35v-20q14 25 41 24q13 0 25 -6q10 -4 14 -14q6 -12 6 -25v-92h-35v80q0 16 -4 20q-2 6 -18 7q-14 0 -21 -9q-6 -10 -6 -22v-76h-37v133zM1364 27q0 -14 8 -27q4 -12 25 -12q20 0 24 12q8 8 9 27q0 20 -9 28q-6 12 -24 13 q-18 0 -25 -13q-8 -12 -8 -28zM1425 696h125v49h-2q-4 -4 -4 -7t-2 -7q-4 -4 -4 -10q-2 -2 -6 -8q-8 -8 -14 -11q-4 -4 -17 -4h-28v86q0 10 6 15q4 4 14 4h8v4h-76v-4h7q18 0 18 -19v-65q0 -20 -18 -21h-7v-2zM1477 -295h34q0 -18 31 -18q10 0 17 2q4 8 4 10q0 8 -15 10 l-30 8q-6 2 -13.5 5.5t-11.5 7.5q-12 8 -12 24q0 12 6 23q4 8 18 16q8 6 29 6q12 0 21.5 -2t17.5 -6q12 -6 16 -16l4 -11v-10h-34q0 10 -7 15q-2 2 -16 2q-20 0 -20 -13q0 -6 12 -8l31 -8q12 -2 28 -12q10 -6 10 -25q0 -12 -6 -24q-8 -10 -20 -17q-8 -4 -31 -4h-12 q-8 0 -12 2q-12 4 -21 8q-12 8 -14 15q-4 12 -4 20zM1489 -39v133h33v-18q14 20 41 20q18 0 24 -4l17 -14q6 -12 6 -25v-92h-35v80q0 8 -4 20q-6 6 -21 7q-14 0 -20 -9q-4 -6 -4 -22v-76h-37zM1542 1090l2 4q0 2 2 4q4 8 8 12l9 12q2 4 4 7.5t4 7.5t10 12l21 29l30 36l8 11 l9 8l10 6q4 2 10 2q4 2 10 2l7 -4q0 -2 1 -3t1 -5t-2 -8q0 -4 -5 -9l-18 -24l-16 -27l-19 -18l-18 -21q-4 -2 -13 -10l-14 -12q-8 -4 -12 -8q-4 -2 -6 -4.5t-6 -2.5q-8 -4 -13 -2h-2q-2 2 -2 5zM1544 803h2q12 0 17 -2l6 -6t4 -7l35 -45v-24q0 -10 -4 -14q-4 -2 -8.5 -4.5 t-8.5 -2.5h-6v-2h78v2h-8q-8 0 -15 7q-6 2 -6 14v26l29 39l6 9q8 4 10 4q2 4 6 4q4 2 11 2v4h-56v-4h6q10 0 13 -2q4 -2 4 -8q0 -4 -6 -13l-23 -30l-28 36q-4 8 -5 9v2q0 4 2 4q0 2 7 2h10v4h-72v-4zM1624 -301h37v-37h-37v37zM1626 70v24h21v35h32v-35h23v-24h-23v-72 q0 -4 1 -6t1 -4q4 0 6.5 -1t6.5 -1l4 2h4v-27h-23q-16 0 -20 4q-10 0 -12 8v97h-21zM1686 -274q0 29 12 51q16 23 47 22q18 0 31 -6q14 -4 20 -18q10 -10 10 -27h-37q0 6 -4 14q-4 7 -16 7q-16 0 -20 -11q-8 -8 -9 -26q0 -18 2 -25q2 -10 9 -14q4 -4 16 -4q10 0 16 4 q6 6 6 18h37q0 -10 -8 -26q-6 -10 -20 -19q-12 -6 -33 -6q-27 0 -43 14q-8 8 -14 21q-2 8 -2 31zM1784 -2q0 20 10 29q12 8 29 12l30 4q12 2 13 10q0 16 -21 17q-8 0 -16 -4q-6 -2 -8 -17h-33q2 18 8 29q4 8 19 14q8 4 14 4h16q27 0 37 -4l8 -8t6 -8q4 -12 5 -17v-86 q0 -6 8 -6v-6h-39q-2 0 -2 2v2v2q0 4 -1 6t-1 4q-4 -6 -11 -10q-4 -2 -7 -4t-5 -2l-9 -3t-9 -1t-19 4q-4 4 -8 6t-8 6q-6 8 -6 25zM1819 -2q0 -10 4 -10q4 -4 12 -4h8h2l4 2q8 4 13 8q4 8 4 16v17q-6 -6 -15 -7l-16 -4q-6 0 -12 -6q-4 -2 -4 -12zM1823 -272q0 18 4 26 q2 8 5 13.5t7 11.5q12 12 23 14q8 6 28 6q16 0 29 -6q9 -2 23 -12q4 -4 6 -10.5t6 -12.5q4 -8 4 -30q0 -20 -8 -35q-6 -14 -23 -25q-14 -8 -37 -8q-27 0 -39 10q-14 10 -22 25q-6 14 -6 33zM1860 -272q0 -14 6 -27q6 -12 24 -12q19 0 25 12q4 6 5 13t1 14q0 23 -6 30 q-6 10 -25 11q-18 0 -24 -11q-6 -12 -6 -30zM1894 1329l33 45l17 27l30 41l2 2q0 4 4 4q0 2 2 2q2 2 3 0q0 -4 -5 -12l-8 -13l-8 -10q-4 -8 -8 -10l-19 -25l-20 -24l-12 -15q-2 -4 -11 -12zM1917 70v24h16v35h37v-35h23v-24h-23v-72q0 -4 1 -6t1 -4q2 0 4 -1t6 -1l7 2h4v-27 h-23q-16 0 -22 4q-8 0 -11 8q0 4 -2 7.5t-2 7.5v82h-16zM1982 -205h33v-20q14 25 39 24q16 0 23 -6q8 -4 14 -16q4 8 16 16q6 6 21 6q16 0 24 -8q13 -6 15 -16q6 -6 6 -21v-92h-35v80q0 27 -20 27q-23 0 -23 -27v-80h-35v80q0 10 -2 12q0 6 -6 13q-4 2 -12 2q-23 0 -23 -25 v-82h-35v133z" />
<glyph unicode="~" horiz-adv-x="696" d="M0 469q35 86 78 123t90 44t96 -6.5t95.5 -27.5t86 -20.5t68.5 16.5l35 25l45 -25q-27 -78 -68 -106.5t-89 -30.5t-101 12t-105.5 23.5t-100.5 1t-85 -55.5z" />
<glyph unicode="&#xa1;" horiz-adv-x="262" d="M0 0l37 932h86l37 -932h-160zM0 1143v164h160v-164h-160z" />
<glyph unicode="&#xa2;" horiz-adv-x="2324" d="M135 -205h37l21 -96l18 96h37l18 -96l23 96h35l-37 -127v-6h-37l-21 96l-20 -96h-37l-37 129v4zM205 625v579l315 68l-12 43l47 14l-10 47l49 10l-6 52l47 4v47h43l4 43l47 -6l8 47l51 -8l13 47l45 -13l18 43l47 -18l25 45l43 -22l25 41l43 -29l30 39l39 -31l33 33 l31 -29l30 27l31 -35l41 27l27 -43l45 24l22 -41l43 19l21 -47l49 14l14 -45l45 10l11 -49l51 4l2 -31l473 103v-580l-217 -47l4 -4l-27 -31l27 -33l-37 -30l27 -41l-43 -27l26 -43l-43 -24l19 -43l-47 -21l16 -49l-45 -14l8 -46l-49 -10l4 -51l-47 -4v-47h-41l-6 -43l-45 4 l-10 -45l-50 8l-14 -47l-45 14l-16 -47l-50 21l-22 -45l-43 22l-27 -41l-43 27l-28 -37l-37 31l-35 -33l-31 29l-33 -29l-28 37l-41 -27l-29 43l-43 -24l-22 41l-45 -19l-21 47l-47 -14l-14 45l-47 -10l-11 49l-49 -4l-6 47h-47v43l-41 4l4 47l-47 8l10 49l-49 15l14 45 l-32 12zM330 -205h35l22 -96l19 96h34l21 -96l20 96h37l-37 -127l-2 -6h-35l-22 96l-21 -96h-36l-35 129v4zM334 51q0 12 2 19q0 4 2 9t2 9q2 14 16 29q4 6 11.5 11t15.5 9q10 4 19.5 6t19.5 2h6q6 0 18 -4q6 0 10.5 -2t8.5 -4q14 -8 24 -22q4 -6 9 -15q2 -4 2 -12h-39 q0 6 -4 10q-2 6 -13 13q-10 6 -20 6q-6 0 -10 -2h-8l-17 -13q-4 -4 -7 -8t-5 -10q-4 -10 -4 -33q0 -18 6 -33q2 -14 14 -18q6 -4 11.5 -6t11.5 -4h6q14 0 20 6q8 0 15 10q4 6 7 11t3 12h-43v32h76v-98h-25l-4 23q-6 -10 -16 -17q-6 -4 -11.5 -5t-9.5 -5q-6 0 -11 -1t-11 -1 q-18 0 -29 8q-17 7 -25 19q-12 12 -18 30t-6 39zM334 788q0 -2 2 -4h10l10 7l13 12l8 12l12 12q2 4 10 13l74 102q6 10 12.5 17.5t10.5 17.5l24 37q6 10 12.5 18t10.5 19q6 10 11 18t9 18q2 6 0 9q-2 2 -6 2q-8 0 -10 -2l-10 -6l-21 -23l-18 -25q-10 -10 -17 -22l-18 -23 l-66 -94l-30 -49q-8 -12 -14.5 -24.5t-12.5 -24.5l-4 -6q0 -2 -1 -3t-1 -3v-5zM383 1004q2 -8 12 -15l21 -6q16 0 26 2q4 0 7 2q2 2 2 4t-2 2h-7q-4 0 -4 -2q-20 -2 -35 4q-8 4 -10 9q-4 8 -4 12q0 8 2 14l8 17l21 22q4 4 11 9t13 9q8 4 14.5 8.5t14.5 8.5t15.5 7t15.5 7 q8 2 15 4t18 6l32 7q20 4 31 4q10 0 27 -4q4 -2 9 -3.5t9 -5.5l10 -14q2 -6 2 -20q0 -6 -4 -23l-12 -22q-4 -8 -16 -25q-4 -6 -10.5 -11t-12.5 -12q-4 -6 -11 -11t-13 -11l-27 -16l-29 -13l-16 -6q-6 0 -14 -4h-7q-4 0 -6 -2q-4 0 -4 -2q-4 0 -4 -4q0 -2 2 -2h6q4 0 6 2h7 l30 10l31 12l31 15l30 18l27 19l25 22l20 23q4 6 7 12t5 12q6 12 7 23q2 12 0 20q-4 12 -9 19q-8 6 -16 10q-12 6 -23 6q-10 2 -28 2q-8 0 -29 -4q-16 -2 -32.5 -6t-32.5 -8t-32 -11.5t-32 -15.5q-8 -4 -15 -8t-16 -10q-16 -10 -26 -21q-8 -6 -21 -22l-10 -23q-2 -12 0 -20z M522 31q0 10 1 17t5 15q6 16 21 25q8 6 17 7t20 1q27 0 35 -8q12 -8 20 -27q4 -10 5 -18t1 -18v-9h-92q0 -12 10 -22q6 -8 23 -8q6 0 14 4q8 8 8 10h37q-4 -10 -12 -23q-6 -4 -11.5 -8t-9.5 -6q-8 -2 -13 -4t-13 -2q-66 0 -66 74zM522 -205h37l21 -96l18 96h37l18 -96l21 96 h37l-37 -127l-2 -6h-35l-21 96l-22 -96h-35l-37 129v4zM559 41h53q-4 12 -8 20q-4 4 -8 6.5t-10 2.5q-23 0 -27 -29zM641 803h2q23 0 23 -19v-55q0 -14 12 -27l18 -6q6 -2 23 -2q16 0 29 4q8 4 12 9q10 8 10 26v58l10 10h2l2 2h9v4h-56v-4h13q2 0 3 -1t3 -1q12 -6 12 -27 v-39q0 -16 -10 -26l-15 -11h-18q-14 0 -20 4q-4 0 -13 9q-4 4 -4 18v55q0 12 4 15q4 4 17 4h8v4h-76v-4zM657 70v24h19v35h35v-35h20v-24h-20v-72q0 -8 2 -10q2 0 5 -1t7 -1l4 2h2v-27h-20q-16 0 -23 4q-8 0 -10 8q-2 4 -2 15v82h-19zM657 924q2 -6 11 -15q12 -8 26 -6 q16 0 33 6q18 6 37 19q18 8 37 24l28 25l17 18q0 2 4 6q0 4 4 5l4 8l19 18l18 25q6 6 11 12t9 12l9 -4l4 -6q2 -4 2 -8q0 -2 -8 -10l-19 -21l-16 -22l-15 -23l-6 -20q-2 -4 -2 -11v-8q4 -6 6 -8t9 -2q4 0 20 4l19 12q16 12 24 21q6 4 11 10t10 10q8 8 10 13l10 12l4 6l6 6 q4 4 4 6l15 19l24 35q0 -4 1 -8.5t1 -8.5q4 -12 4 -16l5 -8q-20 -8 -29 -15l-23 -18q-12 -12 -14 -21q-4 -8 -4 -20q2 -6 12 -10q7 -2 23 -2q14 2 28 10q14 6 27 18q10 6 18 21l11 20q6 12 6 23v18q0 6 -4 19l-8 18l-7 8q0 4 -4 8q0 2 -4 7v6q2 2 2 4h-10l-4 -4 q-6 -2 -14 -11l-7 -14l-2 -2l-6 -8l-37 -51l-6 -8l-6 -11l-2 -2v-2q-2 0 -4 -2l-6 -10l-6 -8l-19 -23l-24 -22q-6 -6 -15 -9q-8 -4 -14 -4h-2l2 2l8 13l8 10l9 12q4 2 8 10l10 17l10 18l6 17q2 6 2 16q-2 2 -2 8l-4 6q0 4 -2 7v26l8 12q4 10 -4 15q-6 6 -20 0q-14 -4 -19 -8 q-8 -6 -12 -15q-4 -8 -4 -14q0 -8 2 -12l4 -4l4 -5l-6 -8l-6 -6l-29 -37l-22 -26q-2 0 -6 -4v-3l-2 -2q0 -2 -2 -2l-13 -16q-8 -8 -15 -15.5t-18 -13.5q-20 -16 -38 -24q-4 -4 -10.5 -5t-12.5 -5q-16 -4 -22 -3q-8 0 -9 5q-2 2 -2 8q0 2 4 10l4 10l13 21q8 -4 14 -4 q12 0 21 2q14 2 30 12q10 4 29 18l18 19q4 4 7.5 9t5.5 9l8 17q0 12 -4 16q-4 6 -10 10q-6 2 -21 2q-4 -2 -10 -2t-12 -4q-8 -2 -25 -10q-27 -12 -51 -33q-23 -18 -35 -41q-6 -6 -14 -22q-6 -10 -9 -23v-20zM711 -301h37v-37h-37v37zM723 983l18 25l21 24l8 10q4 4 6 5.5 t4 5.5l13 10l14 6q10 2 16 0q2 -4 0 -12l-6 -10q-4 -4 -8 -13q-4 -4 -5 -6t-5 -4q-2 -4 -11 -12q-4 -6 -10 -11q-8 -8 -12 -10l-14 -8q-12 -4 -15 -4q-6 0 -14 4zM780 -205h33v-20q12 25 39 24q14 0 20 -6q10 -4 17 -16q4 10 14 16q8 6 21 6q16 0 26 -8q8 -6 15 -16 q4 -4 4 -21v-92h-33v80q0 27 -21 27q-23 0 -22 -27v-80h-37v92q0 6 -6 13q-4 2 -14 2q-23 0 -23 -25v-82h-33v133zM807 776q0 -6 6 -12q0 -2 6 -8l15 -6q2 -2 8 -3.5t16 -5.5l8 -2q12 -4 17 -4q4 0 8 -4q2 0 4 -2q6 -6 6 -12q0 -2 -4 -10q-2 -2 -10 -9h-13q-12 0 -18 2 l-20 9l-13 12q-10 14 -10 24h-4v-51h4q0 8 4 8q4 4 10 5q2 0 2 -1t5 -1q2 0 3 -1.5t5 -1.5l16 -6q4 -2 16 -2q6 0 19 4q4 0 7 2t7 7q4 2 4 4t4 6v22l-6 9q-6 4 -14 8l-21 8h-12l-2 2l-16 4q-4 2 -6 2t-4 2q-2 0 -7 4q-4 4 -4 8q0 6 2 9q0 -2 4 6l9 4q4 0 6 1t6 1q8 0 16 -4 q10 0 17 -6q8 -4 12 -9q4 -4 5 -9t5 -11h4v37h-4q-2 -8 -8 -8t-10 2q-20 10 -37 10q-10 0 -23 -4l-14 -10q-6 -10 -6 -19zM809 70v24h18v10q0 37 39 37h19v-26h-11q-6 0 -8 -2q-4 0 -4 -4v-15h23v-24h-23v-109h-35v109h-18zM905 6v88h35v-82q0 -25 23 -24q8 0 12 2t12 10 q0 4 2 8t2 8v78h33v-133h-33v19q-6 -10 -16 -15q-16 -8 -25 -8q-20 0 -32 14q-12 12 -13 35zM928 696h119v45q-4 -4 -4.5 -7t-2.5 -7l-12 -16q-6 -6 -10 -6l-10 -5q-6 -2 -15 -2h-18v50h2q14 0 22 -9l5 -6q0 -2 1 -3t1 -5q2 -4 2 -10h2v71h-2v-10l-7 -12q-10 -12 -20 -12h-6 v51h20q18 0 25 -2l10 -8l6 -13l6 -16h5v43h-119v-4h4q10 0 12 -4q6 -4 6 -15v-65q0 -20 -18 -21h-4v-2zM987 979v10l4 12l8 11q10 12 23 20l27 12q0 -4 1 -6t1 -6q-2 -4 -2 -10q0 -4 -1 -6t-1 -6l-5 -11q-2 -4 -10 -12l-8 -6q-4 -4 -10 -4q-2 -2 -10 -2q-4 -4 -9 0 q-4 0 -8 4zM991 -303q0 20 13 31q8 8 26 12l33 4q10 4 10 10q0 16 -20 17q-4 0 -8.5 -1t-8.5 -1q-2 -4 -4 -8.5t-2 -8.5h-33q0 14 7 27q12 12 20 14l12 4q4 0 8.5 1t8.5 1q27 0 37 -8q10 -6 16 -14q2 -6 2 -17v-71q0 -11 2 -15q0 -6 6 -6v-6h-37q0 2 -2 4v2q-2 4 -2 10 q-8 -8 -12 -10l-12 -6q-4 -2 -17 -2q-14 0 -18 2q-10 2 -17 14q-8 6 -8 21zM1026 -301q0 -8 6 -10q4 -4 12 -4h7q2 0 3 1t3 1l12 8q4 4 4 14v19q-6 -6 -12 -7l-17 -2l-12 -6q-6 -6 -6 -14zM1057 -39v180h35v-180h-35zM1118 -39v180h33v-180h-33zM1120 752q0 -16 4 -23 q8 -12 15 -18q4 -4 10 -6.5t12 -6.5q16 -4 25 -4q23 0 33 8q12 7 24 21q8 10 8 29q0 12 -4 20t-12 19q-10 10 -23 12q-12 6 -26 6q-23 0 -33 -8q-10 -4 -15 -9.5t-10 -11.5q-8 -14 -8 -28zM1126 -205h37l21 -96l18 96h35l20 -96l23 96h35l-37 -127v-6h-37l-20 96l-21 -96 h-37l-37 129v4zM1133 1018q0 -6 4 -10t12 -9q4 0 6 -1t6 1h15q10 2 30 11l31 16l27 23l22 20l17 23l12 20l6 21q2 12 0 18q0 6 -6 12q-2 4 -12 8q-4 0 -8.5 1.5t-8.5 1.5q-6 0 -22 -5q-2 0 -15 -4l-14 -6l-29 -18q-8 -4 -14 -10.5t-12 -10.5l-21 -22l-14 -23 q-10 -17 -12 -31q-4 -14 0 -26zM1147 752q0 4 1 9t1 9l6 14q6 10 8 13q0 2 11 6q8 4 14 4q2 0 3 -1t5 -1l8 -4l10 -10q2 -4 4.5 -8.5t4.5 -10.5q0 -4 1 -9t1 -11q0 -12 -4 -29q-6 -12 -15 -21q-6 -4 -20 -4q-12 0 -15 4q-8 0 -14 11l-6 16q-4 12 -4 23zM1159 1020q0 4 2 6 q4 16 10 25q12 16 17 24l12 15l10 12l19 24q6 6 11 12.5t11 10.5l11 8l12 6q4 2 10 2q4 0 6 -4q2 -2 2 -8q0 -4 -4 -12l-6 -11l-6 -12q-4 -8 -8 -12l-8 -12q-4 -6 -8.5 -12.5t-8.5 -10.5l-18 -22l-23 -23q-6 -6 -12 -8q-6 -6 -14 -8q-5 -2 -11 -2l-4 4q-2 2 -2 8zM1241 70 v24h19v10q0 37 38 37h17v-26h-8q-8 0 -9 -2q-2 0 -4 -4v-15h25v-24h-25v-109h-34v109h-19zM1268 696h57v2q-6 0 -10 2q-4 0 -5 1t-5 1l-7 11q-2 2 -2 14v66l95 -97h4v78q0 12 6 23q2 6 18 6v4h-55v-4h10q0 -2 4 -2q8 -8 8 -10q4 -4 5 -17v-47l-78 80h-43v-4h2q8 0 10 -2 q4 0 5 -2t3 -2q2 -4 2 -11v-63q0 -8 -2 -12q-2 -6 -8 -9q-8 -4 -14 -4v-2zM1290 1022q2 0 3 -1t3 -1q6 0 11 2l10 6q0 2 4 6l4 4l6 6q0 2 4 7l21 24l22 25l21 24l24 25l25 22l10 11q4 2 12 10l13 8l14 6q2 0 2 -2h-2l-6 -6q-2 -6 -8 -8l-6 -8l-15 -17q-6 -6 -14 -18 q-12 -16 -16 -25l-17 -24q-4 -6 -8 -23q-4 -10 0 -18t10 -8q12 0 21 2q6 2 12 6t14 8q12 6 23 16l24 23l2 2q-2 -2 -2 -6q0 -8 5 -17q4 -8 12 -10q6 -2 22 2q20 8 29 15l25 18l8 8l8 8l16 15q-2 -2 -2 -6q0 -2 -1 -3.5t-1 -3.5v-8q-4 -6 0 -10q0 -4 1 -5t1 -3q2 -6 8 -6 q2 -2 9 -2q6 0 10 2l8 4l10 6l15 8l37 31l20 20l-6 -14q-4 -8 -4 -23v-6q4 -4 6 -4q0 -2 6 -2q2 0 10 4q4 2 7.5 3t7.5 5l12 9l12 12q4 2 13 10q6 4 11 10.5t11 12.5l21 24q2 2 2 4q-2 2 -5 2q-4 0 -8 -4l-4 -6l-14 -16l-12 -15q-4 -4 -7.5 -7t-7.5 -7l-16 -14l-8 -6l-11 -5 l-2 -2q-2 0 -4 2h2l9 17l4 8t6 8l8 13q4 4 8 12l74 108q12 12 16 21l19 18l43 49q10 12 19 24.5t20 25.5l12 20v10q-2 2 -10 2q-4 0 -13 -4q-4 0 -7 -2t-7 -4q-8 -4 -12 -8l-10 -8q-6 -4 -12.5 -9.5t-12.5 -11.5l-21 -22q-8 -8 -20 -25q-4 -8 -16 -24q-10 -12 -17.5 -24.5 t-15.5 -25.5l-31 -51l-22 -39l-9 -18q-2 0 -2 -2l-16 -17q-4 -6 -10 -11t-13 -11l-22 -21l-10 -8l-9 -6l-4 -2l-6 -4h-6h-4l6 12l6 10q0 2 1 2.5t1 2.5l2 2q4 8 9.5 15t11.5 15q4 8 9 16.5t11 16.5l17 25l8 14q4 4 8 12l2 2l2 2q0 2 1 2t1 3l2 2q6 4 4 8q0 2 -8 2l-12 -4 l-12 -6l-21 -15l-8 -8l-8 -8q0 8 -2 12q0 4 -8 8q-12 2 -25 0q-12 -4 -27 -10q-16 -6 -26 -14q-8 -4 -13.5 -9.5l-9.5 -9.5q-29 -23 -43 -45q-18 -23 -24 -43q-2 0 -2 -1t-3 -1q-4 -4 -9 -10t-11 -10q-8 -8 -25 -21q-6 -6 -14 -8q-8 -4 -12 -4h-4q-2 2 0 4l8 10l6 11l14 16 l25 33q6 8 12 15t10 17l11 21q4 12 2 18q0 6 -2 9q-4 4 -8 4q-6 0 -11 -2l-14 -7l-14 -8q-8 -8 -13 -10q-8 -8 -12 -10q-8 -8 -12 -10l-25 -25q-6 -6 -12 -11t-10 -12l-13 -14l-12 -12l4 6l29 41l31 43q0 2 1 2t1 2q2 2 2 4q2 4 2 8l-6 6q-2 0 -3.5 1.5t-5.5 1.5 q-2 0 -4 -1.5t-6 -1.5l-12 -6l-6 -6q-4 -2 -4 -4t-2 -4l-7 -8l-90 -156q-2 -2 -2 -8zM1329 27q0 10 4 26q2 12 13 23q12 12 22 16q8 4 29 4q20 0 30 -4q4 -4 9.5 -6t9.5 -6q10 -12 14 -25q4 -12 4 -28q0 -20 -8 -35q-6 -14 -22 -25q-16 -10 -37 -10q-23 0 -39 10 q-12 10 -23 27q-6 14 -6 33zM1331 -205h35v-20q14 25 41 24q13 0 25 -6q10 -4 14 -14q6 -12 6 -25v-92h-35v80q0 16 -4 20q-2 6 -18 7q-14 0 -21 -9q-6 -10 -6 -22v-76h-37v133zM1364 27q0 -14 8 -27q4 -12 25 -12q20 0 24 12q8 8 9 27q0 20 -9 28q-6 12 -24 13 q-18 0 -25 -13q-8 -12 -8 -28zM1425 696h125v49h-2q-4 -4 -4 -7t-2 -7q-4 -4 -4 -10q-2 -2 -6 -8q-8 -8 -14 -11q-4 -4 -17 -4h-28v86q0 10 6 15q4 4 14 4h8v4h-76v-4h7q18 0 18 -19v-65q0 -20 -18 -21h-7v-2zM1477 -295h34q0 -18 31 -18q10 0 17 2q4 8 4 10q0 8 -15 10 l-30 8q-6 2 -13.5 5.5t-11.5 7.5q-12 8 -12 24q0 12 6 23q4 8 18 16q8 6 29 6q12 0 21.5 -2t17.5 -6q12 -6 16 -16l4 -11v-10h-34q0 10 -7 15q-2 2 -16 2q-20 0 -20 -13q0 -6 12 -8l31 -8q12 -2 28 -12q10 -6 10 -25q0 -12 -6 -24q-8 -10 -20 -17q-8 -4 -31 -4h-12 q-8 0 -12 2q-12 4 -21 8q-12 8 -14 15q-4 12 -4 20zM1489 -39v133h33v-18q14 20 41 20q18 0 24 -4l17 -14q6 -12 6 -25v-92h-35v80q0 8 -4 20q-6 6 -21 7q-14 0 -20 -9q-4 -6 -4 -22v-76h-37zM1542 1090l2 4q0 2 2 4q4 8 8 12l9 12q2 4 4 7.5t4 7.5t10 12l21 29l30 36l8 11 l9 8l10 6q4 2 10 2q4 2 10 2l7 -4q0 -2 1 -3t1 -5t-2 -8q0 -4 -5 -9l-18 -24l-16 -27l-19 -18l-18 -21q-4 -2 -13 -10l-14 -12q-8 -4 -12 -8q-4 -2 -6 -4.5t-6 -2.5q-8 -4 -13 -2h-2q-2 2 -2 5zM1544 803h2q12 0 17 -2l6 -6t4 -7l35 -45v-24q0 -10 -4 -14q-4 -2 -8.5 -4.5 t-8.5 -2.5h-6v-2h78v2h-8q-8 0 -15 7q-6 2 -6 14v26l29 39l6 9q8 4 10 4q2 4 6 4q4 2 11 2v4h-56v-4h6q10 0 13 -2q4 -2 4 -8q0 -4 -6 -13l-23 -30l-28 36q-4 8 -5 9v2q0 4 2 4q0 2 7 2h10v4h-72v-4zM1624 -301h37v-37h-37v37zM1626 70v24h21v35h32v-35h23v-24h-23v-72 q0 -4 1 -6t1 -4q4 0 6.5 -1t6.5 -1l4 2h4v-27h-23q-16 0 -20 4q-10 0 -12 8v97h-21zM1686 -274q0 29 12 51q16 23 47 22q18 0 31 -6q14 -4 20 -18q10 -10 10 -27h-37q0 6 -4 14q-4 7 -16 7q-16 0 -20 -11q-8 -8 -9 -26q0 -18 2 -25q2 -10 9 -14q4 -4 16 -4q10 0 16 4 q6 6 6 18h37q0 -10 -8 -26q-6 -10 -20 -19q-12 -6 -33 -6q-27 0 -43 14q-8 8 -14 21q-2 8 -2 31zM1784 -2q0 20 10 29q12 8 29 12l30 4q12 2 13 10q0 16 -21 17q-8 0 -16 -4q-6 -2 -8 -17h-33q2 18 8 29q4 8 19 14q8 4 14 4h16q27 0 37 -4l8 -8t6 -8q4 -12 5 -17v-86 q0 -6 8 -6v-6h-39q-2 0 -2 2v2v2q0 4 -1 6t-1 4q-4 -6 -11 -10q-4 -2 -7 -4t-5 -2l-9 -3t-9 -1t-19 4q-4 4 -8 6t-8 6q-6 8 -6 25zM1819 -2q0 -10 4 -10q4 -4 12 -4h8h2l4 2q8 4 13 8q4 8 4 16v17q-6 -6 -15 -7l-16 -4q-6 0 -12 -6q-4 -2 -4 -12zM1823 -272q0 18 4 26 q2 8 5 13.5t7 11.5q12 12 23 14q8 6 28 6q16 0 29 -6q9 -2 23 -12q4 -4 6 -10.5t6 -12.5q4 -8 4 -30q0 -20 -8 -35q-6 -14 -23 -25q-14 -8 -37 -8q-27 0 -39 10q-14 10 -22 25q-6 14 -6 33zM1860 -272q0 -14 6 -27q6 -12 24 -12q19 0 25 12q4 6 5 13t1 14q0 23 -6 30 q-6 10 -25 11q-18 0 -24 -11q-6 -12 -6 -30zM1894 1329l33 45l17 27l30 41l2 2q0 4 4 4q0 2 2 2q2 2 3 0q0 -4 -5 -12l-8 -13l-8 -10q-4 -8 -8 -10l-19 -25l-20 -24l-12 -15q-2 -4 -11 -12zM1917 70v24h16v35h37v-35h23v-24h-23v-72q0 -4 1 -6t1 -4q2 0 4 -1t6 -1l7 2h4v-27 h-23q-16 0 -22 4q-8 0 -11 8q0 4 -2 7.5t-2 7.5v82h-16zM1982 -205h33v-20q14 25 39 24q16 0 23 -6q8 -4 14 -16q4 8 16 16q6 6 21 6q16 0 24 -8q13 -6 15 -16q6 -6 6 -21v-92h-35v80q0 27 -20 27q-23 0 -23 -27v-80h-35v80q0 10 -2 12q0 6 -6 13q-4 2 -12 2q-23 0 -23 -25 v-82h-35v133z" />
<glyph unicode="&#xa3;" horiz-adv-x="2326" d="M135 -205h37l21 -96l18 96h37l18 -96l23 96h35l-37 -127v-6h-37l-21 96l-20 -96h-37l-37 129v4zM205 625v579l315 68l-12 43l47 14l-10 47l49 10l-6 52l47 4v47h43l4 43l47 -6l8 47l51 -8l13 47l45 -13l18 43l47 -18l25 45l43 -22l25 41l43 -29l30 39l39 -31l33 33 l31 -29l30 27l31 -35l41 27l27 -43l45 24l22 -41l43 19l21 -47l49 14l14 -45l45 10l11 -49l51 4l2 -31l473 103v-580l-217 -47l4 -4l-27 -31l27 -33l-37 -30l27 -41l-43 -27l26 -43l-43 -24l19 -43l-47 -21l16 -49l-45 -14l8 -46l-49 -10l4 -51l-47 -4v-47h-41l-6 -43l-45 4 l-10 -45l-50 8l-14 -47l-45 14l-16 -47l-50 21l-22 -45l-43 22l-27 -41l-43 27l-28 -37l-37 31l-35 -33l-31 29l-33 -29l-28 37l-41 -27l-29 43l-43 -24l-22 41l-45 -19l-21 47l-47 -14l-14 45l-47 -10l-11 49l-49 -4l-6 47h-47v43l-41 4l4 47l-47 8l10 49l-49 15l14 45 l-32 12zM330 -205h35l22 -96l19 96h34l21 -96l20 96h37l-37 -127l-2 -6h-35l-22 96l-21 -96h-36l-35 129v4zM334 51q0 12 2 19q0 4 2 9t2 9q2 14 16 29q4 6 11.5 11t15.5 9q10 4 19.5 6t19.5 2h6q6 0 18 -4q6 0 10.5 -2t8.5 -4q14 -8 24 -22q4 -6 9 -15q2 -4 2 -12h-39 q0 6 -4 10q-2 6 -13 13q-10 6 -20 6q-6 0 -10 -2h-8l-17 -13q-4 -4 -7 -8t-5 -10q-4 -10 -4 -33q0 -18 6 -33q2 -14 14 -18q6 -4 11.5 -6t11.5 -4h6q14 0 20 6q8 0 15 10q4 6 7 11t3 12h-43v32h76v-98h-25l-4 23q-6 -10 -16 -17q-6 -4 -11.5 -5t-9.5 -5q-6 0 -11 -1t-11 -1 q-18 0 -29 8q-17 7 -25 19q-12 12 -18 30t-6 39zM334 788q0 -2 2 -4h10l10 7l13 12l8 12l12 12q2 4 10 13l74 102q6 10 12.5 17.5t10.5 17.5l24 37q6 10 12.5 18t10.5 19q6 10 11 18t9 18q2 6 0 9q-2 2 -6 2q-8 0 -10 -2l-10 -6l-21 -23l-18 -25q-10 -10 -17 -22l-18 -23 l-66 -94l-30 -49q-8 -12 -14.5 -24.5t-12.5 -24.5l-4 -6q0 -2 -1 -3t-1 -3v-5zM383 1004q2 -8 12 -15l21 -6q16 0 26 2q4 0 7 2q2 2 2 4t-2 2h-7q-4 0 -4 -2q-20 -2 -35 4q-8 4 -10 9q-4 8 -4 12q0 8 2 14l8 17l21 22q4 4 11 9t13 9q8 4 14.5 8.5t14.5 8.5t15.5 7t15.5 7 q8 2 15 4t18 6l32 7q20 4 31 4q10 0 27 -4q4 -2 9 -3.5t9 -5.5l10 -14q2 -6 2 -20q0 -6 -4 -23l-12 -22q-4 -8 -16 -25q-4 -6 -10.5 -11t-12.5 -12q-4 -6 -11 -11t-13 -11l-27 -16l-29 -13l-16 -6q-6 0 -14 -4h-7q-4 0 -6 -2q-4 0 -4 -2q-4 0 -4 -4q0 -2 2 -2h6q4 0 6 2h7 l30 10l31 12l31 15l30 18l27 19l25 22l20 23q4 6 7 12t5 12q6 12 7 23q2 12 0 20q-4 12 -9 19q-8 6 -16 10q-12 6 -23 6q-10 2 -28 2q-8 0 -29 -4q-16 -2 -32.5 -6t-32.5 -8t-32 -11.5t-32 -15.5q-8 -4 -15 -8t-16 -10q-16 -10 -26 -21q-8 -6 -21 -22l-10 -23q-2 -12 0 -20z M522 31q0 10 1 17t5 15q6 16 21 25q8 6 17 7t20 1q27 0 35 -8q12 -8 20 -27q4 -10 5 -18t1 -18v-9h-92q0 -12 10 -22q6 -8 23 -8q6 0 14 4q8 8 8 10h37q-4 -10 -12 -23q-6 -4 -11.5 -8t-9.5 -6q-8 -2 -13 -4t-13 -2q-66 0 -66 74zM522 -205h37l21 -96l18 96h37l18 -96l21 96 h37l-37 -127l-2 -6h-35l-21 96l-22 -96h-35l-37 129v4zM559 41h53q-4 12 -8 20q-4 4 -8 6.5t-10 2.5q-23 0 -27 -29zM641 803h2q23 0 23 -19v-55q0 -14 12 -27l18 -6q6 -2 23 -2q16 0 29 4q8 4 12 9q10 8 10 26v58l10 10h2l2 2h9v4h-56v-4h13q2 0 3 -1t3 -1q12 -6 12 -27 v-39q0 -16 -10 -26l-15 -11h-18q-14 0 -20 4q-4 0 -13 9q-4 4 -4 18v55q0 12 4 15q4 4 17 4h8v4h-76v-4zM657 70v24h19v35h35v-35h20v-24h-20v-72q0 -8 2 -10q2 0 5 -1t7 -1l4 2h2v-27h-20q-16 0 -23 4q-8 0 -10 8q-2 4 -2 15v82h-19zM657 924q2 -6 11 -15q12 -8 26 -6 q16 0 33 6q18 6 37 19q18 8 37 24l28 25l17 18q0 2 4 6q0 4 4 5l4 8l19 18l18 25q6 6 11 12t9 12l9 -4l4 -6q2 -4 2 -8q0 -2 -8 -10l-19 -21l-16 -22l-15 -23l-6 -20q-2 -4 -2 -11v-8q4 -6 6 -8t9 -2q4 0 20 4l19 12q16 12 24 21q6 4 11 10t10 10q8 8 10 13l10 12l4 6l6 6 q4 4 4 6l15 19l24 35q0 -4 1 -8.5t1 -8.5q4 -12 4 -16l5 -8q-20 -8 -29 -15l-23 -18q-12 -12 -14 -21q-4 -8 -4 -20q2 -6 12 -10q7 -2 23 -2q14 2 28 10q14 6 27 18q10 6 18 21l11 20q6 12 6 23v18q0 6 -4 19l-8 18l-7 8q0 4 -4 8q0 2 -4 7v6q2 2 2 4h-10l-4 -4 q-6 -2 -14 -11l-7 -14l-2 -2l-6 -8l-37 -51l-6 -8l-6 -11l-2 -2v-2q-2 0 -4 -2l-6 -10l-6 -8l-19 -23l-24 -22q-6 -6 -15 -9q-8 -4 -14 -4h-2l2 2l8 13l8 10l9 12q4 2 8 10l10 17l10 18l6 17q2 6 2 16q-2 2 -2 8l-4 6q0 4 -2 7v26l8 12q4 10 -4 15q-6 6 -20 0q-14 -4 -19 -8 q-8 -6 -12 -15q-4 -8 -4 -14q0 -8 2 -12l4 -4l4 -5l-6 -8l-6 -6l-29 -37l-22 -26q-2 0 -6 -4v-3l-2 -2q0 -2 -2 -2l-13 -16q-8 -8 -15 -15.5t-18 -13.5q-20 -16 -38 -24q-4 -4 -10.5 -5t-12.5 -5q-16 -4 -22 -3q-8 0 -9 5q-2 2 -2 8q0 2 4 10l4 10l13 21q8 -4 14 -4 q12 0 21 2q14 2 30 12q10 4 29 18l18 19q4 4 7.5 9t5.5 9l8 17q0 12 -4 16q-4 6 -10 10q-6 2 -21 2q-4 -2 -10 -2t-12 -4q-8 -2 -25 -10q-27 -12 -51 -33q-23 -18 -35 -41q-6 -6 -14 -22q-6 -10 -9 -23v-20zM711 -301h37v-37h-37v37zM723 983l18 25l21 24l8 10q4 4 6 5.5 t4 5.5l13 10l14 6q10 2 16 0q2 -4 0 -12l-6 -10q-4 -4 -8 -13q-4 -4 -5 -6t-5 -4q-2 -4 -11 -12q-4 -6 -10 -11q-8 -8 -12 -10l-14 -8q-12 -4 -15 -4q-6 0 -14 4zM780 -205h33v-20q12 25 39 24q14 0 20 -6q10 -4 17 -16q4 10 14 16q8 6 21 6q16 0 26 -8q8 -6 15 -16 q4 -4 4 -21v-92h-33v80q0 27 -21 27q-23 0 -22 -27v-80h-37v92q0 6 -6 13q-4 2 -14 2q-23 0 -23 -25v-82h-33v133zM807 776q0 -6 6 -12q0 -2 6 -8l15 -6q2 -2 8 -3.5t16 -5.5l8 -2q12 -4 17 -4q4 0 8 -4q2 0 4 -2q6 -6 6 -12q0 -2 -4 -10q-2 -2 -10 -9h-13q-12 0 -18 2 l-20 9l-13 12q-10 14 -10 24h-4v-51h4q0 8 4 8q4 4 10 5q2 0 2 -1t5 -1q2 0 3 -1.5t5 -1.5l16 -6q4 -2 16 -2q6 0 19 4q4 0 7 2t7 7q4 2 4 4t4 6v22l-6 9q-6 4 -14 8l-21 8h-12l-2 2l-16 4q-4 2 -6 2t-4 2q-2 0 -7 4q-4 4 -4 8q0 6 2 9q0 -2 4 6l9 4q4 0 6 1t6 1q8 0 16 -4 q10 0 17 -6q8 -4 12 -9q4 -4 5 -9t5 -11h4v37h-4q-2 -8 -8 -8t-10 2q-20 10 -37 10q-10 0 -23 -4l-14 -10q-6 -10 -6 -19zM809 70v24h18v10q0 37 39 37h19v-26h-11q-6 0 -8 -2q-4 0 -4 -4v-15h23v-24h-23v-109h-35v109h-18zM905 6v88h35v-82q0 -25 23 -24q8 0 12 2t12 10 q0 4 2 8t2 8v78h33v-133h-33v19q-6 -10 -16 -15q-16 -8 -25 -8q-20 0 -32 14q-12 12 -13 35zM928 696h119v45q-4 -4 -4.5 -7t-2.5 -7l-12 -16q-6 -6 -10 -6l-10 -5q-6 -2 -15 -2h-18v50h2q14 0 22 -9l5 -6q0 -2 1 -3t1 -5q2 -4 2 -10h2v71h-2v-10l-7 -12q-10 -12 -20 -12h-6 v51h20q18 0 25 -2l10 -8l6 -13l6 -16h5v43h-119v-4h4q10 0 12 -4q6 -4 6 -15v-65q0 -20 -18 -21h-4v-2zM987 979v10l4 12l8 11q10 12 23 20l27 12q0 -4 1 -6t1 -6q-2 -4 -2 -10q0 -4 -1 -6t-1 -6l-5 -11q-2 -4 -10 -12l-8 -6q-4 -4 -10 -4q-2 -2 -10 -2q-4 -4 -9 0 q-4 0 -8 4zM991 -303q0 20 13 31q8 8 26 12l33 4q10 4 10 10q0 16 -20 17q-4 0 -8.5 -1t-8.5 -1q-2 -4 -4 -8.5t-2 -8.5h-33q0 14 7 27q12 12 20 14l12 4q4 0 8.5 1t8.5 1q27 0 37 -8q10 -6 16 -14q2 -6 2 -17v-71q0 -11 2 -15q0 -6 6 -6v-6h-37q0 2 -2 4v2q-2 4 -2 10 q-8 -8 -12 -10l-12 -6q-4 -2 -17 -2q-14 0 -18 2q-10 2 -17 14q-8 6 -8 21zM1026 -301q0 -8 6 -10q4 -4 12 -4h7q2 0 3 1t3 1l12 8q4 4 4 14v19q-6 -6 -12 -7l-17 -2l-12 -6q-6 -6 -6 -14zM1057 -39v180h35v-180h-35zM1118 -39v180h33v-180h-33zM1120 752q0 -16 4 -23 q8 -12 15 -18q4 -4 10 -6.5t12 -6.5q16 -4 25 -4q23 0 33 8q12 7 24 21q8 10 8 29q0 12 -4 20t-12 19q-10 10 -23 12q-12 6 -26 6q-23 0 -33 -8q-10 -4 -15 -9.5t-10 -11.5q-8 -14 -8 -28zM1126 -205h37l21 -96l18 96h35l20 -96l23 96h35l-37 -127v-6h-37l-20 96l-21 -96 h-37l-37 129v4zM1133 1018q0 -6 4 -10t12 -9q4 0 6 -1t6 1h15q10 2 30 11l31 16l27 23l22 20l17 23l12 20l6 21q2 12 0 18q0 6 -6 12q-2 4 -12 8q-4 0 -8.5 1.5t-8.5 1.5q-6 0 -22 -5q-2 0 -15 -4l-14 -6l-29 -18q-8 -4 -14 -10.5t-12 -10.5l-21 -22l-14 -23 q-10 -17 -12 -31q-4 -14 0 -26zM1147 752q0 4 1 9t1 9l6 14q6 10 8 13q0 2 11 6q8 4 14 4q2 0 3 -1t5 -1l8 -4l10 -10q2 -4 4.5 -8.5t4.5 -10.5q0 -4 1 -9t1 -11q0 -12 -4 -29q-6 -12 -15 -21q-6 -4 -20 -4q-12 0 -15 4q-8 0 -14 11l-6 16q-4 12 -4 23zM1159 1020q0 4 2 6 q4 16 10 25q12 16 17 24l12 15l10 12l19 24q6 6 11 12.5t11 10.5l11 8l12 6q4 2 10 2q4 0 6 -4q2 -2 2 -8q0 -4 -4 -12l-6 -11l-6 -12q-4 -8 -8 -12l-8 -12q-4 -6 -8.5 -12.5t-8.5 -10.5l-18 -22l-23 -23q-6 -6 -12 -8q-6 -6 -14 -8q-5 -2 -11 -2l-4 4q-2 2 -2 8zM1241 70 v24h19v10q0 37 38 37h17v-26h-8q-8 0 -9 -2q-2 0 -4 -4v-15h25v-24h-25v-109h-34v109h-19zM1268 696h57v2q-6 0 -10 2q-4 0 -5 1t-5 1l-7 11q-2 2 -2 14v66l95 -97h4v78q0 12 6 23q2 6 18 6v4h-55v-4h10q0 -2 4 -2q8 -8 8 -10q4 -4 5 -17v-47l-78 80h-43v-4h2q8 0 10 -2 q4 0 5 -2t3 -2q2 -4 2 -11v-63q0 -8 -2 -12q-2 -6 -8 -9q-8 -4 -14 -4v-2zM1290 1022q2 0 3 -1t3 -1q6 0 11 2l10 6q0 2 4 6l4 4l6 6q0 2 4 7l21 24l22 25l21 24l24 25l25 22l10 11q4 2 12 10l13 8l14 6q2 0 2 -2h-2l-6 -6q-2 -6 -8 -8l-6 -8l-15 -17q-6 -6 -14 -18 q-12 -16 -16 -25l-17 -24q-4 -6 -8 -23q-4 -10 0 -18t10 -8q12 0 21 2q6 2 12 6t14 8q12 6 23 16l24 23l2 2q-2 -2 -2 -6q0 -8 5 -17q4 -8 12 -10q6 -2 22 2q20 8 29 15l25 18l8 8l8 8l16 15q-2 -2 -2 -6q0 -2 -1 -3.5t-1 -3.5v-8q-4 -6 0 -10q0 -4 1 -5t1 -3q2 -6 8 -6 q2 -2 9 -2q6 0 10 2l8 4l10 6l15 8l37 31l20 20l-6 -14q-4 -8 -4 -23v-6q4 -4 6 -4q0 -2 6 -2q2 0 10 4q4 2 7.5 3t7.5 5l12 9l12 12q4 2 13 10q6 4 11 10.5t11 12.5l21 24q2 2 2 4q-2 2 -5 2q-4 0 -8 -4l-4 -6l-14 -16l-12 -15q-4 -4 -7.5 -7t-7.5 -7l-16 -14l-8 -6l-11 -5 l-2 -2q-2 0 -4 2h2l9 17l4 8t6 8l8 13q4 4 8 12l74 108q12 12 16 21l19 18l43 49q10 12 19 24.5t20 25.5l12 20v10q-2 2 -10 2q-4 0 -13 -4q-4 0 -7 -2t-7 -4q-8 -4 -12 -8l-10 -8q-6 -4 -12.5 -9.5t-12.5 -11.5l-21 -22q-8 -8 -20 -25q-4 -8 -16 -24q-10 -12 -17.5 -24.5 t-15.5 -25.5l-31 -51l-22 -39l-9 -18q-2 0 -2 -2l-16 -17q-4 -6 -10 -11t-13 -11l-22 -21l-10 -8l-9 -6l-4 -2l-6 -4h-6h-4l6 12l6 10q0 2 1 2.5t1 2.5l2 2q4 8 9.5 15t11.5 15q4 8 9 16.5t11 16.5l17 25l8 14q4 4 8 12l2 2l2 2q0 2 1 2t1 3l2 2q6 4 4 8q0 2 -8 2l-12 -4 l-12 -6l-21 -15l-8 -8l-8 -8q0 8 -2 12q0 4 -8 8q-12 2 -25 0q-12 -4 -27 -10q-16 -6 -26 -14q-8 -4 -13.5 -9.5l-9.5 -9.5q-29 -23 -43 -45q-18 -23 -24 -43q-2 0 -2 -1t-3 -1q-4 -4 -9 -10t-11 -10q-8 -8 -25 -21q-6 -6 -14 -8q-8 -4 -12 -4h-4q-2 2 0 4l8 10l6 11l14 16 l25 33q6 8 12 15t10 17l11 21q4 12 2 18q0 6 -2 9q-4 4 -8 4q-6 0 -11 -2l-14 -7l-14 -8q-8 -8 -13 -10q-8 -8 -12 -10q-8 -8 -12 -10l-25 -25q-6 -6 -12 -11t-10 -12l-13 -14l-12 -12l4 6l29 41l31 43q0 2 1 2t1 2q2 2 2 4q2 4 2 8l-6 6q-2 0 -3.5 1.5t-5.5 1.5 q-2 0 -4 -1.5t-6 -1.5l-12 -6l-6 -6q-4 -2 -4 -4t-2 -4l-7 -8l-90 -156q-2 -2 -2 -8zM1329 27q0 10 4 26q2 12 13 23q12 12 22 16q8 4 29 4q20 0 30 -4q4 -4 9.5 -6t9.5 -6q10 -12 14 -25q4 -12 4 -28q0 -20 -8 -35q-6 -14 -22 -25q-16 -10 -37 -10q-23 0 -39 10 q-12 10 -23 27q-6 14 -6 33zM1331 -205h35v-20q14 25 41 24q13 0 25 -6q10 -4 14 -14q6 -12 6 -25v-92h-35v80q0 16 -4 20q-2 6 -18 7q-14 0 -21 -9q-6 -10 -6 -22v-76h-37v133zM1364 27q0 -14 8 -27q4 -12 25 -12q20 0 24 12q8 8 9 27q0 20 -9 28q-6 12 -24 13 q-18 0 -25 -13q-8 -12 -8 -28zM1425 696h125v49h-2q-4 -4 -4 -7t-2 -7q-4 -4 -4 -10q-2 -2 -6 -8q-8 -8 -14 -11q-4 -4 -17 -4h-28v86q0 10 6 15q4 4 14 4h8v4h-76v-4h7q18 0 18 -19v-65q0 -20 -18 -21h-7v-2zM1477 -295h34q0 -18 31 -18q10 0 17 2q4 8 4 10q0 8 -15 10 l-30 8q-6 2 -13.5 5.5t-11.5 7.5q-12 8 -12 24q0 12 6 23q4 8 18 16q8 6 29 6q12 0 21.5 -2t17.5 -6q12 -6 16 -16l4 -11v-10h-34q0 10 -7 15q-2 2 -16 2q-20 0 -20 -13q0 -6 12 -8l31 -8q12 -2 28 -12q10 -6 10 -25q0 -12 -6 -24q-8 -10 -20 -17q-8 -4 -31 -4h-12 q-8 0 -12 2q-12 4 -21 8q-12 8 -14 15q-4 12 -4 20zM1489 -39v133h33v-18q14 20 41 20q18 0 24 -4l17 -14q6 -12 6 -25v-92h-35v80q0 8 -4 20q-6 6 -21 7q-14 0 -20 -9q-4 -6 -4 -22v-76h-37zM1542 1090l2 4q0 2 2 4q4 8 8 12l9 12q2 4 4 7.5t4 7.5t10 12l21 29l30 36l8 11 l9 8l10 6q4 2 10 2q4 2 10 2l7 -4q0 -2 1 -3t1 -5t-2 -8q0 -4 -5 -9l-18 -24l-16 -27l-19 -18l-18 -21q-4 -2 -13 -10l-14 -12q-8 -4 -12 -8q-4 -2 -6 -4.5t-6 -2.5q-8 -4 -13 -2h-2q-2 2 -2 5zM1544 803h2q12 0 17 -2l6 -6t4 -7l35 -45v-24q0 -10 -4 -14q-4 -2 -8.5 -4.5 t-8.5 -2.5h-6v-2h78v2h-8q-8 0 -15 7q-6 2 -6 14v26l29 39l6 9q8 4 10 4q2 4 6 4q4 2 11 2v4h-56v-4h6q10 0 13 -2q4 -2 4 -8q0 -4 -6 -13l-23 -30l-28 36q-4 8 -5 9v2q0 4 2 4q0 2 7 2h10v4h-72v-4zM1624 -301h37v-37h-37v37zM1626 70v24h21v35h32v-35h23v-24h-23v-72 q0 -4 1 -6t1 -4q4 0 6.5 -1t6.5 -1l4 2h4v-27h-23q-16 0 -20 4q-10 0 -12 8v97h-21zM1686 -274q0 29 12 51q16 23 47 22q18 0 31 -6q14 -4 20 -18q10 -10 10 -27h-37q0 6 -4 14q-4 7 -16 7q-16 0 -20 -11q-8 -8 -9 -26q0 -18 2 -25q2 -10 9 -14q4 -4 16 -4q10 0 16 4 q6 6 6 18h37q0 -10 -8 -26q-6 -10 -20 -19q-12 -6 -33 -6q-27 0 -43 14q-8 8 -14 21q-2 8 -2 31zM1784 -2q0 20 10 29q12 8 29 12l30 4q12 2 13 10q0 16 -21 17q-8 0 -16 -4q-6 -2 -8 -17h-33q2 18 8 29q4 8 19 14q8 4 14 4h16q27 0 37 -4l8 -8t6 -8q4 -12 5 -17v-86 q0 -6 8 -6v-6h-39q-2 0 -2 2v2v2q0 4 -1 6t-1 4q-4 -6 -11 -10q-4 -2 -7 -4t-5 -2l-9 -3t-9 -1t-19 4q-4 4 -8 6t-8 6q-6 8 -6 25zM1819 -2q0 -10 4 -10q4 -4 12 -4h8h2l4 2q8 4 13 8q4 8 4 16v17q-6 -6 -15 -7l-16 -4q-6 0 -12 -6q-4 -2 -4 -12zM1823 -272q0 18 4 26 q2 8 5 13.5t7 11.5q12 12 23 14q8 6 28 6q16 0 29 -6q9 -2 23 -12q4 -4 6 -10.5t6 -12.5q4 -8 4 -30q0 -20 -8 -35q-6 -14 -23 -25q-14 -8 -37 -8q-27 0 -39 10q-14 10 -22 25q-6 14 -6 33zM1860 -272q0 -14 6 -27q6 -12 24 -12q19 0 25 12q4 6 5 13t1 14q0 23 -6 30 q-6 10 -25 11q-18 0 -24 -11q-6 -12 -6 -30zM1894 1329l33 45l17 27l30 41l2 2q0 4 4 4q0 2 2 2q2 2 3 0q0 -4 -5 -12l-8 -13l-8 -10q-4 -8 -8 -10l-19 -25l-20 -24l-12 -15q-2 -4 -11 -12zM1917 70v24h16v35h37v-35h23v-24h-23v-72q0 -4 1 -6t1 -4q2 0 4 -1t6 -1l7 2h4v-27 h-23q-16 0 -22 4q-8 0 -11 8q0 4 -2 7.5t-2 7.5v82h-16zM1982 -205h33v-20q14 25 39 24q16 0 23 -6q8 -4 14 -16q4 8 16 16q6 6 21 6q16 0 24 -8q13 -6 15 -16q6 -6 6 -21v-92h-35v80q0 27 -20 27q-23 0 -23 -27v-80h-35v80q0 10 -2 12q0 6 -6 13q-4 2 -12 2q-23 0 -23 -25 v-82h-35v133z" />
<glyph unicode="&#xa4;" horiz-adv-x="2365" d="M135 -205h37l21 -96l18 96h37l18 -96l23 96h35l-37 -127v-6h-37l-21 96l-20 -96h-37l-37 129v4zM205 625v579l315 68l-12 43l47 14l-10 47l49 10l-6 52l47 4v47h43l4 43l47 -6l8 47l51 -8l13 47l45 -13l18 43l47 -18l25 45l43 -22l25 41l43 -29l30 39l39 -31l33 33 l31 -29l30 27l31 -35l41 27l27 -43l45 24l22 -41l43 19l21 -47l49 14l14 -45l45 10l11 -49l51 4l2 -31l473 103v-580l-217 -47l4 -4l-27 -31l27 -33l-37 -30l27 -41l-43 -27l26 -43l-43 -24l19 -43l-47 -21l16 -49l-45 -14l8 -46l-49 -10l4 -51l-47 -4v-47h-41l-6 -43l-45 4 l-10 -45l-50 8l-14 -47l-45 14l-16 -47l-50 21l-22 -45l-43 22l-27 -41l-43 27l-28 -37l-37 31l-35 -33l-31 29l-33 -29l-28 37l-41 -27l-29 43l-43 -24l-22 41l-45 -19l-21 47l-47 -14l-14 45l-47 -10l-11 49l-49 -4l-6 47h-47v43l-41 4l4 47l-47 8l10 49l-49 15l14 45 l-32 12zM330 -205h35l22 -96l19 96h34l21 -96l20 96h37l-37 -127l-2 -6h-35l-22 96l-21 -96h-36l-35 129v4zM334 51q0 12 2 19q0 4 2 9t2 9q2 14 16 29q4 6 11.5 11t15.5 9q10 4 19.5 6t19.5 2h6q6 0 18 -4q6 0 10.5 -2t8.5 -4q14 -8 24 -22q4 -6 9 -15q2 -4 2 -12h-39 q0 6 -4 10q-2 6 -13 13q-10 6 -20 6q-6 0 -10 -2h-8l-17 -13q-4 -4 -7 -8t-5 -10q-4 -10 -4 -33q0 -18 6 -33q2 -14 14 -18q6 -4 11.5 -6t11.5 -4h6q14 0 20 6q8 0 15 10q4 6 7 11t3 12h-43v32h76v-98h-25l-4 23q-6 -10 -16 -17q-6 -4 -11.5 -5t-9.5 -5q-6 0 -11 -1t-11 -1 q-18 0 -29 8q-17 7 -25 19q-12 12 -18 30t-6 39zM334 788q0 -2 2 -4h10l10 7l13 12l8 12l12 12q2 4 10 13l74 102q6 10 12.5 17.5t10.5 17.5l24 37q6 10 12.5 18t10.5 19q6 10 11 18t9 18q2 6 0 9q-2 2 -6 2q-8 0 -10 -2l-10 -6l-21 -23l-18 -25q-10 -10 -17 -22l-18 -23 l-66 -94l-30 -49q-8 -12 -14.5 -24.5t-12.5 -24.5l-4 -6q0 -2 -1 -3t-1 -3v-5zM383 1004q2 -8 12 -15l21 -6q16 0 26 2q4 0 7 2q2 2 2 4t-2 2h-7q-4 0 -4 -2q-20 -2 -35 4q-8 4 -10 9q-4 8 -4 12q0 8 2 14l8 17l21 22q4 4 11 9t13 9q8 4 14.5 8.5t14.5 8.5t15.5 7t15.5 7 q8 2 15 4t18 6l32 7q20 4 31 4q10 0 27 -4q4 -2 9 -3.5t9 -5.5l10 -14q2 -6 2 -20q0 -6 -4 -23l-12 -22q-4 -8 -16 -25q-4 -6 -10.5 -11t-12.5 -12q-4 -6 -11 -11t-13 -11l-27 -16l-29 -13l-16 -6q-6 0 -14 -4h-7q-4 0 -6 -2q-4 0 -4 -2q-4 0 -4 -4q0 -2 2 -2h6q4 0 6 2h7 l30 10l31 12l31 15l30 18l27 19l25 22l20 23q4 6 7 12t5 12q6 12 7 23q2 12 0 20q-4 12 -9 19q-8 6 -16 10q-12 6 -23 6q-10 2 -28 2q-8 0 -29 -4q-16 -2 -32.5 -6t-32.5 -8t-32 -11.5t-32 -15.5q-8 -4 -15 -8t-16 -10q-16 -10 -26 -21q-8 -6 -21 -22l-10 -23q-2 -12 0 -20z M522 31q0 10 1 17t5 15q6 16 21 25q8 6 17 7t20 1q27 0 35 -8q12 -8 20 -27q4 -10 5 -18t1 -18v-9h-92q0 -12 10 -22q6 -8 23 -8q6 0 14 4q8 8 8 10h37q-4 -10 -12 -23q-6 -4 -11.5 -8t-9.5 -6q-8 -2 -13 -4t-13 -2q-66 0 -66 74zM522 -205h37l21 -96l18 96h37l18 -96l21 96 h37l-37 -127l-2 -6h-35l-21 96l-22 -96h-35l-37 129v4zM559 41h53q-4 12 -8 20q-4 4 -8 6.5t-10 2.5q-23 0 -27 -29zM641 803h2q23 0 23 -19v-55q0 -14 12 -27l18 -6q6 -2 23 -2q16 0 29 4q8 4 12 9q10 8 10 26v58l10 10h2l2 2h9v4h-56v-4h13q2 0 3 -1t3 -1q12 -6 12 -27 v-39q0 -16 -10 -26l-15 -11h-18q-14 0 -20 4q-4 0 -13 9q-4 4 -4 18v55q0 12 4 15q4 4 17 4h8v4h-76v-4zM657 70v24h19v35h35v-35h20v-24h-20v-72q0 -8 2 -10q2 0 5 -1t7 -1l4 2h2v-27h-20q-16 0 -23 4q-8 0 -10 8q-2 4 -2 15v82h-19zM657 924q2 -6 11 -15q12 -8 26 -6 q16 0 33 6q18 6 37 19q18 8 37 24l28 25l17 18q0 2 4 6q0 4 4 5l4 8l19 18l18 25q6 6 11 12t9 12l9 -4l4 -6q2 -4 2 -8q0 -2 -8 -10l-19 -21l-16 -22l-15 -23l-6 -20q-2 -4 -2 -11v-8q4 -6 6 -8t9 -2q4 0 20 4l19 12q16 12 24 21q6 4 11 10t10 10q8 8 10 13l10 12l4 6l6 6 q4 4 4 6l15 19l24 35q0 -4 1 -8.5t1 -8.5q4 -12 4 -16l5 -8q-20 -8 -29 -15l-23 -18q-12 -12 -14 -21q-4 -8 -4 -20q2 -6 12 -10q7 -2 23 -2q14 2 28 10q14 6 27 18q10 6 18 21l11 20q6 12 6 23v18q0 6 -4 19l-8 18l-7 8q0 4 -4 8q0 2 -4 7v6q2 2 2 4h-10l-4 -4 q-6 -2 -14 -11l-7 -14l-2 -2l-6 -8l-37 -51l-6 -8l-6 -11l-2 -2v-2q-2 0 -4 -2l-6 -10l-6 -8l-19 -23l-24 -22q-6 -6 -15 -9q-8 -4 -14 -4h-2l2 2l8 13l8 10l9 12q4 2 8 10l10 17l10 18l6 17q2 6 2 16q-2 2 -2 8l-4 6q0 4 -2 7v26l8 12q4 10 -4 15q-6 6 -20 0q-14 -4 -19 -8 q-8 -6 -12 -15q-4 -8 -4 -14q0 -8 2 -12l4 -4l4 -5l-6 -8l-6 -6l-29 -37l-22 -26q-2 0 -6 -4v-3l-2 -2q0 -2 -2 -2l-13 -16q-8 -8 -15 -15.5t-18 -13.5q-20 -16 -38 -24q-4 -4 -10.5 -5t-12.5 -5q-16 -4 -22 -3q-8 0 -9 5q-2 2 -2 8q0 2 4 10l4 10l13 21q8 -4 14 -4 q12 0 21 2q14 2 30 12q10 4 29 18l18 19q4 4 7.5 9t5.5 9l8 17q0 12 -4 16q-4 6 -10 10q-6 2 -21 2q-4 -2 -10 -2t-12 -4q-8 -2 -25 -10q-27 -12 -51 -33q-23 -18 -35 -41q-6 -6 -14 -22q-6 -10 -9 -23v-20zM711 -301h37v-37h-37v37zM723 983l18 25l21 24l8 10q4 4 6 5.5 t4 5.5l13 10l14 6q10 2 16 0q2 -4 0 -12l-6 -10q-4 -4 -8 -13q-4 -4 -5 -6t-5 -4q-2 -4 -11 -12q-4 -6 -10 -11q-8 -8 -12 -10l-14 -8q-12 -4 -15 -4q-6 0 -14 4zM780 -205h33v-20q12 25 39 24q14 0 20 -6q10 -4 17 -16q4 10 14 16q8 6 21 6q16 0 26 -8q8 -6 15 -16 q4 -4 4 -21v-92h-33v80q0 27 -21 27q-23 0 -22 -27v-80h-37v92q0 6 -6 13q-4 2 -14 2q-23 0 -23 -25v-82h-33v133zM807 776q0 -6 6 -12q0 -2 6 -8l15 -6q2 -2 8 -3.5t16 -5.5l8 -2q12 -4 17 -4q4 0 8 -4q2 0 4 -2q6 -6 6 -12q0 -2 -4 -10q-2 -2 -10 -9h-13q-12 0 -18 2 l-20 9l-13 12q-10 14 -10 24h-4v-51h4q0 8 4 8q4 4 10 5q2 0 2 -1t5 -1q2 0 3 -1.5t5 -1.5l16 -6q4 -2 16 -2q6 0 19 4q4 0 7 2t7 7q4 2 4 4t4 6v22l-6 9q-6 4 -14 8l-21 8h-12l-2 2l-16 4q-4 2 -6 2t-4 2q-2 0 -7 4q-4 4 -4 8q0 6 2 9q0 -2 4 6l9 4q4 0 6 1t6 1q8 0 16 -4 q10 0 17 -6q8 -4 12 -9q4 -4 5 -9t5 -11h4v37h-4q-2 -8 -8 -8t-10 2q-20 10 -37 10q-10 0 -23 -4l-14 -10q-6 -10 -6 -19zM809 70v24h18v10q0 37 39 37h19v-26h-11q-6 0 -8 -2q-4 0 -4 -4v-15h23v-24h-23v-109h-35v109h-18zM905 6v88h35v-82q0 -25 23 -24q8 0 12 2t12 10 q0 4 2 8t2 8v78h33v-133h-33v19q-6 -10 -16 -15q-16 -8 -25 -8q-20 0 -32 14q-12 12 -13 35zM928 696h119v45q-4 -4 -4.5 -7t-2.5 -7l-12 -16q-6 -6 -10 -6l-10 -5q-6 -2 -15 -2h-18v50h2q14 0 22 -9l5 -6q0 -2 1 -3t1 -5q2 -4 2 -10h2v71h-2v-10l-7 -12q-10 -12 -20 -12h-6 v51h20q18 0 25 -2l10 -8l6 -13l6 -16h5v43h-119v-4h4q10 0 12 -4q6 -4 6 -15v-65q0 -20 -18 -21h-4v-2zM987 979v10l4 12l8 11q10 12 23 20l27 12q0 -4 1 -6t1 -6q-2 -4 -2 -10q0 -4 -1 -6t-1 -6l-5 -11q-2 -4 -10 -12l-8 -6q-4 -4 -10 -4q-2 -2 -10 -2q-4 -4 -9 0 q-4 0 -8 4zM991 -303q0 20 13 31q8 8 26 12l33 4q10 4 10 10q0 16 -20 17q-4 0 -8.5 -1t-8.5 -1q-2 -4 -4 -8.5t-2 -8.5h-33q0 14 7 27q12 12 20 14l12 4q4 0 8.5 1t8.5 1q27 0 37 -8q10 -6 16 -14q2 -6 2 -17v-71q0 -11 2 -15q0 -6 6 -6v-6h-37q0 2 -2 4v2q-2 4 -2 10 q-8 -8 -12 -10l-12 -6q-4 -2 -17 -2q-14 0 -18 2q-10 2 -17 14q-8 6 -8 21zM1026 -301q0 -8 6 -10q4 -4 12 -4h7q2 0 3 1t3 1l12 8q4 4 4 14v19q-6 -6 -12 -7l-17 -2l-12 -6q-6 -6 -6 -14zM1057 -39v180h35v-180h-35zM1118 -39v180h33v-180h-33zM1120 752q0 -16 4 -23 q8 -12 15 -18q4 -4 10 -6.5t12 -6.5q16 -4 25 -4q23 0 33 8q12 7 24 21q8 10 8 29q0 12 -4 20t-12 19q-10 10 -23 12q-12 6 -26 6q-23 0 -33 -8q-10 -4 -15 -9.5t-10 -11.5q-8 -14 -8 -28zM1126 -205h37l21 -96l18 96h35l20 -96l23 96h35l-37 -127v-6h-37l-20 96l-21 -96 h-37l-37 129v4zM1133 1018q0 -6 4 -10t12 -9q4 0 6 -1t6 1h15q10 2 30 11l31 16l27 23l22 20l17 23l12 20l6 21q2 12 0 18q0 6 -6 12q-2 4 -12 8q-4 0 -8.5 1.5t-8.5 1.5q-6 0 -22 -5q-2 0 -15 -4l-14 -6l-29 -18q-8 -4 -14 -10.5t-12 -10.5l-21 -22l-14 -23 q-10 -17 -12 -31q-4 -14 0 -26zM1147 752q0 4 1 9t1 9l6 14q6 10 8 13q0 2 11 6q8 4 14 4q2 0 3 -1t5 -1l8 -4l10 -10q2 -4 4.5 -8.5t4.5 -10.5q0 -4 1 -9t1 -11q0 -12 -4 -29q-6 -12 -15 -21q-6 -4 -20 -4q-12 0 -15 4q-8 0 -14 11l-6 16q-4 12 -4 23zM1159 1020q0 4 2 6 q4 16 10 25q12 16 17 24l12 15l10 12l19 24q6 6 11 12.5t11 10.5l11 8l12 6q4 2 10 2q4 0 6 -4q2 -2 2 -8q0 -4 -4 -12l-6 -11l-6 -12q-4 -8 -8 -12l-8 -12q-4 -6 -8.5 -12.5t-8.5 -10.5l-18 -22l-23 -23q-6 -6 -12 -8q-6 -6 -14 -8q-5 -2 -11 -2l-4 4q-2 2 -2 8zM1241 70 v24h19v10q0 37 38 37h17v-26h-8q-8 0 -9 -2q-2 0 -4 -4v-15h25v-24h-25v-109h-34v109h-19zM1268 696h57v2q-6 0 -10 2q-4 0 -5 1t-5 1l-7 11q-2 2 -2 14v66l95 -97h4v78q0 12 6 23q2 6 18 6v4h-55v-4h10q0 -2 4 -2q8 -8 8 -10q4 -4 5 -17v-47l-78 80h-43v-4h2q8 0 10 -2 q4 0 5 -2t3 -2q2 -4 2 -11v-63q0 -8 -2 -12q-2 -6 -8 -9q-8 -4 -14 -4v-2zM1290 1022q2 0 3 -1t3 -1q6 0 11 2l10 6q0 2 4 6l4 4l6 6q0 2 4 7l21 24l22 25l21 24l24 25l25 22l10 11q4 2 12 10l13 8l14 6q2 0 2 -2h-2l-6 -6q-2 -6 -8 -8l-6 -8l-15 -17q-6 -6 -14 -18 q-12 -16 -16 -25l-17 -24q-4 -6 -8 -23q-4 -10 0 -18t10 -8q12 0 21 2q6 2 12 6t14 8q12 6 23 16l24 23l2 2q-2 -2 -2 -6q0 -8 5 -17q4 -8 12 -10q6 -2 22 2q20 8 29 15l25 18l8 8l8 8l16 15q-2 -2 -2 -6q0 -2 -1 -3.5t-1 -3.5v-8q-4 -6 0 -10q0 -4 1 -5t1 -3q2 -6 8 -6 q2 -2 9 -2q6 0 10 2l8 4l10 6l15 8l37 31l20 20l-6 -14q-4 -8 -4 -23v-6q4 -4 6 -4q0 -2 6 -2q2 0 10 4q4 2 7.5 3t7.5 5l12 9l12 12q4 2 13 10q6 4 11 10.5t11 12.5l21 24q2 2 2 4q-2 2 -5 2q-4 0 -8 -4l-4 -6l-14 -16l-12 -15q-4 -4 -7.5 -7t-7.5 -7l-16 -14l-8 -6l-11 -5 l-2 -2q-2 0 -4 2h2l9 17l4 8t6 8l8 13q4 4 8 12l74 108q12 12 16 21l19 18l43 49q10 12 19 24.5t20 25.5l12 20v10q-2 2 -10 2q-4 0 -13 -4q-4 0 -7 -2t-7 -4q-8 -4 -12 -8l-10 -8q-6 -4 -12.5 -9.5t-12.5 -11.5l-21 -22q-8 -8 -20 -25q-4 -8 -16 -24q-10 -12 -17.5 -24.5 t-15.5 -25.5l-31 -51l-22 -39l-9 -18q-2 0 -2 -2l-16 -17q-4 -6 -10 -11t-13 -11l-22 -21l-10 -8l-9 -6l-4 -2l-6 -4h-6h-4l6 12l6 10q0 2 1 2.5t1 2.5l2 2q4 8 9.5 15t11.5 15q4 8 9 16.5t11 16.5l17 25l8 14q4 4 8 12l2 2l2 2q0 2 1 2t1 3l2 2q6 4 4 8q0 2 -8 2l-12 -4 l-12 -6l-21 -15l-8 -8l-8 -8q0 8 -2 12q0 4 -8 8q-12 2 -25 0q-12 -4 -27 -10q-16 -6 -26 -14q-8 -4 -13.5 -9.5l-9.5 -9.5q-29 -23 -43 -45q-18 -23 -24 -43q-2 0 -2 -1t-3 -1q-4 -4 -9 -10t-11 -10q-8 -8 -25 -21q-6 -6 -14 -8q-8 -4 -12 -4h-4q-2 2 0 4l8 10l6 11l14 16 l25 33q6 8 12 15t10 17l11 21q4 12 2 18q0 6 -2 9q-4 4 -8 4q-6 0 -11 -2l-14 -7l-14 -8q-8 -8 -13 -10q-8 -8 -12 -10q-8 -8 -12 -10l-25 -25q-6 -6 -12 -11t-10 -12l-13 -14l-12 -12l4 6l29 41l31 43q0 2 1 2t1 2q2 2 2 4q2 4 2 8l-6 6q-2 0 -3.5 1.5t-5.5 1.5 q-2 0 -4 -1.5t-6 -1.5l-12 -6l-6 -6q-4 -2 -4 -4t-2 -4l-7 -8l-90 -156q-2 -2 -2 -8zM1329 27q0 10 4 26q2 12 13 23q12 12 22 16q8 4 29 4q20 0 30 -4q4 -4 9.5 -6t9.5 -6q10 -12 14 -25q4 -12 4 -28q0 -20 -8 -35q-6 -14 -22 -25q-16 -10 -37 -10q-23 0 -39 10 q-12 10 -23 27q-6 14 -6 33zM1331 -205h35v-20q14 25 41 24q13 0 25 -6q10 -4 14 -14q6 -12 6 -25v-92h-35v80q0 16 -4 20q-2 6 -18 7q-14 0 -21 -9q-6 -10 -6 -22v-76h-37v133zM1364 27q0 -14 8 -27q4 -12 25 -12q20 0 24 12q8 8 9 27q0 20 -9 28q-6 12 -24 13 q-18 0 -25 -13q-8 -12 -8 -28zM1425 696h125v49h-2q-4 -4 -4 -7t-2 -7q-4 -4 -4 -10q-2 -2 -6 -8q-8 -8 -14 -11q-4 -4 -17 -4h-28v86q0 10 6 15q4 4 14 4h8v4h-76v-4h7q18 0 18 -19v-65q0 -20 -18 -21h-7v-2zM1477 -295h34q0 -18 31 -18q10 0 17 2q4 8 4 10q0 8 -15 10 l-30 8q-6 2 -13.5 5.5t-11.5 7.5q-12 8 -12 24q0 12 6 23q4 8 18 16q8 6 29 6q12 0 21.5 -2t17.5 -6q12 -6 16 -16l4 -11v-10h-34q0 10 -7 15q-2 2 -16 2q-20 0 -20 -13q0 -6 12 -8l31 -8q12 -2 28 -12q10 -6 10 -25q0 -12 -6 -24q-8 -10 -20 -17q-8 -4 -31 -4h-12 q-8 0 -12 2q-12 4 -21 8q-12 8 -14 15q-4 12 -4 20zM1489 -39v133h33v-18q14 20 41 20q18 0 24 -4l17 -14q6 -12 6 -25v-92h-35v80q0 8 -4 20q-6 6 -21 7q-14 0 -20 -9q-4 -6 -4 -22v-76h-37zM1542 1090l2 4q0 2 2 4q4 8 8 12l9 12q2 4 4 7.5t4 7.5t10 12l21 29l30 36l8 11 l9 8l10 6q4 2 10 2q4 2 10 2l7 -4q0 -2 1 -3t1 -5t-2 -8q0 -4 -5 -9l-18 -24l-16 -27l-19 -18l-18 -21q-4 -2 -13 -10l-14 -12q-8 -4 -12 -8q-4 -2 -6 -4.5t-6 -2.5q-8 -4 -13 -2h-2q-2 2 -2 5zM1544 803h2q12 0 17 -2l6 -6t4 -7l35 -45v-24q0 -10 -4 -14q-4 -2 -8.5 -4.5 t-8.5 -2.5h-6v-2h78v2h-8q-8 0 -15 7q-6 2 -6 14v26l29 39l6 9q8 4 10 4q2 4 6 4q4 2 11 2v4h-56v-4h6q10 0 13 -2q4 -2 4 -8q0 -4 -6 -13l-23 -30l-28 36q-4 8 -5 9v2q0 4 2 4q0 2 7 2h10v4h-72v-4zM1624 -301h37v-37h-37v37zM1626 70v24h21v35h32v-35h23v-24h-23v-72 q0 -4 1 -6t1 -4q4 0 6.5 -1t6.5 -1l4 2h4v-27h-23q-16 0 -20 4q-10 0 -12 8v97h-21zM1686 -274q0 29 12 51q16 23 47 22q18 0 31 -6q14 -4 20 -18q10 -10 10 -27h-37q0 6 -4 14q-4 7 -16 7q-16 0 -20 -11q-8 -8 -9 -26q0 -18 2 -25q2 -10 9 -14q4 -4 16 -4q10 0 16 4 q6 6 6 18h37q0 -10 -8 -26q-6 -10 -20 -19q-12 -6 -33 -6q-27 0 -43 14q-8 8 -14 21q-2 8 -2 31zM1784 -2q0 20 10 29q12 8 29 12l30 4q12 2 13 10q0 16 -21 17q-8 0 -16 -4q-6 -2 -8 -17h-33q2 18 8 29q4 8 19 14q8 4 14 4h16q27 0 37 -4l8 -8t6 -8q4 -12 5 -17v-86 q0 -6 8 -6v-6h-39q-2 0 -2 2v2v2q0 4 -1 6t-1 4q-4 -6 -11 -10q-4 -2 -7 -4t-5 -2l-9 -3t-9 -1t-19 4q-4 4 -8 6t-8 6q-6 8 -6 25zM1819 -2q0 -10 4 -10q4 -4 12 -4h8h2l4 2q8 4 13 8q4 8 4 16v17q-6 -6 -15 -7l-16 -4q-6 0 -12 -6q-4 -2 -4 -12zM1823 -272q0 18 4 26 q2 8 5 13.5t7 11.5q12 12 23 14q8 6 28 6q16 0 29 -6q9 -2 23 -12q4 -4 6 -10.5t6 -12.5q4 -8 4 -30q0 -20 -8 -35q-6 -14 -23 -25q-14 -8 -37 -8q-27 0 -39 10q-14 10 -22 25q-6 14 -6 33zM1860 -272q0 -14 6 -27q6 -12 24 -12q19 0 25 12q4 6 5 13t1 14q0 23 -6 30 q-6 10 -25 11q-18 0 -24 -11q-6 -12 -6 -30zM1894 1329l33 45l17 27l30 41l2 2q0 4 4 4q0 2 2 2q2 2 3 0q0 -4 -5 -12l-8 -13l-8 -10q-4 -8 -8 -10l-19 -25l-20 -24l-12 -15q-2 -4 -11 -12zM1917 70v24h16v35h37v-35h23v-24h-23v-72q0 -4 1 -6t1 -4q2 0 4 -1t6 -1l7 2h4v-27 h-23q-16 0 -22 4q-8 0 -11 8q0 4 -2 7.5t-2 7.5v82h-16zM1982 -205h33v-20q14 25 39 24q16 0 23 -6q8 -4 14 -16q4 8 16 16q6 6 21 6q16 0 24 -8q13 -6 15 -16q6 -6 6 -21v-92h-35v80q0 27 -20 27q-23 0 -23 -27v-80h-35v80q0 10 -2 12q0 6 -6 13q-4 2 -12 2q-23 0 -23 -25 v-82h-35v133z" />
</font>
</defs>
</svg>
